<?xml version="1.0" encoding="UTF-8" standalone="no"?>
<svg
   xmlns:dc="http://purl.org/dc/elements/1.1/"
   xmlns:cc="http://creativecommons.org/ns#"
   xmlns:rdf="http://www.w3.org/1999/02/22-rdf-syntax-ns#"
   xmlns:svg="http://www.w3.org/2000/svg"
   xmlns="http://www.w3.org/2000/svg"
   xmlns:sodipodi="http://sodipodi.sourceforge.net/DTD/sodipodi-0.dtd"
   xmlns:inkscape="http://www.inkscape.org/namespaces/inkscape"
   inkscape:version="1.0 (4035a4fb49, 2020-05-01)"
   sodipodi:docname="alpha0.05.svg"
   viewBox="0 0 1391.6829 655.42486"
   height="655.42487"
   width="1391.6829"
   xml:space="preserve"
   id="svg8499"
   version="1.1"><metadata
     id="metadata8505"><rdf:RDF><cc:Work
         rdf:about=""><dc:format>image/svg+xml</dc:format><dc:type
           rdf:resource="http://purl.org/dc/dcmitype/StillImage" /><dc:title></dc:title></cc:Work></rdf:RDF></metadata><defs
     id="defs8503" /><sodipodi:namedview
     inkscape:current-layer="g8507"
     inkscape:window-maximized="1"
     inkscape:window-y="-9"
     inkscape:window-x="-9"
     inkscape:cy="219.28703"
     inkscape:cx="697.13746"
     inkscape:zoom="0.97191973"
     fit-margin-bottom="0"
     fit-margin-right="0"
     fit-margin-left="0"
     fit-margin-top="0"
     showgrid="false"
     id="namedview8501"
     inkscape:window-height="1361"
     inkscape:window-width="2560"
     inkscape:pageshadow="2"
     inkscape:pageopacity="0"
     guidetolerance="10"
     gridtolerance="10"
     objecttolerance="10"
     borderopacity="1"
     bordercolor="#666666"
     pagecolor="#ffffff" /><g
     transform="matrix(1.3333333,0,0,-1.3333333,-138.91338,661.07536)"
     inkscape:label="ink_ext_XXXXXX"
     inkscape:groupmode="layer"
     id="g8507"><path
       d="m 163.2,58.2676 h 972 v 437.288 h -972 z"
       style="fill:#ffffff;fill-opacity:1;fill-rule:nonzero;stroke:none;stroke-width:0.1"
       id="path8515" /><g
       id="g8517"
       transform="scale(0.0999442,-0.100056)"><path
         d="M 1632.91,-582.351 H 11358.3"
         style="fill:none;stroke:#262626;stroke-width:5.00079;stroke-linecap:square;stroke-linejoin:round;stroke-miterlimit:10;stroke-dasharray:none;stroke-opacity:1"
         id="path8519" /></g><g
       id="g8521"
       transform="scale(0.0999442,-0.100056)"><path
         d="M 1632.91,-4952.79 H 11358.3"
         style="fill:none;stroke:#262626;stroke-width:5.00079;stroke-linecap:square;stroke-linejoin:round;stroke-miterlimit:10;stroke-dasharray:none;stroke-opacity:1"
         id="path8523" /></g><g
       id="g8525"
       transform="scale(0.0999442,-0.100056)"><path
         d="m 1632.91,-582.351 v -97.254"
         style="fill:none;stroke:#262626;stroke-width:5.00079;stroke-linecap:square;stroke-linejoin:round;stroke-miterlimit:10;stroke-dasharray:none;stroke-opacity:1"
         id="path8527" /></g><g
       id="g8529"
       transform="scale(0.0999442,-0.100056)"><path
         d="m 3013.24,-582.351 v -97.254"
         style="fill:none;stroke:#262626;stroke-width:5.00079;stroke-linecap:square;stroke-linejoin:round;stroke-miterlimit:10;stroke-dasharray:none;stroke-opacity:1"
         id="path8531" /></g><g
       id="g8533"
       transform="scale(0.0999442,-0.100056)"><path
         d="m 4393.38,-582.351 v -97.254"
         style="fill:none;stroke:#262626;stroke-width:5.00079;stroke-linecap:square;stroke-linejoin:round;stroke-miterlimit:10;stroke-dasharray:none;stroke-opacity:1"
         id="path8535" /></g><g
       id="g8537"
       transform="scale(0.0999442,-0.100056)"><path
         d="m 5773.72,-582.351 v -97.254"
         style="fill:none;stroke:#262626;stroke-width:5.00079;stroke-linecap:square;stroke-linejoin:round;stroke-miterlimit:10;stroke-dasharray:none;stroke-opacity:1"
         id="path8539" /></g><g
       id="g8541"
       transform="scale(0.0999442,-0.100056)"><path
         d="m 7154.05,-582.351 v -97.254"
         style="fill:none;stroke:#262626;stroke-width:5.00079;stroke-linecap:square;stroke-linejoin:round;stroke-miterlimit:10;stroke-dasharray:none;stroke-opacity:1"
         id="path8543" /></g><g
       id="g8545"
       transform="scale(0.0999442,-0.100056)"><path
         d="m 8534.38,-582.351 v -97.254"
         style="fill:none;stroke:#262626;stroke-width:5.00079;stroke-linecap:square;stroke-linejoin:round;stroke-miterlimit:10;stroke-dasharray:none;stroke-opacity:1"
         id="path8547" /></g><g
       id="g8549"
       transform="scale(0.0999442,-0.100056)"><path
         d="m 9914.71,-582.351 v -97.254"
         style="fill:none;stroke:#262626;stroke-width:5.00079;stroke-linecap:square;stroke-linejoin:round;stroke-miterlimit:10;stroke-dasharray:none;stroke-opacity:1"
         id="path8551" /></g><g
       id="g8553"
       transform="scale(0.0999442,-0.100056)"><path
         d="m 11295,-582.351 v -97.254"
         style="fill:none;stroke:#262626;stroke-width:5.00079;stroke-linecap:square;stroke-linejoin:round;stroke-miterlimit:10;stroke-dasharray:none;stroke-opacity:1"
         id="path8555" /></g><g
       id="g8557"
       transform="scale(0.0999442,-0.100056)"><path
         d="m 1632.91,-4952.79 v 97.26"
         style="fill:none;stroke:#262626;stroke-width:5.00079;stroke-linecap:square;stroke-linejoin:round;stroke-miterlimit:10;stroke-dasharray:none;stroke-opacity:1"
         id="path8559" /></g><g
       id="g8561"
       transform="scale(0.0999442,-0.100056)"><path
         d="m 3013.24,-4952.79 v 97.26"
         style="fill:none;stroke:#262626;stroke-width:5.00079;stroke-linecap:square;stroke-linejoin:round;stroke-miterlimit:10;stroke-dasharray:none;stroke-opacity:1"
         id="path8563" /></g><g
       id="g8565"
       transform="scale(0.0999442,-0.100056)"><path
         d="m 4393.38,-4952.79 v 97.26"
         style="fill:none;stroke:#262626;stroke-width:5.00079;stroke-linecap:square;stroke-linejoin:round;stroke-miterlimit:10;stroke-dasharray:none;stroke-opacity:1"
         id="path8567" /></g><g
       id="g8569"
       transform="scale(0.0999442,-0.100056)"><path
         d="m 5773.72,-4952.79 v 97.26"
         style="fill:none;stroke:#262626;stroke-width:5.00079;stroke-linecap:square;stroke-linejoin:round;stroke-miterlimit:10;stroke-dasharray:none;stroke-opacity:1"
         id="path8571" /></g><g
       id="g8573"
       transform="scale(0.0999442,-0.100056)"><path
         d="m 7154.05,-4952.79 v 97.26"
         style="fill:none;stroke:#262626;stroke-width:5.00079;stroke-linecap:square;stroke-linejoin:round;stroke-miterlimit:10;stroke-dasharray:none;stroke-opacity:1"
         id="path8575" /></g><g
       id="g8577"
       transform="scale(0.0999442,-0.100056)"><path
         d="m 8534.38,-4952.79 v 97.26"
         style="fill:none;stroke:#262626;stroke-width:5.00079;stroke-linecap:square;stroke-linejoin:round;stroke-miterlimit:10;stroke-dasharray:none;stroke-opacity:1"
         id="path8579" /></g><g
       id="g8581"
       transform="scale(0.0999442,-0.100056)"><path
         d="m 9914.71,-4952.79 v 97.26"
         style="fill:none;stroke:#262626;stroke-width:5.00079;stroke-linecap:square;stroke-linejoin:round;stroke-miterlimit:10;stroke-dasharray:none;stroke-opacity:1"
         id="path8583" /></g><g
       id="g8585"
       transform="scale(0.0999442,-0.100056)"><path
         d="m 11295,-4952.79 v 97.26"
         style="fill:none;stroke:#262626;stroke-width:5.00079;stroke-linecap:square;stroke-linejoin:round;stroke-miterlimit:10;stroke-dasharray:none;stroke-opacity:1"
         id="path8587" /></g><g
       id="g8589"><text
         transform="matrix(0.998885,0,0,-1,143.1,34.0383)"
         style="font-variant:normal;font-weight:normal;font-size:18.0201px;font-family:Helvetica;-inkscape-font-specification:Helvetica;writing-mode:lr-tb;fill:#262626;fill-opacity:1;fill-rule:nonzero;stroke:none"
         id="text8593"><tspan
           x="0 10.019176 20.038351 30.057528 138.10983 148.12901 158.14818 168.16736 276.20129 286.22046 296.23962 306.25882 414.31128 424.33047 434.34964 444.3688 552.42169 562.44086 572.46002 582.47919 690.53168 700.55084 710.57001 720.58917 828.64185 838.66101 848.68024 858.6994 966.75171 976.77087 986.79004 996.8092"
           y="0"
           sodipodi:role="line"
           id="tspan8591">18801900192019401960198020002020</tspan></text><text
         transform="matrix(0.998885,0,0,-1,614.40091,8.4094)"
         style="font-variant:normal;font-weight:normal;font-size:19.8221px;font-family:Helvetica;-inkscape-font-specification:Helvetica;writing-mode:lr-tb;fill:#262626;fill-opacity:1;fill-rule:nonzero;stroke:none"
         id="text8597"><tspan
           x="0 16.511808 27.532896 38.553986 44.064529 55.085617 59.486122"
           y="0"
           sodipodi:role="line"
           id="tspan8595">Monthly</tspan></text></g><g
       id="g8599"
       transform="scale(0.0999442,-0.100056)"><path
         d="M 1632.91,-582.351 V -4952.79"
         style="fill:none;stroke:#262626;stroke-width:5.00079;stroke-linecap:square;stroke-linejoin:round;stroke-miterlimit:10;stroke-dasharray:none;stroke-opacity:1"
         id="path8601" /></g><g
       id="g8603"
       transform="scale(0.0999442,-0.100056)"><path
         d="M 11358.3,-582.351 V -4952.79"
         style="fill:none;stroke:#262626;stroke-width:5.00079;stroke-linecap:square;stroke-linejoin:round;stroke-miterlimit:10;stroke-dasharray:none;stroke-opacity:1"
         id="path8605" /></g><g
       id="g8607"
       transform="scale(0.0999442,-0.100056)"><path
         d="m 1632.91,-602.394 h 97.25"
         style="fill:none;stroke:#262626;stroke-width:5.00079;stroke-linecap:square;stroke-linejoin:round;stroke-miterlimit:10;stroke-dasharray:none;stroke-opacity:1"
         id="path8609" /></g><g
       id="g8611"
       transform="scale(0.0999442,-0.100056)"><path
         d="m 1632.91,-1003.35 h 97.25"
         style="fill:none;stroke:#262626;stroke-width:5.00079;stroke-linecap:square;stroke-linejoin:round;stroke-miterlimit:10;stroke-dasharray:none;stroke-opacity:1"
         id="path8613" /></g><g
       id="g8615"
       transform="scale(0.0999442,-0.100056)"><path
         d="m 1632.91,-1404.31 h 97.25"
         style="fill:none;stroke:#262626;stroke-width:5.00079;stroke-linecap:square;stroke-linejoin:round;stroke-miterlimit:10;stroke-dasharray:none;stroke-opacity:1"
         id="path8617" /></g><g
       id="g8619"
       transform="scale(0.0999442,-0.100056)"><path
         d="m 1632.91,-1805.27 h 97.25"
         style="fill:none;stroke:#262626;stroke-width:5.00079;stroke-linecap:square;stroke-linejoin:round;stroke-miterlimit:10;stroke-dasharray:none;stroke-opacity:1"
         id="path8621" /></g><g
       id="g8623"
       transform="scale(0.0999442,-0.100056)"><path
         d="m 1632.91,-2206.23 h 97.25"
         style="fill:none;stroke:#262626;stroke-width:5.00079;stroke-linecap:square;stroke-linejoin:round;stroke-miterlimit:10;stroke-dasharray:none;stroke-opacity:1"
         id="path8625" /></g><g
       id="g8627"
       transform="scale(0.0999442,-0.100056)"><path
         d="m 1632.91,-2607.18 h 97.25"
         style="fill:none;stroke:#262626;stroke-width:5.00079;stroke-linecap:square;stroke-linejoin:round;stroke-miterlimit:10;stroke-dasharray:none;stroke-opacity:1"
         id="path8629" /></g><g
       id="g8631"
       transform="scale(0.0999442,-0.100056)"><path
         d="m 1632.91,-3008.14 h 97.25"
         style="fill:none;stroke:#262626;stroke-width:5.00079;stroke-linecap:square;stroke-linejoin:round;stroke-miterlimit:10;stroke-dasharray:none;stroke-opacity:1"
         id="path8633" /></g><g
       id="g8635"
       transform="scale(0.0999442,-0.100056)"><path
         d="m 1632.91,-3409.1 h 97.25"
         style="fill:none;stroke:#262626;stroke-width:5.00079;stroke-linecap:square;stroke-linejoin:round;stroke-miterlimit:10;stroke-dasharray:none;stroke-opacity:1"
         id="path8637" /></g><g
       id="g8639"
       transform="scale(0.0999442,-0.100056)"><path
         d="m 1632.91,-3810.06 h 97.25"
         style="fill:none;stroke:#262626;stroke-width:5.00079;stroke-linecap:square;stroke-linejoin:round;stroke-miterlimit:10;stroke-dasharray:none;stroke-opacity:1"
         id="path8641" /></g><g
       id="g8643"
       transform="scale(0.0999442,-0.100056)"><path
         d="m 1632.91,-4211.01 h 97.25"
         style="fill:none;stroke:#262626;stroke-width:5.00079;stroke-linecap:square;stroke-linejoin:round;stroke-miterlimit:10;stroke-dasharray:none;stroke-opacity:1"
         id="path8645" /></g><g
       id="g8647"
       transform="scale(0.0999442,-0.100056)"><path
         d="m 1632.91,-4611.97 h 97.25"
         style="fill:none;stroke:#262626;stroke-width:5.00079;stroke-linecap:square;stroke-linejoin:round;stroke-miterlimit:10;stroke-dasharray:none;stroke-opacity:1"
         id="path8649" /></g><g
       id="g8651"
       transform="scale(0.0999442,-0.100056)"><path
         d="m 11358.3,-602.394 h -97.2"
         style="fill:none;stroke:#262626;stroke-width:5.00079;stroke-linecap:square;stroke-linejoin:round;stroke-miterlimit:10;stroke-dasharray:none;stroke-opacity:1"
         id="path8653" /></g><g
       id="g8655"
       transform="scale(0.0999442,-0.100056)"><path
         d="m 11358.3,-1003.35 h -97.2"
         style="fill:none;stroke:#262626;stroke-width:5.00079;stroke-linecap:square;stroke-linejoin:round;stroke-miterlimit:10;stroke-dasharray:none;stroke-opacity:1"
         id="path8657" /></g><g
       id="g8659"
       transform="scale(0.0999442,-0.100056)"><path
         d="m 11358.3,-1404.31 h -97.2"
         style="fill:none;stroke:#262626;stroke-width:5.00079;stroke-linecap:square;stroke-linejoin:round;stroke-miterlimit:10;stroke-dasharray:none;stroke-opacity:1"
         id="path8661" /></g><g
       id="g8663"
       transform="scale(0.0999442,-0.100056)"><path
         d="m 11358.3,-1805.27 h -97.2"
         style="fill:none;stroke:#262626;stroke-width:5.00079;stroke-linecap:square;stroke-linejoin:round;stroke-miterlimit:10;stroke-dasharray:none;stroke-opacity:1"
         id="path8665" /></g><g
       id="g8667"
       transform="scale(0.0999442,-0.100056)"><path
         d="m 11358.3,-2206.23 h -97.2"
         style="fill:none;stroke:#262626;stroke-width:5.00079;stroke-linecap:square;stroke-linejoin:round;stroke-miterlimit:10;stroke-dasharray:none;stroke-opacity:1"
         id="path8669" /></g><g
       id="g8671"
       transform="scale(0.0999442,-0.100056)"><path
         d="m 11358.3,-2607.18 h -97.2"
         style="fill:none;stroke:#262626;stroke-width:5.00079;stroke-linecap:square;stroke-linejoin:round;stroke-miterlimit:10;stroke-dasharray:none;stroke-opacity:1"
         id="path8673" /></g><g
       id="g8675"
       transform="scale(0.0999442,-0.100056)"><path
         d="m 11358.3,-3008.14 h -97.2"
         style="fill:none;stroke:#262626;stroke-width:5.00079;stroke-linecap:square;stroke-linejoin:round;stroke-miterlimit:10;stroke-dasharray:none;stroke-opacity:1"
         id="path8677" /></g><g
       id="g8679"
       transform="scale(0.0999442,-0.100056)"><path
         d="m 11358.3,-3409.1 h -97.2"
         style="fill:none;stroke:#262626;stroke-width:5.00079;stroke-linecap:square;stroke-linejoin:round;stroke-miterlimit:10;stroke-dasharray:none;stroke-opacity:1"
         id="path8681" /></g><g
       id="g8683"
       transform="scale(0.0999442,-0.100056)"><path
         d="m 11358.3,-3810.06 h -97.2"
         style="fill:none;stroke:#262626;stroke-width:5.00079;stroke-linecap:square;stroke-linejoin:round;stroke-miterlimit:10;stroke-dasharray:none;stroke-opacity:1"
         id="path8685" /></g><g
       id="g8687"
       transform="scale(0.0999442,-0.100056)"><path
         d="m 11358.3,-4211.01 h -97.2"
         style="fill:none;stroke:#262626;stroke-width:5.00079;stroke-linecap:square;stroke-linejoin:round;stroke-miterlimit:10;stroke-dasharray:none;stroke-opacity:1"
         id="path8689" /></g><g
       id="g8691"
       transform="scale(0.0999442,-0.100056)"><path
         d="m 11358.3,-4611.97 h -97.2"
         style="fill:none;stroke:#262626;stroke-width:5.00079;stroke-linecap:square;stroke-linejoin:round;stroke-miterlimit:10;stroke-dasharray:none;stroke-opacity:1"
         id="path8693" /></g><g
       id="g8695"><text
         transform="matrix(0.998885,0,0,-1,126.4,53.0633)"
         style="font-variant:normal;font-weight:normal;font-size:18.0201px;font-family:Helvetica;-inkscape-font-specification:Helvetica;writing-mode:lr-tb;fill:#262626;fill-opacity:1;fill-rule:nonzero;stroke:none"
         id="text8719"><tspan
           x="0 6.0006933 16.019869 21.029457"
           y="0"
           sodipodi:role="line"
           id="tspan8697">-0.8</tspan><tspan
           x="0 6.0006933 16.019869 21.029457"
           y="-40.118"
           sodipodi:role="line"
           id="tspan8699">-0.6</tspan><tspan
           x="0 6.0006933 16.019869 21.029457"
           y="-80.236397"
           sodipodi:role="line"
           id="tspan8701">-0.4</tspan><tspan
           x="0 6.0006933 16.019869 21.029457"
           y="-120.3548"
           sodipodi:role="line"
           id="tspan8703">-0.2</tspan><tspan
           x="21.023399"
           y="-160.47321"
           id="tspan8705">0</tspan><tspan
           x="6.0067 16.025875 21.035463"
           y="-200.5916"
           sodipodi:role="line"
           id="tspan8707">0.2</tspan><tspan
           x="6.0067 16.025875 21.035463"
           y="-240.71001"
           sodipodi:role="line"
           id="tspan8709">0.4</tspan><tspan
           x="6.0067 16.025875 21.035463"
           y="-280.8284"
           sodipodi:role="line"
           id="tspan8711">0.6</tspan><tspan
           x="6.0067 16.025875 21.035463"
           y="-320.94681"
           sodipodi:role="line"
           id="tspan8713">0.8</tspan><tspan
           x="21.023399"
           y="-361.06519"
           id="tspan8715">1</tspan><tspan
           x="6.0067 16.025875 21.035463"
           y="-401.18359"
           sodipodi:role="line"
           id="tspan8717">1.2</tspan></text><text
         transform="matrix(0,1,0.99888125,0,118.6,173.295)"
         style="font-variant:normal;font-weight:normal;font-size:19.8222px;font-family:Helvetica;-inkscape-font-specification:Helvetica;writing-mode:lr-tb;fill:#262626;fill-opacity:1;fill-rule:nonzero;stroke:none"
         id="text8723"><tspan
           x="0 16.511873 27.533003 38.554131 49.575264 55.085827 67.197174 78.218307 94.730179 105.75131 116.77244 123.37322 134.39435 139.90492 150.92604 157.52684 168.54796 174.05853 179.56909 185.07965 193.00853"
           y="0"
           sodipodi:role="line"
           id="tspan8721">Mean Temperature / °C</tspan></text></g><g
       transform="translate(-1.5433374,-36.268428)"
       id="g8725"><text
         transform="matrix(0.998885,0,0,-1,425.701,503.364)"
         style="font-variant:normal;font-weight:bold;font-size:20.0221px;font-family:Helvetica;-inkscape-font-specification:Helvetica-Bold;writing-mode:lr-tb;fill:#000000;fill-opacity:1;fill-rule:nonzero;stroke:none"
         id="text8729"><tspan
           x="0 16.67841 27.810698 38.942986 51.176487 56.74263 68.976135 74.542282 86.77578 99.009285 110.14157 115.70772 121.27386 127.94122 139.0735 156.87315 169.10666 180.23894 188.02754 199.15984 205.82719 218.06068 225.84929 236.98158 242.54771 253.68001 264.81229 275.94458 287.07687 293.74423 304.87653 316.00879 327.14108 338.27338 343.83951 350.5069 366.08408 371.65021 385.00497 397.23846 410.5932 427.27161 440.62634"
           y="0"
           sodipodi:role="line"
           id="tspan8727">Mean global temperature 1880-2020 (GISTEMP)</tspan></text></g><g
       id="g8731"
       transform="scale(0.0999442,-0.100056)"><path
         d="m 1632.91,-1865.42 5.86,120.3 5.48,-300.73 5.85,140.34 5.68,-140.34 5.85,240.58 5.67,-60.15 5.86,-160.38 5.85,80.19 5.67,180.43 5.86,-40.09 5.67,-80.19 5.86,40.1 5.86,-100.25 5.29,-340.81 5.86,-40.09 5.66,-40.1 5.86,501.19 5.67,-380.9 5.86,80.18 5.85,240.59 5.68,120.28 5.85,-60.15 5.67,-240.57 5.86,-461.1 5.85,60.15 5.3,180.43 5.85,421 5.67,-40.1 5.86,160.39 5.67,-120.29 5.86,-180.43 5.86,140.33 5.66,200.49 5.86,-160.39 5.67,380.91 5.86,-120.29 5.86,160.39 5.29,-501.2 5.86,120.28 5.66,-20.04 5.86,-180.43 5.67,-40.1 5.86,140.34 5.85,160.38 5.67,-200.48 5.86,240.57 5.67,-240.57 5.86,40.1 5.85,-100.24 5.48,581.39 5.87,60.14 5.66,-120.29 5.86,20.05 5.67,-40.09 5.86,-100.24 5.85,-20.06 5.67,-40.09 5.86,160.39 5.67,-40.1 5.85,561.34 5.86,-501.2 5.29,-160.38 5.86,320.77 5.67,60.14 5.86,-20.05 5.66,-200.48 5.86,-60.14 5.87,-40.1 5.66,-100.23 h 5.86 l 5.67,-280.68 5.86,681.63 5.85,140.34 5.29,-160.39 5.86,-300.71 5.67,-80.19 5.86,220.52 5.67,-340.82 5.86,260.63 5.85,-140.33 5.67,80.19 5.86,-20.06 5.67,-40.09 5.85,942.247 5.86,-300.707 5.29,-421.01 5.86,-20.05 5.67,-100.24 5.86,-100.24 5.66,20.05 5.86,180.43 5.86,-180.43 5.67,200.48 5.86,-200.48 5.66,140.34 5.87,20.04 5.85,40.1 5.48,120.29 5.86,-421.01 5.67,20.05 5.86,-80.2 5.66,-140.33 5.86,100.24 5.86,-80.19 5.67,-260.62 5.86,-20.05 5.66,120.29 5.86,100.23 5.86,-501.19 5.29,220.53 5.85,-80.2 5.68,200.48 5.85,200.48 5.68,-60.14 5.85,260.62 5.86,80.19 5.67,20.05 5.86,160.38 5.66,-100.24 5.86,260.63 5.86,60.14 5.29,-80.19 5.86,-220.53 5.66,200.48 5.86,-300.72 5.67,60.15 5.86,220.53 5.86,-40.1 5.67,-240.58 5.86,360.86 5.66,-240.57 5.86,80.19 5.85,240.57 5.3,-561.33 5.85,180.43 5.68,-220.53 5.85,80.19 5.67,-60.15 h 5.86 l 5.86,-40.09 5.66,140.33 5.86,180.44 5.67,-541.3 5.86,481.15 5.86,-360.86 5.48,601.44 5.85,-140.34 5.68,-200.47 5.85,-20.06 5.67,180.44 5.86,-80.19 5.86,-220.53 5.66,-40.09 5.86,541.29 5.67,-60.14 5.86,862.049 5.86,-481.149 5.29,-701.68 5.86,100.25 5.66,120.28 5.86,-160.38 5.67,-240.58 5.86,220.53 5.85,-40.1 5.67,-80.18 h 5.86 l 5.67,260.62 5.86,421 5.85,-461.1 5.3,-120.28 5.85,421 5.67,-280.67 5.86,200.48 5.66,-340.81 h 5.86 l 5.87,80.19 5.66,-80.19 5.86,40.09 5.67,-100.24 5.86,400.96 5.86,40.09 5.28,-200.47 5.86,-220.53 5.67,100.23 5.86,-120.28 5.67,-80.19 h 5.86 l 5.85,-80.19 5.67,-40.1 5.86,120.29 5.67,-60.15 5.85,160.39 5.86,-180.43 5.48,280.66 5.86,80.2 5.67,-300.72 5.86,-100.24 5.67,-160.39 5.85,60.15 5.86,40.1 5.67,-280.68 5.86,220.53 h 5.67 l 5.85,220.53 5.86,40.09 5.29,-80.19 5.86,-220.53 5.67,-20.04 5.86,200.48 5.66,-180.44 5.86,140.34 5.86,-20.05 5.67,80.2 5.86,100.23 5.66,40.1 5.86,-360.86 5.86,561.34 5.29,421.01 5.86,-400.96 5.67,-20.05 5.86,-220.52 5.67,60.14 5.85,80.19 5.86,-80.19 5.67,260.62 5.86,60.14 5.67,-300.72 5.85,-140.33 5.86,461.11 5.29,-60.15 5.86,-300.72 5.66,40.09 5.86,180.44 5.67,-320.77 5.86,-140.34 5.86,-80.19 h 5.67 l 5.86,-360.86 5.67,781.87 5.85,200.48 5.86,-601.44 5.29,-120.29 5.86,180.43 h 5.67 l 5.86,20.05 5.66,60.15 5.87,-80.2 5.85,-80.19 5.67,-300.71 5.85,320.76 5.68,20.05 5.85,300.72 5.86,-220.53 5.29,-340.82 5.86,180.43 5.66,260.63 5.86,-80.19 5.67,60.15 5.86,120.28 5.86,20.05 5.67,140.33 5.85,-220.53 5.67,180.43 5.86,-180.43 5.85,-220.52 5.3,421.01 h 5.86 l 5.67,80.19 5.85,-40.1 5.67,-40.09 5.86,40.09 5.86,-20.05 h 5.66 l 5.86,120.29 5.67,120.29 5.86,-360.87 5.86,-340.81 5.29,320.77 5.86,380.91 5.66,-20.05 5.86,40.1 5.67,-140.34 5.86,200.48 5.86,100.24 5.67,-40.09 5.85,-120.29 5.67,160.38 5.86,260.617 5.86,-100.237 5.47,-200.47 5.86,40.09 5.67,40.1 5.86,-80.19 5.67,60.14 5.86,-40.1 5.86,140.33 5.67,-340.8 5.85,-441.06 5.67,320.77 5.86,40.09 5.85,481.15 5.3,-741.77 5.85,240.57 5.67,-80.19 5.86,-40.09 5.67,-20.06 5.85,-140.33 5.86,-20.04 5.67,120.28 5.86,-360.86 5.67,120.29 5.86,300.72 5.86,40.09 5.29,-220.52 5.85,-280.68 5.67,421.01 5.86,-120.29 5.67,60.14 5.86,-60.14 5.85,180.43 5.67,-180.43 5.86,340.82 5.67,-441.05 5.86,561.33 5.85,160.39 5.3,-481.16 5.85,200.49 5.67,180.43 5.86,-80.19 5.67,-140.34 5.85,-20.05 h 5.86 l 5.67,-220.53 5.86,461.11 5.67,20.04 5.85,-40.09 5.86,-240.57 5.49,441.05 5.85,-200.48 5.66,-140.34 h 5.86 l 5.67,-60.14 5.86,220.53 5.86,-200.48 5.67,160.38 5.86,160.39 5.67,-60.15 5.85,461.097 5.86,-521.237 5.29,180.43 5.86,80.19 5.67,-80.19 5.86,-60.14 5.67,-140.34 5.86,-240.57 5.85,120.29 5.67,20.04 5.85,-160.38 5.68,481.14 5.85,-280.66 h 5.86 l 5.29,180.43 5.86,-180.43 5.67,-160.39 5.85,80.19 5.67,-80.19 5.86,40.1 5.86,60.15 5.67,40.09 5.85,280.67 5.68,240.57 5.85,-100.237 5.86,-100.233 5.29,80.19 5.86,-160.39 5.67,-40.09 5.86,-20.05 5.66,-180.43 5.86,60.14 5.86,-60.14 5.67,-280.68 5.85,-120.28 h 5.68 l 5.85,80.19 5.86,-220.53 5.48,481.15 5.86,-421 5.67,80.19 5.86,40.09 5.66,380.92 5.86,240.57 5.86,80.19 5.67,-20.04 5.85,-360.86 5.67,80.18 5.86,-60.14 5.86,100.24 5.29,-40.1 5.85,-60.14 5.67,80.19 5.86,20.05 5.67,-180.43 5.86,-40.1 5.86,20.05 5.67,-40.09 5.85,-260.63 5.67,-360.86 5.86,-140.33 5.86,300.71 5.29,280.68 5.86,100.23 5.67,-160.38 5.85,100.24 5.67,-40.09 5.85,-160.39 5.86,20.05 5.68,-260.62 5.85,220.53 5.67,-220.53 5.86,340.81 5.86,-340.81 5.29,120.28 5.85,-320.77 5.67,240.58 5.86,320.77 5.67,-200.48 5.86,200.48 5.85,-20.05 5.67,80.19 5.86,-240.57 5.67,180.43 5.86,-200.48 5.85,60.15 5.49,260.62 5.85,60.14 5.67,60.14 5.86,300.72 5.67,-240.57 5.86,-180.43 5.85,160.38 5.67,-60.14 5.86,260.62 5.67,721.719 5.86,-481.149 5.85,100.237 5.3,20.051 5.85,-180.428 h 5.67 l 5.86,-240.58 5.67,-360.86 5.85,-60.14 5.86,20.04 5.67,421.01 5.86,-220.52 5.67,681.62 5.85,-380.9 5.86,-280.68 5.29,-180.43 5.86,380.91 5.67,-20.05 5.86,-140.33 5.67,-80.19 h 5.86 l 5.85,-280.68 5.67,-240.57 5.86,120.29 5.67,360.86 5.86,-180.43 5.85,60.15 5.29,-40.1 5.86,-180.43 5.67,300.72 5.85,160.38 5.68,-140.34 5.85,80.2 5.86,-140.34 5.67,-120.29 5.86,421.01 5.67,20.05 5.85,-340.82 5.86,40.09 5.48,-280.66 5.86,220.53 5.67,60.13 5.85,180.44 5.68,-120.29 5.85,-60.15 5.86,-100.23 5.67,100.23 h 5.85 l 5.67,380.92 5.86,-821.97 5.86,260.62 5.29,100.24 5.86,140.34 5.67,20.05 5.86,-60.14 5.66,-260.62 5.86,220.52 5.86,-120.29 5.67,-320.76 5.85,200.47 5.67,80.19 5.86,300.73 5.86,240.57 5.29,-601.43 5.85,160.37 5.67,220.53 5.86,-60.14 5.67,-60.14 5.86,100.24 5.86,60.14 5.67,-60.14 5.85,-360.86 5.67,80.19 5.86,180.43 5.86,240.57 5.29,-120.29 5.86,140.34 5.67,-140.34 5.86,-100.24 5.66,40.1 5.86,40.1 5.85,-20.05 5.68,-360.87 5.85,-220.53 5.67,40.1 5.86,360.86 5.86,20.06 5.48,-300.73 5.86,441.06 5.66,-240.57 5.86,140.33 5.67,60.14 5.86,140.34 5.85,-60.14 5.68,60.14 5.85,-300.72 5.67,441.05 5.85,-80.18 5.86,40.09 5.3,-260.62 5.85,-40.1 5.67,60.14 5.86,80.2 5.67,-120.3 5.86,-140.33 h 5.86 l 5.66,-60.14 5.86,-421.01 5.67,-40.1 5.86,-280.66 5.86,360.86 5.29,-160.38 5.86,461.1 5.66,220.53 5.86,40.09 5.67,40.1 5.86,-280.68 5.85,20.06 5.67,-60.15 5.86,-100.24 5.67,461.1 5.86,-40.09 5.85,-180.43 5.29,400.96 5.86,-160.39 5.67,-100.24 5.86,40.1 5.67,-180.43 5.86,120.28 5.86,-240.57 5.66,-220.53 5.86,80.19 5.67,561.34 5.86,-641.53 5.85,160.38 5.48,320.77 5.86,40.1 5.67,40.09 5.86,180.44 5.66,-380.92 5.86,60.14 5.86,-20.04 5.67,-40.1 5.86,-200.48 5.67,140.34 5.86,561.34 5.85,280.67 5.29,-521.24 5.86,180.43 5.67,-60.14 5.85,100.23 5.68,-140.33 5.85,-80.19 5.86,-140.34 5.67,-220.52 5.86,-80.2 5.66,882.11 5.86,-501.2 5.86,-60.15 5.29,-320.76 5.86,300.72 5.67,-20.05 5.86,-40.1 5.66,-20.04 5.86,-120.29 h 5.86 l 5.67,-60.14 5.86,-601.44 5.66,461.1 5.86,100.24 5.86,220.53 5.29,-220.53 5.85,260.63 5.68,-80.2 5.85,-220.53 5.68,-100.23 5.85,20.04 5.86,60.15 5.67,-240.58 5.86,200.48 h 5.66 l 5.86,-400.95 5.86,641.52 5.48,20.06 5.85,-240.58 5.68,220.52 5.85,240.58 5.68,-80.19 5.85,-60.15 5.86,-220.52 5.67,-40.1 5.86,360.87 5.66,-20.06 5.86,-60.13 5.86,120.28 5.29,20.05 5.86,-120.29 5.66,100.24 5.86,100.24 5.67,-260.62 5.86,60.14 5.86,100.24 5.67,-80.19 5.86,120.29 5.66,260.62 5.86,-461.1 5.86,-380.92 5.29,541.3 5.85,20.05 5.68,-421.01 5.85,100.25 5.68,-80.2 5.85,40.1 5.86,60.14 5.66,-160.38 5.86,-220.53 5.67,120.28 5.86,621.49 5.86,-942.25 5.29,561.35 5.86,441.05 5.66,-140.34 5.86,-40.09 5.67,-120.29 h 5.86 5.85 l 5.67,-300.72 5.86,400.95 5.67,-180.43 5.86,200.49 5.85,220.53 5.49,-340.82 5.86,-20.05 5.66,-80.19 5.86,100.24 5.67,-220.53 5.86,60.14 5.85,-80.19 5.67,-120.28 5.86,-80.2 5.67,40.1 5.86,120.29 5.85,-200.48 5.29,461.1 5.86,-100.24 5.67,-200.48 h 5.86 l 5.66,-40.09 5.86,-100.24 5.87,-140.34 h 5.66 l 5.86,20.05 5.67,300.72 5.86,-300.72 5.86,100.24 5.28,-120.29 5.86,60.15 5.67,300.71 5.86,160.38 5.67,-160.38 5.86,-80.19 5.85,-100.24 5.67,-300.71 5.86,140.33 5.67,400.96 5.85,-140.34 5.86,40.1 5.29,220.53 5.86,-180.44 5.67,-100.24 5.86,60.15 5.66,-20.05 h 5.86 l 5.86,20.05 5.67,-60.15 5.86,-220.53 5.66,-741.76 5.87,882.1 5.85,-160.38 5.48,-20.05 5.86,-160.38 5.67,120.29 h 5.86 l 5.66,-20.05 5.86,100.23 5.86,-160.37 5.67,80.19 5.86,-120.29 5.66,-300.72 5.86,280.67 5.86,-260.62 5.29,421 5.86,-120.29 5.67,-20.04 5.85,80.19 5.68,-180.43 5.85,140.34 5.86,260.62 5.67,-661.58 5.86,260.62 5.66,20.05 5.86,-160.38 5.86,541.29 5.29,-60.15 5.86,-80.19 5.66,-40.09 5.86,120.28 5.67,100.24 5.86,80.19 5.86,-20.04 5.67,-80.2 5.86,-180.43 5.66,-60.14 5.86,280.67 5.86,-360.86 5.29,421 5.86,-300.71 5.67,80.18 5.85,240.58 5.68,-260.62 5.85,140.33 5.86,-80.19 5.66,-360.86 5.86,60.15 5.67,-80.2 5.86,-240.57 5.86,240.57 5.48,-40.09 5.85,140.33 h 5.68 l 5.85,80.2 5.67,-60.15 h 5.86 l 5.86,-200.48 5.66,40.1 5.86,300.72 5.67,140.33 5.86,-120.29 5.86,200.48 5.29,-120.28 5.86,-260.63 5.66,260.63 5.86,120.28 5.67,-60.14 5.86,-461.1 5.86,120.29 5.66,40.09 5.86,220.52 5.67,280.68 5.86,-441.05 5.85,260.62 5.3,20.04 5.85,-80.19 5.68,240.58 5.85,280.67 5.67,-180.43 5.86,160.38 5.86,-240.58 h 5.66 l 5.86,-60.14 5.67,521.25 5.86,-481.15 5.86,20.04 5.28,-280.66 h 5.86 l 5.67,160.37 h 5.86 l 5.67,40.1 5.86,60.15 5.86,100.24 5.67,-380.92 5.85,80.2 5.67,320.76 5.85,-380.9 5.86,421 5.48,180.43 5.86,-240.57 5.67,-220.53 5.86,80.19 5.67,120.29 5.85,20.05 5.86,40.1 5.67,-180.44 5.86,140.34 5.67,220.53 5.85,-601.45 5.86,421.02 5.29,-240.59 5.86,180.44 5.67,-20.05 5.86,340.82 5.66,-280.68 h 5.86 l 5.86,20.06 5.67,-160.39 5.86,80.19 5.67,160.39 5.85,160.37 5.86,20.06 5.29,-380.92 5.86,260.63 5.67,-200.48 5.86,-120.29 5.67,80.19 5.86,140.34 5.85,-100.24 5.67,180.43 5.86,280.67 5.67,-260.62 5.85,260.62 5.86,140.34 5.29,-421.01 5.86,-120.28 5.66,-280.68 5.86,140.34 5.67,-120.29 5.86,-140.33 5.86,20.04 5.67,-60.14 5.86,180.43 5.67,-340.82 5.85,80.2 5.86,20.05 5.48,380.9 5.86,-220.52 5.66,120.29 h 5.86 l 5.67,-140.34 5.86,-20.05 5.86,-40.1 5.67,140.34 5.86,260.62 5.67,-220.53 5.85,-180.43 5.86,-160.37 5.29,80.19 5.86,-160.39 5.67,160.39 5.86,-20.05 5.66,220.52 5.86,-80.19 5.86,20.05 5.67,-80.19 5.85,220.53 5.68,-160.39 5.85,581.39 5.86,-280.67 5.29,100.24 5.86,-20.04 5.66,120.28 5.86,-40.09 5.67,20.04 5.86,-40.1 5.86,-140.33 5.67,-160.39 5.85,-200.47 5.67,521.25 5.86,-621.49 5.85,581.39 5.3,320.77 5.86,-200.49 5.67,-40.09 5.85,-120.28 5.67,-60.15 5.86,-260.62 5.86,260.62 5.66,-120.29 5.86,400.96 5.67,60.14 5.86,-320.76 5.86,240.57 5.48,-60.14 5.85,120.29 5.68,40.09 5.85,-260.62 5.67,-140.34 5.85,340.81 5.86,-140.33 5.67,80.2 5.86,-160.39 5.67,-180.43 5.86,60.14 5.86,-120.28 5.28,40.09 5.86,-100.24 5.67,-180.43 5.86,-120.28 5.67,260.62 5.86,-260.62 5.86,120.28 5.66,160.38 5.86,-140.33 5.67,-140.33 5.86,-481.15 5.85,340.81 5.3,280.67 5.85,140.33 5.67,-100.23 5.86,300.71 5.67,-280.67 5.85,200.48 5.86,-60.15 5.67,-120.28 5.86,40.1 5.67,20.04 5.85,-140.33 5.86,20.04 5.3,-220.52 5.85,40.09 5.67,240.58 5.86,20.05 h 5.67 l 5.86,80.19 5.85,100.24 5.67,20.05 5.86,20.04 5.67,-140.33 5.86,-20.05 5.85,-260.62 5.48,962.3 5.86,-400.96 5.67,-140.34 5.86,-80.19 h 5.67 l 5.86,-120.28 5.85,-100.25 5.67,20.06 5.86,340.81 5.67,-601.44 5.85,240.57 5.86,-240.57 5.29,200.48 5.86,-80.19 5.67,20.05 5.85,20.05 5.67,200.47 h 5.86 l 5.86,-160.38 5.67,180.43 5.86,-60.14 5.67,380.91 5.85,-421.01 5.86,-200.47 5.29,100.23 5.86,100.24 5.67,220.53 5.86,-180.43 5.66,20.05 5.87,60.14 5.85,-20.05 5.67,-20.05 5.85,-100.23 5.68,180.43 h 5.85 l 5.86,-421.01 5.29,641.54 5.86,-140.34 5.67,-20.05 5.85,-220.53 5.67,-20.04 5.86,-320.77 5.86,80.19 5.67,80.19 5.85,-20.04 5.67,360.86 5.86,120.28 5.86,20.05 5.47,220.53 5.87,220.53 5.66,-140.34 5.86,-421.01 h 5.67 l 5.86,360.86 5.86,160.39 5.67,40.1 5.85,-220.53 5.67,180.43 5.86,-441.06 5.86,180.43 5.29,-80.19 5.86,120.29 5.67,-140.33 5.86,-80.2 5.66,100.24 5.86,-180.43 5.85,220.53 5.68,-200.48 5.85,20.05 5.67,40.09 5.86,220.53 5.86,-300.72 5.29,-160.38 5.85,340.81 5.67,-20.04 5.86,-260.63 5.67,-140.33 5.86,340.81 5.86,-120.28 5.66,260.62 5.86,-300.72 5.67,20.04 5.86,100.25 5.86,280.67 5.29,-521.25 5.85,200.48 5.67,-340.81 5.86,400.95 5.67,-200.47 5.86,20.04 5.85,140.34 5.67,-300.72 5.86,280.67 h 5.67 l 5.85,421 5.86,-240.56 5.49,-681.63 5.85,521.24 5.67,160.39 5.86,-100.25 5.67,80.19 5.85,-80.19 5.86,200.48 5.67,-561.34 5.86,280.67 5.67,200.48 5.85,-80.19 5.86,120.28 5.29,-360.86 5.86,-320.76 5.67,-20.05 5.86,300.72 5.67,140.33 5.86,-160.38 5.85,-100.24 5.67,-20.05 5.86,-40.09 5.67,-240.58 5.86,320.77 5.85,-280.67 5.29,320.77 5.86,20.04 5.67,180.43 5.85,-20.04 5.68,-80.2 5.85,220.53 5.86,-441.05 5.67,180.43 5.86,20.05 5.67,280.67 5.85,-200.49 5.86,280.68 5.29,40.1 5.86,-220.53 5.67,-40.1 5.86,240.57 5.66,-180.43 5.87,-140.33 5.85,100.24 5.67,-40.1 5.86,60.15 5.67,20.04 5.86,280.67 5.85,-80.18 5.48,-400.96 5.86,40.09 5.67,60.15 5.86,-140.34 5.66,60.14 5.86,-300.72 5.86,280.68 5.67,-120.29 5.86,120.29 5.66,-320.77 5.86,-220.52 5.86,-60.15 5.29,60.15 5.86,40.09 5.67,100.24 5.85,60.14 5.68,120.29 5.85,160.38 5.86,-80.19 5.67,-20.05 5.85,100.24 5.67,240.58 5.86,60.14 5.86,340.82 5.29,-441.06 5.86,120.29 5.67,-140.34 5.86,20.05 5.66,-40.09 5.86,-280.67 5.85,380.9 5.68,-60.14 5.85,40.1 5.67,20.04 5.86,-360.86 5.86,40.1 5.29,-80.19 5.85,160.38 5.68,-240.58 5.85,340.82 h 5.67 l 5.86,320.76 5.86,-280.66 5.67,160.38 5.85,120.28 h 5.67 l 5.86,-280.66 5.86,60.14 5.48,300.72 5.85,-280.67 5.67,280.67 5.86,-180.43 5.67,-40.1 5.86,40.1 5.85,-120.29 5.67,360.86 5.86,-360.86 5.67,-340.81 5.86,-140.34 5.86,-100.24 5.29,-40.1 5.86,-20.04 5.66,-140.34 5.86,120.29 5.67,140.34 5.86,40.09 5.85,320.77 5.67,-20.05 5.86,-260.63 5.67,260.63 5.85,-60.14 5.86,-80.2 5.3,-180.43 5.85,40.1 5.67,160.38 5.86,200.48 5.67,-100.24 5.86,340.81 5.86,-380.9 5.66,60.14 5.86,-220.53 5.67,120.29 h 5.86 l 5.86,360.86 5.29,-581.39 5.86,80.2 5.66,220.52 5.86,-200.48 5.67,200.48 5.86,-260.62 5.85,-160.39 5.67,-20.04 5.86,-40.1 5.67,-400.95 5.86,360.86 5.85,-200.48 5.48,200.48 h 5.87 l 5.66,-100.24 5.85,300.72 5.68,-40.1 5.86,60.14 5.85,-20.04 5.67,140.33 5.85,-340.81 5.67,160.38 5.86,-621.48 5.86,220.52 5.29,-120.28 5.86,320.76 5.67,140.33 5.86,-80.18 5.66,-60.15 5.86,-60.14 5.86,400.96 5.67,60.14 5.86,-220.53 5.67,-360.86 5.86,721.72 5.85,-200.47 5.29,240.57 5.86,-240.57 5.67,-60.15 5.85,240.58 5.68,-180.43 5.85,220.52 5.86,-200.48 5.67,20.05 5.86,-100.24 5.66,-501.2 5.86,-200.47 5.86,200.47 5.29,20.05 5.86,280.67 5.67,-120.29 5.86,220.53 5.66,100.24 5.86,-340.81 5.86,-40.1 5.67,400.96 5.86,-260.62 5.66,260.62 5.86,-280.67 5.86,340.81 5.48,-240.57 5.86,400.96 5.66,-541.3 5.86,621.49 5.67,-340.82 h 5.86 l 5.86,-40.09 5.67,140.33 5.86,140.33 5.66,220.53 5.86,-521.24 5.86,521.24 5.29,-421 5.85,100.24 5.68,-60.14 h 5.85 l 5.68,220.52 5.85,-260.62 5.86,80.19 5.66,20.05 5.87,140.33 5.66,-180.43 5.86,-240.57 5.86,-220.53 5.29,140.34 5.86,160.38 5.66,20.05 5.86,180.43 5.67,20.05 5.86,-100.25 5.86,260.63 5.66,-240.57 5.87,100.23 5.66,-60.14 5.86,-380.91 5.85,-220.53 5.3,481.15 5.85,-120.29 5.68,-20.04 5.85,-180.43 5.67,-100.24 5.86,300.71 5.86,-200.47 5.66,40.09 5.86,80.2 5.67,-340.82 5.86,-220.53 5.86,260.63 5.48,-160.39 5.85,180.43 5.67,-20.04 5.86,80.19 5.67,140.33 5.86,-120.28 5.86,40.09 5.66,-20.05 5.86,521.25 5.67,-340.81 5.86,340.81 5.86,-360.86 5.28,-120.29 5.87,140.34 5.66,240.57 h 5.86 l 5.67,-340.82 5.86,20.05 5.85,-40.09 5.67,120.29 5.86,200.47 5.67,-360.86 5.86,-100.24 5.85,-40.09 5.29,-721.73 5.86,481.15 5.67,200.48 5.86,160.38 5.66,-160.38 5.86,240.57 5.86,220.53 5.67,-441.05 5.86,-40.1 5.67,120.29 5.86,-40.1 5.86,-140.33 5.28,300.72 5.86,-320.77 5.67,340.81 5.86,-380.9 5.67,120.28 5.85,160.39 5.86,-100.24 5.67,300.72 5.86,-20.05 5.67,-40.1 5.85,-300.72 5.86,140.34 5.48,-160.38 5.86,421 5.67,-80.19 5.86,100.24 5.67,360.86 h 5.85 l 5.86,180.43 5.67,-140.33 5.86,60.14 5.67,-360.86 5.85,-280.67 5.86,-40.1 5.29,20.05 5.86,160.38 5.66,-20.04 5.87,120.28 5.66,-40.1 5.86,280.68 5.86,-20.05 5.67,-220.53 5.86,380.91 5.66,-280.67 5.86,-160.38 5.86,481.15 5.29,-541.29 5.86,-260.63 5.67,280.67 5.85,-320.76 5.68,280.67 5.85,160.38 5.86,-200.48 5.67,-200.48 5.86,-40.09 5.66,120.28 5.86,-280.67 5.86,-541.29 5.29,641.53 5.86,20.05 5.66,380.91 5.86,-340.81 5.67,-20.05 h 5.86 l 5.86,220.52 5.66,-260.62 5.87,60.15 5.66,380.9 5.86,20.05 5.85,-441.05 5.49,260.62 5.86,20.05 5.66,80.19 5.86,40.1 5.67,-200.48 5.86,-240.57 5.86,461.09 5.66,100.25 5.86,-380.91 5.67,40.09 5.86,140.34 5.85,-220.53 5.3,-220.53 5.85,360.86 h 5.68 l 5.85,-400.95 5.67,400.95 5.86,-160.38 5.86,-200.48 5.66,-180.43 5.86,-60.14 5.67,100.24 5.86,20.05 5.86,-601.44 5.28,501.19 h 5.87 l 5.66,-100.23 5.86,-180.44 5.67,220.53 h 5.86 l 5.86,481.15 h 5.66 l 5.86,-20.05 5.67,-240.57 5.86,120.29 5.85,-300.72 5.3,641.53 5.85,20.05 5.68,80.19 5.85,-180.43 5.67,-40.1 5.85,120.29 5.86,-120.29 5.67,80.19 5.86,-80.19 5.67,-60.14 5.86,320.76 5.86,-621.48 h 5.48 5.85 l 5.67,400.96 5.86,-80.19 5.67,20.05 5.85,-60.15 5.86,80.19 5.67,200.48 5.86,-40.09 5.66,40.09 5.86,-360.86 5.87,40.1 5.28,-240.58 5.89,100.24 5.6,-140.33 5.9,120.28 5.7,-140.33 5.8,180.43 5.9,-40.1 5.7,20.05 5.8,-441.05 5.7,340.81 5.8,-441.05 5.9,-20.05 5.3,-180.43 5.8,601.44 5.7,-100.25 5.9,200.49 5.6,-160.39 5.9,160.39 5.9,-200.49 5.6,180.44 5.9,-100.24 5.6,300.72 5.9,-621.49 5.9,340.82 5.3,-40.1 5.8,100.24 5.7,-120.29 5.8,260.63 5.7,-220.53 5.9,-120.29 5.8,60.14 5.7,-220.52 5.8,400.96 5.7,-441.06 5.9,340.82 5.8,-300.72 5.5,180.43 5.9,60.14 5.6,461.1 5.9,-120.28 5.7,340.81 5.8,-400.96 5.9,-60.14 5.7,-220.53 5.8,-240.57 5.7,441.05 5.8,-481.15 5.9,300.72 5.3,-300.72 5.8,140.34 5.7,100.23 5.9,-40.09 5.6,60.14 h 5.9 l 5.8,-180.43 5.7,-80.19 5.9,20.05 5.6,120.29 5.9,220.52 5.9,-320.76 5.3,200.47 5.8,280.68 5.7,-20.05 5.8,-320.77 5.7,220.53 5.9,-320.77 5.8,120.29 5.7,-100.24 5.8,-80.19 5.7,-100.24 5.9,-481.15 5.8,661.58 5.3,-60.14 5.9,-80.2 5.6,160.39 5.9,140.33 5.7,20.05 5.8,20.05 h 5.9 l 5.7,40.1 5.8,-20.05 5.7,180.43 5.8,380.91 5.9,-140.34 5.5,-741.77 5.8,421.01 5.7,100.24 5.9,-20.05 5.6,-200.48 5.9,260.62 5.8,-280.67 5.7,-120.29 5.9,-40.09 5.6,300.72 5.9,-220.53 5.9,240.58 5.2,-20.05 5.9,-140.34 5.7,-80.19 h 5.8 l 5.7,-180.43 5.9,120.29 5.8,-100.24 5.7,160.38 5.8,-320.77 5.7,260.63 5.9,-140.34 5.8,-180.43 5.3,-160.38 5.9,160.38 5.6,180.43 5.9,140.34 5.7,100.23 5.8,-100.23 5.9,100.23 5.7,-160.38 5.8,-220.52 5.7,741.77 5.8,-140.34 5.9,80.2 5.3,-340.82 h 5.8 l 5.7,260.62 5.9,-200.48 5.6,-180.43 5.9,-80.19 5.9,360.86 5.6,-180.43 5.9,140.34 5.6,-20.05 5.9,220.53 5.9,-20.05 5.4,-160.38 5.9,-280.68 5.7,-120.28 5.8,260.62 5.7,140.34 5.8,-100.25 5.9,-180.43 5.7,-140.33 5.8,20.05 5.7,501.2 5.9,-360.87 5.8,160.38 5.3,-100.23 5.9,260.62 5.6,-120.29 5.9,-160.38 5.7,160.38 5.8,-180.43 5.9,-160.38 5.7,180.43 5.8,-300.72 5.7,280.67 5.8,-120.29 5.9,421.01 5.3,-481.15 5.8,-40.1 5.7,-120.29 5.9,380.92 5.6,200.48 5.9,-481.15 5.8,-120.29 5.7,140.33 5.9,280.67 5.6,-240.57 5.9,-120.29 5.9,-120.28 5.3,-100.25 5.8,400.96 5.7,-80.19 5.8,-40.09 5.7,160.38 5.9,-140.34 5.8,-80.19 5.7,-481.14 5.8,60.14 5.7,-200.48 5.9,-20.05 5.8,-400.96 5.5,40.1 5.9,461.1 5.6,320.76 5.9,300.72 5.7,-80.19 5.8,-340.81 5.9,220.53 5.6,40.09 5.9,-40.09 5.7,100.23 5.8,-340.81 5.9,-240.57 5.3,-40.1 5.8,441.05 5.7,80.2 5.9,380.9 5.6,-200.47 5.9,-100.25 5.8,200.48 5.7,-260.62 5.9,40.1 5.6,-120.29 5.9,240.58 5.9,-60.15 5.2,-100.24 5.9,20.05 5.7,120.29 5.8,100.24 5.7,-100.24 5.9,140.33 5.8,-100.24 5.7,-421 5.8,380.91 5.7,-180.43 5.9,-40.1 5.8,-40.1 5.3,-441.04 5.9,320.76 5.6,320.76 5.9,-140.33 5.7,-40.1 5.8,20.05 5.9,20.05 5.7,-180.43 5.8,20.05 5.7,-160.38 5.8,-160.39 5.9,-180.43 5.5,160.39 5.8,80.18 5.7,240.58 5.9,200.48 5.6,40.09 5.9,60.14 5.8,-240.57 5.7,200.48 5.9,-441.05 5.6,601.43"
         style="fill:none;stroke:#99c2ff;stroke-width:1.99912;stroke-linecap:butt;stroke-linejoin:round;stroke-miterlimit:10;stroke-dasharray:none;stroke-opacity:1"
         id="path8733" /></g><g
       id="g8735"
       transform="scale(0.0999442,-0.100056)"><path
         d="m 1632.91,-1865.42 5.86,6.02 5.48,-9.32 5.85,-1.84 5.68,-8.77 5.85,3.71 5.67,0.51 5.86,-7.53 5.85,-3.16 5.67,6.04 5.86,3.72 5.67,-0.47 5.86,1.56 5.86,-3.53 5.29,-20.4 5.86,-21.38 5.66,-22.32 5.86,3.86 5.67,-15.38 5.86,-10.6 5.85,1.95 5.68,7.88 5.85,4.47 5.67,-7.78 5.86,-30.44 5.85,-25.92 5.3,-15.6 5.85,6.23 5.67,3.92 5.86,11.74 5.67,5.13 5.86,-4.13 5.86,3.08 5.66,12.95 5.86,4.29 5.67,23.11 5.86,15.95 5.86,23.17 5.29,-3.05 5.86,3.11 5.66,1.96 5.86,-7.16 5.67,-8.81 5.86,-1.35 5.85,6.74 5.67,-3.62 5.86,8.58 5.67,-3.87 5.86,-1.68 5.85,-6.6 5.48,22.8 5.87,24.66 5.66,17.42 5.86,17.55 5.67,14.67 5.86,8.92 5.85,7.47 5.67,5.09 5.86,12.86 5.67,10.21 5.85,37.77 5.86,10.82 5.29,2.26 5.86,18.18 5.67,20.29 5.86,18.26 5.66,7.33 5.86,3.96 5.87,1.75 5.66,-3.35 5.86,-3.18 5.67,-17.06 5.86,17.89 5.85,23.99 5.29,14.79 5.86,-0.99 5.67,-4.95 5.86,6.32 5.67,-11.04 5.86,2.55 5.85,-4.59 5.67,-0.36 5.86,-1.34 5.67,-3.28 5.85,44 5.86,26.76 5.29,4.37 5.86,3.16 5.67,-2.02 5.86,-6.93 5.66,-5.58 5.86,3.72 5.86,-5.49 5.67,4.82 5.86,-5.45 5.66,1.83 5.87,2.75 5.85,4.62 5.48,10.39 5.86,-11.17 5.67,-9.61 5.86,-13.14 5.66,-19.5 5.86,-13.52 5.86,-16.84 5.67,-29.04 5.86,-28.58 5.66,-21.14 5.86,-15.08 5.86,-39.38 5.29,-26.39 5.85,-29.07 5.68,-17.6 5.85,-6.69 5.68,-9.37 5.85,4.14 5.86,7.94 5.67,8.54 5.86,16.13 5.66,10.32 5.86,22.83 5.86,24.7 5.29,19.45 5.86,7.45 5.66,17.11 5.86,1.21 5.67,4.16 5.86,14.97 5.86,12.24 5.67,-0.43 5.86,17.65 5.66,4.74 5.86,8.51 5.85,20.11 5.3,-8.95 5.85,0.51 5.68,-10.55 5.85,-6 5.67,-8.71 5.86,-8.28 5.86,-9.87 5.66,-2.36 5.86,6.79 5.67,-20.62 5.86,4.46 5.86,-13.8 5.48,16.96 5.85,9.1 5.68,-1.38 5.85,-2.32 5.67,6.83 5.86,2.47 5.86,-8.68 5.66,-10.25 5.86,17.33 5.67,13.45 5.86,55.89 5.86,29.03 5.29,-7.5 5.86,-2.12 5.66,4.01 5.86,-4.21 5.67,-16.04 5.86,-4.2 5.85,-6 5.67,-9.71 5.86,-9.22 5.67,4.27 5.86,25.11 5.85,0.79 5.3,-5.26 5.85,16.05 5.67,1.22 5.86,11.18 5.66,-6.41 5.86,-6.1 5.87,-1.78 5.66,-5.71 5.86,-3.41 5.67,-8.26 5.86,12.21 5.86,13.6 5.28,2.89 5.86,-8.27 5.67,-2.85 5.86,-8.72 5.67,-12.29 5.86,-11.68 5.85,-15.11 5.67,-16.35 5.86,-9.53 5.67,-12.05 5.85,-3.43 5.86,-12.29 5.48,2.37 5.86,6.26 5.67,-9.09 5.86,-13.66 5.67,-20.98 5.85,-16.93 5.86,-14.08 5.67,-27.41 5.86,-15 5.67,-14.27 5.85,-2.52 5.86,-0.39 5.29,-4.38 5.86,-15.19 5.67,-15.42 5.86,-4.65 5.66,-13.42 5.86,-5.73 5.86,-6.45 5.67,-2.12 5.86,2.99 5.66,4.85 5.86,-13.43 5.86,15.3 5.29,35.6 5.86,13.76 5.67,12.07 5.86,0.45 5.67,3.42 5.85,7.27 5.86,2.89 5.67,15.78 5.86,18 5.67,2.06 5.85,-5.06 5.86,18.25 5.29,14.33 5.86,-1.42 5.66,0.65 5.86,9.65 5.67,-6.88 5.86,-13.55 5.86,-16.89 5.67,-16.03 5.86,-33.29 5.67,7.48 5.85,17.13 5.86,-13.8 5.29,-19.13 5.86,-9.14 5.67,-8.69 5.86,-7.25 5.66,-3.89 5.87,-7.69 5.85,-11.32 5.67,-25.8 5.85,-8.47 5.68,-7.03 5.85,8.35 5.86,-3.1 5.29,-19.98 5.86,-9.97 5.66,3.58 5.86,-0.62 5.67,2.42 5.86,8.31 5.86,8.9 5.67,15.47 5.85,3.67 5.67,12.51 5.86,2.86 5.85,-8.31 5.3,13.16 5.86,12.5 5.67,15.89 5.85,13.08 5.67,10.43 5.86,11.91 5.86,10.31 5.66,9.8 5.86,15.32 5.67,20.57 5.86,1.5 5.86,-15.62 5.29,1.2 5.86,20.18 5.66,18.18 5.86,19.28 5.67,11.28 5.86,20.76 5.86,24.72 5.67,21.48 5.85,14.4 5.67,21.69 5.86,33.64 5.86,26.95 5.47,15.58 5.86,16.8 5.67,17.96 5.86,13.06 5.67,15.41 5.86,12.64 5.86,19.03 5.67,1.03 5.85,-21.08 5.67,-3.98 5.86,-1.78 5.85,22.37 5.3,-15.84 5.85,-3.02 5.67,-6.88 5.86,-8.53 5.67,-9.12 5.85,-15.67 5.86,-15.89 5.67,-9.09 5.86,-26.67 5.67,-19.32 5.86,-3.33 5.86,-1.14 5.29,-12.13 5.85,-25.54 5.67,-3.22 5.86,-9.08 5.67,-5.61 5.86,-8.34 5.85,1.1 5.67,-7.98 5.86,9.46 5.67,-13.06 5.86,15.66 5.85,22.89 5.3,-2.31 5.85,7.83 5.67,16.46 5.86,11.63 5.67,4.03 5.85,2.82 5.86,2.69 5.67,-8.47 5.86,15 5.67,15.25 5.85,12.49 5.86,-0.17 5.49,21.89 5.85,10.78 5.66,3.22 5.86,3.07 5.67,-0.11 5.86,10.94 5.86,0.36 5.67,8.36 5.86,15.96 5.67,12.16 5.85,34.6 5.86,6.82 5.29,15.49 5.86,18.72 5.67,13.79 5.86,10.08 5.67,2.57 5.86,-9.6 5.85,-3.09 5.67,-1.94 5.85,-9.87 5.68,14.7 5.85,-0.09 5.86,-0.07 5.29,8.94 5.86,-0.51 5.67,-8.52 5.85,-4.08 5.67,-7.88 5.86,-5.49 5.86,-2.2 5.67,-0.09 5.85,13.95 5.68,25.29 5.85,19 5.86,13.04 5.29,16.4 5.86,7.56 5.67,5.18 5.86,3.92 5.66,-5.3 5.86,-2.03 5.86,-4.94 5.67,-18.72 5.85,-23.79 5.68,-22.61 5.85,-17.47 5.86,-27.62 5.48,-2.19 5.86,-23.12 5.67,-17.96 5.86,-15.05 5.66,4.73 5.86,16.54 5.86,19.71 5.67,17.73 5.85,-1.2 5.67,2.87 5.86,-0.28 5.86,4.74 5.29,2.5 5.85,-0.62 5.67,3.4 5.86,4.25 5.67,-5 5.86,-6.74 5.86,-5.4 5.67,-7.15 5.85,-19.81 5.67,-36.87 5.86,-42.04 5.86,-24.9 5.29,-9.63 5.86,-4.13 5.67,-11.94 5.85,-6.33 5.67,-8.03 5.85,-15.64 5.86,-13.86 5.68,-26.19 5.85,-13.86 5.67,-24.19 5.86,-5.94 5.86,-22.69 5.29,-15.53 5.85,-30.8 5.67,-17.23 5.86,-0.33 5.67,-10.34 5.86,0.2 5.85,-0.8 5.67,3.24 5.86,-8.95 5.67,0.52 5.86,-9.53 5.85,-6.05 5.49,7.29 5.85,9.93 5.67,12.44 5.86,26.85 5.67,13.48 5.86,3.79 5.85,11.62 5.67,8.03 5.86,20.66 5.67,55.71 5.86,28.87 5.85,32.44 5.3,31.81 5.85,21.21 5.67,20.14 5.86,7.11 5.67,-11.29 5.85,-13.73 5.86,-12.04 5.67,9.61 5.86,-1.9 5.67,32.28 5.85,11.62 5.86,-3 5.29,-11.87 5.86,7.78 5.67,6.38 5.86,-0.95 5.67,-4.92 5.86,-4.68 5.85,-18.46 5.67,-29.58 5.86,-22.08 5.67,-2.94 5.86,-11.82 5.85,-8.21 5.29,-9.8 5.86,-18.34 5.67,-2.38 5.85,5.75 5.68,-1.55 5.85,2.53 5.86,-4.6 5.67,-10.39 5.86,11.17 5.67,11.63 5.85,-6.01 5.86,-3.69 5.48,-17.55 5.86,-5.63 5.67,-2.36 5.85,6.79 5.68,0.44 5.85,-2.6 5.86,-7.48 5.67,-2.09 5.85,-1.99 5.67,17.16 5.86,-24.8 5.86,-10.52 5.29,-4.99 5.86,2.27 5.67,3.17 h 5.86 l 5.66,-13.03 5.86,-1.35 5.86,-7.3 5.67,-22.97 5.85,-11.8 5.67,-7.21 5.86,8.2 5.86,19.82 5.29,-11.25 5.85,-2.67 5.67,8.5 5.86,5.06 5.67,1.8 5.86,6.72 5.86,9.4 5.67,5.91 5.85,-12.42 5.67,-7.79 5.86,1.62 5.86,13.57 5.29,6.87 5.86,13.55 5.67,5.85 5.86,0.55 5.66,2.53 5.86,4.4 5.85,3.18 5.68,-15.02 5.85,-25.29 5.67,-22.02 5.86,-2.89 5.86,-1.73 5.48,-16.68 5.86,6.2 5.66,-6.14 5.86,1.19 5.67,4.13 5.86,10.95 5.85,7.39 5.68,10.03 5.85,-5.51 5.67,16.82 5.85,11.97 5.86,13.37 5.3,-0.32 5.85,-2.32 5.67,0.81 5.86,4.78 5.67,-1.47 5.86,-8.42 5.86,-8 5.66,-10.6 5.86,-31.13 5.67,-31.57 5.86,-44.03 5.86,-23.78 5.29,-30.62 5.86,-6.02 5.66,5.3 5.86,7.04 5.67,8.69 5.86,-5.77 5.85,-4.49 5.67,-7.27 5.86,-11.91 5.67,11.73 5.86,9.14 5.85,-0.32 5.29,19.72 5.86,10.72 5.67,5.18 5.86,6.92 5.67,-2.44 5.86,3.69 5.86,-8.52 5.66,-19.13 5.86,-14.15 5.67,14.61 5.86,-18.18 5.85,-9.26 5.48,7.23 5.86,8.89 5.67,10.44 5.86,18.94 5.66,-1.05 5.86,2.02 5.86,0.9 5.67,-1.14 5.86,-11.11 5.67,-3.54 5.86,24.71 5.85,37.5 5.29,9.57 5.86,18.11 5.67,14.2 5.85,18.5 5.68,10.56 5.85,6.02 5.86,-1.3 5.67,-12.26 5.86,-15.66 5.66,29.23 5.86,2.72 5.86,-0.43 5.29,-16.45 5.86,-0.59 5.67,-1.56 5.86,-3.5 5.66,-4.31 5.86,-10.12 5.86,-9.61 5.67,-12.13 5.86,-41.61 5.66,-16.46 5.86,-10.64 5.86,0.93 5.29,-10.15 5.85,3.4 5.68,-0.79 5.85,-11.77 5.68,-16.2 5.85,-14.38 5.86,-10.66 5.67,-22.16 5.86,-11.02 5.66,-10.47 5.86,-30 5.86,3.59 5.48,4.4 5.85,-7.84 5.68,3.57 5.85,15.42 5.68,10.65 5.85,7.1 5.86,-4.28 5.67,-6.07 5.86,12.28 5.66,10.66 5.86,7.12 5.86,12.78 5.29,13.14 5.86,6.47 5.66,11.17 5.86,15.61 5.67,1.8 5.86,4.72 5.86,9.5 5.67,5 5.86,10.78 5.66,23.27 5.86,-0.96 5.86,-19.95 5.29,8.12 5.85,8.71 5.68,-12.78 5.85,-7.13 5.68,-10.77 5.85,-8.24 5.86,-4.81 5.66,-12.6 5.86,-22.99 5.67,-15.83 5.86,16.04 5.86,-31.87 5.29,-2.22 5.86,19.95 5.66,11.93 5.86,9.34 5.67,2.85 5.86,2.71 5.85,2.57 5.67,-12.59 5.86,8.09 5.67,-1.35 5.86,8.76 5.85,19.34 5.49,1.33 5.86,0.27 5.66,-3.77 5.86,1.44 5.67,-9.65 5.86,-6.17 5.85,-9.87 5.67,-15.39 5.86,-18.63 5.67,-15.69 5.86,-8.89 5.85,-18.48 5.29,5.51 5.86,0.21 5.67,-9.81 5.86,-9.33 5.66,-10.86 5.86,-15.34 5.87,-21.58 5.66,-20.5 5.86,-18.48 5.67,-2.52 5.86,-17.43 5.86,-11.54 5.28,-16.98 5.86,-13.13 5.67,2.57 5.86,10.46 5.67,1.92 5.86,-2.19 5.85,-7.09 5.67,-21.78 5.86,-13.66 5.67,7.06 5.85,-0.31 5.86,1.72 5.29,12.65 5.86,3 5.67,-2.17 5.86,0.96 5.66,-0.1 5.86,-0.09 5.86,0.92 5.67,-2.14 5.86,-13.06 5.66,-49.49 5.87,-2.91 5.85,-10.79 5.48,-11.25 5.86,-18.7 5.67,-11.76 5.86,-11.17 5.66,-11.61 5.86,-6.02 5.86,-13.74 5.67,-9.04 5.86,-14.61 5.66,-28.91 5.86,-13.43 5.86,-25.79 5.29,-3.44 5.86,-9.3 5.67,-9.83 5.85,-5.32 5.68,-14.09 5.85,-6.36 5.86,6.98 5.67,-26.44 5.86,-12.09 5.66,-10.48 5.86,-17.98 5.86,9.99 5.29,6.47 5.86,2.16 5.66,0.02 5.86,6.05 5.67,10.76 5.86,14.23 5.86,12.51 5.67,7.89 5.86,-1.54 5.66,-4.47 5.86,9.79 5.86,-8.74 5.29,12.74 5.86,-2.93 5.67,1.23 5.85,13.2 5.68,-0.5 5.85,6.54 5.86,2.21 5.66,-15.94 5.86,-12.14 5.67,-15.54 5.86,-26.8 5.86,-13.42 5.48,-14.76 5.85,-7.01 5.68,-6.65 5.85,-2.31 5.67,-5.21 5.86,-4.94 5.86,-14.73 5.66,-11.97 5.86,3.66 5.67,10.48 5.86,3.95 5.86,13.78 5.29,7.07 5.86,-6.3 5.66,7.03 5.86,12.7 5.67,9.05 5.86,-14.45 5.86,-7.71 5.66,-5.33 5.86,5.97 5.67,19.7 5.86,-3.33 5.85,9.86 5.3,10.38 5.85,5.84 5.68,17.58 5.85,30.74 5.67,20.18 5.86,27.18 5.86,13.8 5.66,13.11 5.86,9.45 5.67,35.03 5.86,9.23 5.86,9.76 5.28,-4.74 5.86,-4.52 5.67,3.73 5.86,3.54 5.67,5.37 5.86,8.11 5.86,12.72 5.67,-6.97 5.85,-2.61 5.67,13.56 5.85,-6.16 5.86,15.2 5.48,23.45 5.86,10.25 5.67,-1.27 5.86,2.78 5.67,8.67 5.85,9.23 5.86,10.78 5.67,1.22 5.86,8.17 5.67,18.79 5.85,-12.22 5.86,9.44 5.29,-3.06 5.86,6.12 5.67,4.8 5.86,21.61 5.66,6.49 5.86,6.17 5.86,6.86 5.67,-1.5 5.86,2.58 5.67,10.48 5.85,17.97 5.86,18.07 5.29,-1.87 5.86,11.25 5.67,0.66 5.86,-5.38 5.67,-1.11 5.86,5.97 5.85,0.65 5.67,9.65 5.86,23.2 5.67,9 5.85,21.58 5.86,27.53 5.29,5.1 5.86,-1.18 5.66,-15.14 5.86,-7.38 5.67,-13.01 5.86,-19.39 5.86,-17.41 5.67,-19.55 5.86,-9.55 5.67,-26.12 5.85,-20.79 5.86,-18.76 5.48,1.23 5.86,-9.86 5.66,-3.36 5.86,-3.18 5.67,-10.04 5.86,-10.55 5.86,-12.02 5.67,-4.4 5.86,8.84 5.67,-2.61 5.85,-11.51 5.86,-18.96 5.29,-13.99 5.86,-21.32 5.67,-12.24 5.86,-12.62 5.66,-0.96 5.86,-4.93 5.86,-3.67 5.67,-7.51 5.85,3.9 5.68,-4.32 5.85,24.97 5.86,9.69 5.29,14.22 5.86,12.5 5.66,17.89 5.86,14.99 5.67,15.25 5.86,12.47 5.86,4.84 5.67,-3.43 5.85,-13.27 5.67,13.45 5.86,-18.3 5.85,11.69 5.3,27.14 5.86,15.76 5.67,12.97 5.85,6.3 5.67,2.98 5.86,-10.2 5.86,3.35 5.66,-2.84 5.86,17.35 5.67,19.49 5.86,2.48 5.86,14.38 5.48,10.66 5.85,16.13 5.68,17.34 5.85,3.44 5.67,-3.75 5.85,13.47 5.86,5.79 5.67,9.51 5.86,1.01 5.67,-8.06 5.86,-4.64 5.86,-10.44 5.28,-7.91 5.86,-12.52 5.67,-20.91 5.86,-25.89 5.67,-11.56 5.86,-24.01 5.86,-16.8 5.66,-7.94 5.86,-14.56 5.67,-20.85 5.86,-43.86 5.85,-24.63 5.3,-9.37 5.85,-1.87 5.67,-6.8 5.86,8.58 5.67,-5.88 5.85,4.43 5.86,1.21 5.67,-4.87 5.86,-2.62 5.67,-1.49 5.85,-8.43 5.86,-7.01 5.3,-17.68 5.85,-14.8 5.67,-2.02 5.86,-0.92 5.67,-0.87 5.86,3.17 5.85,8.03 5.67,8.64 5.86,9.2 5.67,1.72 5.86,0.65 5.85,-12.43 5.48,36.31 5.86,14.45 5.67,6.7 5.86,2.37 5.67,2.25 5.86,-3.89 5.85,-8.7 5.67,-7.26 5.86,10.14 5.67,-20.44 5.85,-7.38 5.86,-19.05 5.29,-8.07 5.86,-11.68 5.67,-10.09 5.85,-8.58 5.67,1.87 5.86,1.78 5.86,-6.34 5.67,3.01 5.86,-0.15 5.67,18.91 5.85,-3.09 5.86,-12.97 5.29,-7.3 5.86,-1.93 5.67,9.2 5.86,-0.29 5.66,0.74 5.87,3.7 5.85,2.52 5.67,1.38 5.85,-3.69 5.68,5.51 5.85,5.24 5.86,-16.08 5.29,16.81 5.86,8.95 5.67,7.49 5.85,-3.9 5.67,-4.71 5.86,-20.51 5.86,-15.48 5.67,-10.7 5.85,-11.15 5.67,7.43 5.86,13.09 5.86,13.43 5.47,23.78 5.87,33.62 5.66,24.92 5.86,2.63 5.67,2.5 5.86,20.41 5.86,27.42 5.67,28.04 5.85,15.62 5.67,23.86 5.86,0.61 5.86,9.61 5.29,5.11 5.86,10.87 5.67,3.32 5.86,-0.87 5.66,4.2 5.86,-5.04 5.85,6.24 5.68,-4.1 5.85,-2.89 5.67,-0.73 5.86,10.31 5.86,-5.22 5.29,-12.99 5.85,4.71 5.67,3.46 5.86,-9.74 5.67,-16.27 5.86,1.59 5.86,-4.51 5.66,8.75 5.86,-6.72 5.67,-5.39 5.86,-0.1 5.86,13.93 5.29,-12.82 5.85,-2.16 5.67,-19.09 5.86,1.9 5.67,-8.21 5.86,-6.8 5.85,0.57 5.67,-14.5 5.86,0.25 5.67,0.24 5.85,21.28 5.86,8.19 5.49,-26.3 5.85,1.07 5.67,9.04 5.86,3.58 5.67,7.4 5.85,3.03 5.86,12.9 5.67,-15.82 5.86,-0.98 5.67,9.08 5.85,4.62 5.86,10.41 5.29,-8.16 5.86,-23.79 5.67,-23.6 5.86,-7.39 h 5.67 l 5.86,-8.02 5.85,-12.63 5.67,-13 5.86,-14.36 5.67,-25.67 5.86,-8.34 5.85,-21.96 5.29,-4.83 5.86,-3.58 5.67,5.62 5.85,4.34 5.68,0.11 5.85,11.13 5.86,-11.48 5.67,-1.89 5.86,-0.78 5.67,13.28 5.85,2.6 5.86,16.51 5.29,17.67 5.86,5.77 5.67,3.48 5.86,15.33 5.66,5.55 5.87,-1.75 5.85,3.35 5.67,1.17 5.86,4.13 5.67,4.92 5.86,18.71 5.85,13.76 5.48,-6.97 5.86,-4.61 5.67,-1.39 5.86,-8.32 5.66,-4.91 5.86,-19.69 5.86,-4.68 5.67,-10.46 5.86,-3.92 5.66,-19.76 5.86,-29.8 5.86,-31.32 5.29,-26.75 5.86,-23.4 5.67,-17.22 5.85,-13.35 5.68,-6.67 5.85,1.68 5.86,-2.41 5.67,-3.29 5.85,1.88 5.67,13.81 5.86,16.14 5.86,32.37 5.29,8.69 5.86,14.29 5.67,6.54 5.86,7.22 5.66,4.86 5.86,-9.43 5.85,10.1 5.68,6.59 5.85,8.25 5.67,8.85 5.86,-9.63 5.86,-7.16 5.29,-10.79 5.85,-2.25 5.68,-14.16 5.85,3.59 5.67,3.41 5.86,19.28 5.86,4.27 5.67,12.09 5.85,17.49 5.67,16.63 5.86,1.75 5.86,4.68 5.48,19.48 5.85,4.46 5.67,18.29 5.86,8.34 5.67,5.93 5.86,7.62 5.85,1.24 5.67,19.22 5.86,0.21 5.67,-16.84 5.86,-23.01 5.86,-26.88 5.29,-27.54 5.86,-27.16 5.66,-32.82 5.86,-25.16 5.67,-16.89 5.86,-14.04 5.85,2.7 5.67,1.56 5.86,-11.54 5.67,2.05 5.85,-1.04 5.86,-5.01 5.3,-13.77 5.85,-11.08 5.67,-2.51 5.86,7.63 5.67,2.25 5.86,19.17 5.86,-0.83 5.66,2.22 5.86,-8.92 5.67,-2.46 5.86,-2.34 5.86,15.83 5.29,-14.03 5.86,-9.33 5.66,2.17 5.86,-7.97 5.67,2.46 5.86,-10.7 5.85,-18.18 5.67,-18.27 5.86,-19.37 5.67,-38.44 5.86,-18.48 5.85,-27.58 5.48,-16.18 5.87,-15.36 5.66,-19.62 5.85,-3.59 5.68,-5.42 5.86,-2.15 5.85,-3.03 5.67,4.13 5.85,-13.12 5.67,-4.44 5.86,-35.29 5.86,-22.5 5.29,-27.39 5.86,-9.98 5.67,-2.47 5.86,-6.36 5.66,-9.04 5.86,-11.6 5.86,9.03 5.67,11.59 5.86,-0.03 5.67,-18.06 5.86,18.93 5.85,7.96 5.29,19.59 5.86,6.58 5.67,3.24 5.85,15.11 5.68,5.33 5.85,16.1 5.86,5.25 5.67,6.01 5.86,0.69 5.66,-24.4 5.86,-33.21 5.86,-21.52 5.29,-19.45 5.86,-4.43 5.67,-10.24 5.86,1.31 5.66,6.26 5.86,-11.11 5.86,-12.55 5.67,8.13 5.86,-5.31 5.66,7.98 5.86,-6.45 5.86,10.92 5.48,-1.66 5.86,18.48 5.66,-9.52 5.86,22.03 5.67,3.89 5.86,3.7 5.86,1.5 5.67,8.45 5.86,15.05 5.66,25.31 5.86,-2.01 5.86,24.15 5.29,1.9 5.85,6.81 5.68,3.46 5.85,3.29 5.68,14.15 5.85,0.42 5.86,4.4 5.66,5.18 5.87,11.95 5.66,2.32 5.86,-9.82 5.86,-20.36 5.29,-12.32 5.86,-3.69 5.66,-2.5 5.86,6.65 5.67,7.31 5.86,1.94 5.86,14.87 5.66,2.1 5.87,7.01 5.66,3.65 5.86,-15.58 5.85,-25.82 5.3,-0.48 5.85,-6.47 5.68,-7.14 5.85,-15.81 5.67,-20.03 5.86,-4 5.86,-13.81 5.66,-11.13 5.86,-6.56 5.67,-23.26 5.86,-33.14 5.86,-18.44 5.48,-25.55 5.85,-15.24 5.67,-15.48 5.86,-10.71 5.67,-3.15 5.86,-9 5.86,-6.55 5.66,-7.22 5.86,19.2 5.67,1.19 5.86,18.18 5.86,-0.77 5.28,-6.75 5.87,0.6 5.66,12.61 5.86,11.97 5.67,-5.67 5.86,-4.37 5.85,-6.17 5.67,0.16 5.86,10.17 5.67,-8.38 5.86,-12.97 5.85,-14.33 5.29,-49.7 5.86,-23.15 5.67,-11.98 5.86,-3.35 5.66,-11.21 5.86,1.38 5.86,12.34 5.67,-10.33 5.86,-11.82 5.67,-5.21 5.86,-6.96 5.86,-13.63 5.28,2.09 5.86,-14.05 5.67,3.69 5.86,-15.53 5.67,-8.75 5.85,-0.3 5.86,-5.29 5.67,10.02 5.86,8.5 5.67,6.09 5.85,-9.27 5.86,-1.77 5.48,-9.72 5.86,11.82 5.67,7.23 5.86,11.88 5.67,29.32 5.85,27.86 5.86,35.48 5.67,26.7 5.86,28.37 5.67,8.9 5.85,-5.57 5.86,-7.3 5.29,-5.93 5.86,2.38 5.66,1.27 5.87,7.21 5.66,4.85 5.86,18.64 5.86,16.7 5.67,4.85 5.86,23.64 5.66,8.43 5.86,-0.01 5.86,24.05 5.29,-4.22 5.86,-17.04 5.67,-2.15 5.85,-18.09 5.68,-3.14 5.85,5.03 5.86,-5.25 5.67,-15 5.86,-16.26 5.66,-9.44 5.86,-22.99 5.86,-48.91 5.29,-14.39 5.86,-12.67 5.66,7.01 5.86,-10.38 5.67,-10.86 5.86,-10.32 5.86,1.22 5.66,-11.87 5.87,-8.26 5.66,11.19 5.86,11.63 5.85,-11.01 5.49,2.58 5.86,3.46 5.66,7.28 5.86,8.94 5.67,-1.54 5.86,-13.49 5.86,10.23 5.66,14.74 5.86,-5.04 5.67,-2.79 5.86,4.37 5.85,-6.88 5.3,-17.56 5.85,1.36 5.68,1.3 5.85,-18.82 5.67,2.17 5.86,-5.95 5.86,-15.69 5.66,-23.91 5.86,-25.74 5.67,-19.43 5.86,-17.46 5.86,-46.66 5.28,-19.26 5.87,-18.31 5.66,-22.4 5.86,-30.3 5.67,-17.75 5.86,-16.88 5.86,8.03 5.66,7.63 5.86,6.25 5.67,-6.1 5.86,0.23 5.85,-14.83 5.3,17.99 5.85,18.1 5.68,21.2 5.85,11.12 5.67,8.56 5.85,14.14 5.86,7.43 5.67,11.06 5.86,6.5 5.67,3.17 5.86,19.04 5.86,-12.98 5.48,-12.33 5.85,-11.71 5.67,8.92 5.86,4.46 5.67,5.25 5.85,1.97 5.86,5.88 5.67,15.62 5.86,12.83 5.66,14.19 5.86,-4.56 5.87,-2.33 5.28,-14.24 5.89,-8.52 5.6,-15.1 5.9,-8.34 5.7,-14.93 5.8,-5.17 5.9,-6.92 5.7,-5.57 5.8,-27.34 5.7,-8.93 5.8,-30.54 5.9,-30.02 5.3,-37.53 5.8,-5.59 5.7,-10.32 5.9,0.22 5.6,-7.81 5.9,0.6 5.9,-9.45 5.6,0.04 5.9,-4.98 5.6,10.32 5.9,-21.28 5.9,-3.18 5.3,-5.02 5.8,0.24 5.7,-5.78 5.8,7.53 5.7,-3.86 5.9,-9.69 5.8,-6.2 5.7,-16.91 5.8,3.98 5.7,-18.27 5.9,-0.32 5.8,-15.34 5.5,-5.54 5.9,-2.26 5.6,20.9 5.9,13.84 5.7,30.2 5.8,8.63 5.9,5.2 5.7,-6.09 5.8,-17.82 5.7,5.14 5.8,-19.19 5.9,-3.19 5.3,-18.06 5.8,-10.15 5.7,-4.62 5.9,-6.4 5.6,-3.08 5.9,-2.92 5.8,-11.79 5.7,-15.21 5.9,-13.46 5.6,-6.76 5.9,4.6 5.9,-11.67 5.3,-1.06 5.8,13.02 5.7,11.38 5.8,-5.23 5.7,6.05 5.9,-10.29 5.8,-3.76 5.7,-8.59 5.8,-12.16 5.7,-16.56 5.9,-39.8 5.8,-4.73 5.3,-7.49 5.9,-11.13 5.6,-2.56 5.9,4.58 5.7,5.37 5.8,6.09 5.9,5.79 5.7,7.5 5.8,6.13 5.7,14.85 5.8,33.14 5.9,24.48 5.5,-13.85 5.8,7.9 5.7,12.52 5.9,10.89 5.6,0.33 5.9,13.33 5.8,-1.36 5.7,-7.31 5.9,-8.95 5.6,6.54 5.9,-4.82 5.9,7.45 5.2,6.08 5.9,-1.25 5.7,-5.19 5.8,-4.93 5.7,-13.71 5.9,-7.01 5.8,-11.66 5.7,-3.07 5.8,-18.95 5.7,-4.97 5.9,-11.75 5.8,-20.17 5.3,-27.19 5.9,-17.8 5.6,-7.9 5.9,-0.48 5.7,4.55 5.8,-0.69 5.9,4.36 5.7,-3.88 5.8,-14.71 5.7,23.12 5.8,14.94 5.9,18.2 5.3,0.26 5.8,0.23 5.7,13.27 5.9,2.56 5.6,-6.57 5.9,-10.26 5.9,8.3 5.6,-1.14 5.9,5.93 5.6,4.64 5.9,15.43 5.9,13.66 5.4,4.95 5.9,-9.32 5.7,-14.88 5.8,-1.1 5.7,5.97 5.8,0.67 5.9,-8.4 5.7,-14.99 5.8,-13.24 5.7,12.48 5.9,-6.18 5.8,2.15 5.3,-2.98 5.9,10.2 5.6,3.69 5.9,-4.53 5.7,3.72 5.8,-5.48 5.9,-13.24 5.7,-3.54 5.8,-18.4 5.7,-3.46 5.8,-9.29 5.9,12.22 5.3,-12.44 5.8,-13.84 5.7,-19.15 5.9,0.86 5.6,10.83 5.9,-13.77 5.8,-19.1 5.7,-11.12 5.9,3.47 5.6,-8.73 5.9,-14.31 5.9,-19.62 5.3,-23.64 5.8,-2.41 5.7,-6.3 5.8,-7.99 5.7,0.43 5.9,-6.61 5.8,-10.29 5.7,-33.83 5.8,-29.14 5.7,-37.69 5.9,-36.82 5.8,-55.03 5.5,-50.27 5.9,-24.7 5.6,-7.43 5.9,7.98 5.7,3.57 5.8,-13.64 5.9,-1.94 5.6,0.16 5.9,-1.85 5.7,3.26 5.8,-13.95 5.9,-25.29 5.3,-26.02 5.8,-2.66 5.7,1.47 5.9,20.45 5.6,9.4 5.9,3.92 5.8,13.74 5.7,0.03 5.9,2.04 5.6,-4.09 5.9,8.15 5.9,4.73 5.2,-0.51 5.9,0.51 5.7,6.5 5.8,11.19 5.7,5.62 5.9,12.36 5.8,6.72 5.7,-14.67 5.8,5.12 5.7,-4.16 5.9,-5.96 5.8,-7.66 5.3,-29.34 5.9,-11.82 5.6,4.8 5.9,-2.46 5.7,-4.34 5.8,-3.12 5.9,-1.96 5.7,-10.88 5.8,-9.34 5.7,-16.89 5.8,-24.06 5.9,-31.89 5.5,-22.27 5.8,-17.15 5.7,-4.25 5.9,5.97 5.6,7.69 5.9,10.3 5.8,-2.24 5.7,7.9 5.9,-14.55 5.6,16.25"
         style="fill:none;stroke:#000000;stroke-width:10.0076;stroke-linecap:butt;stroke-linejoin:round;stroke-miterlimit:10;stroke-dasharray:none;stroke-opacity:1"
         id="path8737" /></g><path
       d="m 951,66.0762 h 176.4 v 49.2551 H 951 Z"
       style="fill:#ffffff;fill-opacity:1;fill-rule:nonzero;stroke:none;stroke-width:0.1"
       id="path8739" /><g
       id="g8741"><text
         transform="matrix(0.998885,0,0,-1,986.28,95.1473)"
         style="font-variant:normal;font-weight:normal;font-size:18.0201px;font-family:Helvetica;-inkscape-font-specification:Helvetica;writing-mode:lr-tb;fill:#000000;fill-opacity:1;fill-rule:nonzero;stroke:none"
         id="text8745"><tspan
           x="0 13.010512 23.029688"
           y="0"
           sodipodi:role="line"
           id="tspan8743">Raw</tspan></text></g><g
       id="g8747"
       transform="scale(0.0999442,-0.100056)"><path
         d="m 9545.35,-1023 h 300.42"
         style="fill:none;stroke:#99c2ff;stroke-width:1.99912;stroke-linecap:butt;stroke-linejoin:round;stroke-miterlimit:10;stroke-dasharray:none;stroke-opacity:1"
         id="path8749" /></g><g
       id="g8751"><text
         transform="matrix(0.998885,0,0,-1,986.4,72.0809)"
         style="font-variant:normal;font-weight:normal;font-size:18.0201px;font-family:Helvetica;-inkscape-font-specification:Helvetica;writing-mode:lr-tb;fill:#000000;fill-opacity:1;fill-rule:nonzero;stroke:none"
         id="text8755"><tspan
           x="0 11.010282 15.010743 19.011206 24.020794 34.03997 40.040661 50.059837 60.079014 65.0886"
           y="0"
           sodipodi:role="line"
           id="tspan8753">Filtered, </tspan></text></g><path
       d="m 1060.22,71.8742 c -0.57,0 -1.07,0.136 -1.52,0.4082 -0.44,0.2723 -0.78,0.6367 -1.02,1.0934 -0.24,0.457 -0.36,0.9762 -0.36,1.5582 0,0.8133 0.23,1.6187 0.68,2.4164 0.45,0.798 1.06,1.4457 1.81,1.9434 0.75,0.4972 1.54,0.7457 2.37,0.7457 0.61,0 1.15,-0.1594 1.61,-0.4786 0.46,-0.3191 0.81,-0.7429 1.06,-1.2718 0.24,-0.5286 0.36,-1.0961 0.36,-1.7032 l 0.02,-1.2015 c 0.4,0.5695 0.75,1.159 1.03,1.7691 0.29,0.6102 0.51,1.2438 0.66,1.9004 0.02,0.0754 0.07,0.1129 0.14,0.1129 h 0.21 c 0.11,0 0.17,-0.0563 0.17,-0.1688 0,-0.0128 -0.01,-0.0316 -0.02,-0.0566 -0.14,-0.5504 -0.31,-1.0793 -0.53,-1.5863 -0.21,-0.5063 -0.46,-0.9977 -0.74,-1.4735 -0.29,-0.4753 -0.59,-0.907 -0.92,-1.2949 0,-1.4894 0.17,-2.234 0.51,-2.234 0.23,0 0.41,0.0657 0.55,0.1973 0.15,0.1313 0.27,0.2941 0.38,0.4883 0.11,0.1937 0.17,0.2937 0.21,0.3004 h 0.21 c 0.09,0 0.14,-0.0598 0.14,-0.1785 0,-0.2942 -0.17,-0.5821 -0.51,-0.8637 -0.34,-0.2817 -0.68,-0.4223 -1.02,-0.4223 -0.43,0 -0.79,0.1406 -1.07,0.4223 -0.29,0.2816 -0.49,0.6512 -0.6,1.1074 -0.56,-0.4816 -1.17,-0.857 -1.82,-1.1262 -0.66,-0.2691 -1.32,-0.4035 -1.99,-0.4035 z m 0.04,0.4785 c 1.28,0 2.51,0.5289 3.69,1.5864 -0.01,0.0691 -0.02,0.155 -0.03,0.2578 -0.01,0.1035 -0.02,0.1613 -0.02,0.1742 v 1.9426 c 0,2.1773 -0.58,3.2656 -1.75,3.2656 -0.71,0 -1.32,-0.3 -1.85,-0.9008 -0.53,-0.6008 -0.93,-1.3199 -1.19,-2.1582 -0.27,-0.8387 -0.4,-1.6019 -0.4,-2.2902 0,-0.5254 0.13,-0.9699 0.4,-1.3332 0.26,-0.3625 0.65,-0.5442 1.15,-0.5442"
       style="fill:#000000;fill-opacity:1;fill-rule:nonzero;stroke:none;stroke-width:0.1"
       id="path8757" /><g
       id="g8759"><text
         transform="matrix(0.998885,0,0,-1,1073.604,72.0809)"
         style="font-variant:normal;font-weight:normal;font-size:18.0201px;font-family:Helvetica;-inkscape-font-specification:Helvetica;writing-mode:lr-tb;fill:#000000;fill-opacity:1;fill-rule:nonzero;stroke:none"
         id="text8763"><tspan
           x="0 10.523739 15.533326 25.552502 30.56209 40.581264"
           y="0"
           sodipodi:role="line"
           id="tspan8761">= 0.05</tspan></text></g><g
       id="g8765"
       transform="scale(0.0999442,-0.100056)"><path
         d="m 9545.35,-790.059 h 300.42"
         style="fill:none;stroke:#000000;stroke-width:10.0076;stroke-linecap:butt;stroke-linejoin:round;stroke-miterlimit:10;stroke-dasharray:none;stroke-opacity:1"
         id="path8767" /></g><g
       id="g8769"
       transform="scale(0.0999442,-0.100056)"><path
         d="m 9515.31,-660.393 v -492.277 h 1764.99 v 492.277 z"
         style="fill:none;stroke:#262626;stroke-width:5.00079;stroke-linecap:butt;stroke-linejoin:miter;stroke-miterlimit:10;stroke-dasharray:none;stroke-opacity:1"
         id="path8771" /></g></g></svg>
