<?xml version="1.0" encoding="UTF-8" standalone="no"?>
<svg
   xmlns:dc="http://purl.org/dc/elements/1.1/"
   xmlns:cc="http://creativecommons.org/ns#"
   xmlns:rdf="http://www.w3.org/1999/02/22-rdf-syntax-ns#"
   xmlns:svg="http://www.w3.org/2000/svg"
   xmlns="http://www.w3.org/2000/svg"
   xmlns:sodipodi="http://sodipodi.sourceforge.net/DTD/sodipodi-0.dtd"
   xmlns:inkscape="http://www.inkscape.org/namespaces/inkscape"
   inkscape:version="1.0 (4035a4fb49, 2020-05-01)"
   sodipodi:docname="alpha0.5.svg"
   viewBox="0 0 1391.6829 655.42486"
   height="655.42487"
   width="1391.6829"
   xml:space="preserve"
   id="svg9465"
   version="1.1"><metadata
     id="metadata9471"><rdf:RDF><cc:Work
         rdf:about=""><dc:format>image/svg+xml</dc:format><dc:type
           rdf:resource="http://purl.org/dc/dcmitype/StillImage" /><dc:title></dc:title></cc:Work></rdf:RDF></metadata><defs
     id="defs9469" /><sodipodi:namedview
     inkscape:current-layer="g9473"
     inkscape:window-maximized="1"
     inkscape:window-y="-9"
     inkscape:window-x="-9"
     inkscape:cy="269.20891"
     inkscape:cx="674.93908"
     inkscape:zoom="0.97191973"
     fit-margin-bottom="0"
     fit-margin-right="0"
     fit-margin-left="0"
     fit-margin-top="0"
     showgrid="false"
     id="namedview9467"
     inkscape:window-height="1361"
     inkscape:window-width="2560"
     inkscape:pageshadow="2"
     inkscape:pageopacity="0"
     guidetolerance="10"
     gridtolerance="10"
     objecttolerance="10"
     borderopacity="1"
     bordercolor="#666666"
     pagecolor="#ffffff" /><g
     transform="matrix(1.3333333,0,0,-1.3333333,-138.91338,661.07536)"
     inkscape:label="ink_ext_XXXXXX"
     inkscape:groupmode="layer"
     id="g9473"><path
       d="m 163.2,58.2676 h 972 v 437.288 h -972 z"
       style="fill:#ffffff;fill-opacity:1;fill-rule:nonzero;stroke:none;stroke-width:0.1"
       id="path9481" /><g
       id="g9483"
       transform="scale(0.0999442,-0.100056)"><path
         d="M 1632.91,-582.351 H 11358.3"
         style="fill:none;stroke:#262626;stroke-width:5.00079;stroke-linecap:square;stroke-linejoin:round;stroke-miterlimit:10;stroke-dasharray:none;stroke-opacity:1"
         id="path9485" /></g><g
       id="g9487"
       transform="scale(0.0999442,-0.100056)"><path
         d="M 1632.91,-4952.79 H 11358.3"
         style="fill:none;stroke:#262626;stroke-width:5.00079;stroke-linecap:square;stroke-linejoin:round;stroke-miterlimit:10;stroke-dasharray:none;stroke-opacity:1"
         id="path9489" /></g><g
       id="g9491"
       transform="scale(0.0999442,-0.100056)"><path
         d="m 1632.91,-582.351 v -97.254"
         style="fill:none;stroke:#262626;stroke-width:5.00079;stroke-linecap:square;stroke-linejoin:round;stroke-miterlimit:10;stroke-dasharray:none;stroke-opacity:1"
         id="path9493" /></g><g
       id="g9495"
       transform="scale(0.0999442,-0.100056)"><path
         d="m 3013.24,-582.351 v -97.254"
         style="fill:none;stroke:#262626;stroke-width:5.00079;stroke-linecap:square;stroke-linejoin:round;stroke-miterlimit:10;stroke-dasharray:none;stroke-opacity:1"
         id="path9497" /></g><g
       id="g9499"
       transform="scale(0.0999442,-0.100056)"><path
         d="m 4393.38,-582.351 v -97.254"
         style="fill:none;stroke:#262626;stroke-width:5.00079;stroke-linecap:square;stroke-linejoin:round;stroke-miterlimit:10;stroke-dasharray:none;stroke-opacity:1"
         id="path9501" /></g><g
       id="g9503"
       transform="scale(0.0999442,-0.100056)"><path
         d="m 5773.72,-582.351 v -97.254"
         style="fill:none;stroke:#262626;stroke-width:5.00079;stroke-linecap:square;stroke-linejoin:round;stroke-miterlimit:10;stroke-dasharray:none;stroke-opacity:1"
         id="path9505" /></g><g
       id="g9507"
       transform="scale(0.0999442,-0.100056)"><path
         d="m 7154.05,-582.351 v -97.254"
         style="fill:none;stroke:#262626;stroke-width:5.00079;stroke-linecap:square;stroke-linejoin:round;stroke-miterlimit:10;stroke-dasharray:none;stroke-opacity:1"
         id="path9509" /></g><g
       id="g9511"
       transform="scale(0.0999442,-0.100056)"><path
         d="m 8534.38,-582.351 v -97.254"
         style="fill:none;stroke:#262626;stroke-width:5.00079;stroke-linecap:square;stroke-linejoin:round;stroke-miterlimit:10;stroke-dasharray:none;stroke-opacity:1"
         id="path9513" /></g><g
       id="g9515"
       transform="scale(0.0999442,-0.100056)"><path
         d="m 9914.71,-582.351 v -97.254"
         style="fill:none;stroke:#262626;stroke-width:5.00079;stroke-linecap:square;stroke-linejoin:round;stroke-miterlimit:10;stroke-dasharray:none;stroke-opacity:1"
         id="path9517" /></g><g
       id="g9519"
       transform="scale(0.0999442,-0.100056)"><path
         d="m 11295,-582.351 v -97.254"
         style="fill:none;stroke:#262626;stroke-width:5.00079;stroke-linecap:square;stroke-linejoin:round;stroke-miterlimit:10;stroke-dasharray:none;stroke-opacity:1"
         id="path9521" /></g><g
       id="g9523"
       transform="scale(0.0999442,-0.100056)"><path
         d="m 1632.91,-4952.79 v 97.26"
         style="fill:none;stroke:#262626;stroke-width:5.00079;stroke-linecap:square;stroke-linejoin:round;stroke-miterlimit:10;stroke-dasharray:none;stroke-opacity:1"
         id="path9525" /></g><g
       id="g9527"
       transform="scale(0.0999442,-0.100056)"><path
         d="m 3013.24,-4952.79 v 97.26"
         style="fill:none;stroke:#262626;stroke-width:5.00079;stroke-linecap:square;stroke-linejoin:round;stroke-miterlimit:10;stroke-dasharray:none;stroke-opacity:1"
         id="path9529" /></g><g
       id="g9531"
       transform="scale(0.0999442,-0.100056)"><path
         d="m 4393.38,-4952.79 v 97.26"
         style="fill:none;stroke:#262626;stroke-width:5.00079;stroke-linecap:square;stroke-linejoin:round;stroke-miterlimit:10;stroke-dasharray:none;stroke-opacity:1"
         id="path9533" /></g><g
       id="g9535"
       transform="scale(0.0999442,-0.100056)"><path
         d="m 5773.72,-4952.79 v 97.26"
         style="fill:none;stroke:#262626;stroke-width:5.00079;stroke-linecap:square;stroke-linejoin:round;stroke-miterlimit:10;stroke-dasharray:none;stroke-opacity:1"
         id="path9537" /></g><g
       id="g9539"
       transform="scale(0.0999442,-0.100056)"><path
         d="m 7154.05,-4952.79 v 97.26"
         style="fill:none;stroke:#262626;stroke-width:5.00079;stroke-linecap:square;stroke-linejoin:round;stroke-miterlimit:10;stroke-dasharray:none;stroke-opacity:1"
         id="path9541" /></g><g
       id="g9543"
       transform="scale(0.0999442,-0.100056)"><path
         d="m 8534.38,-4952.79 v 97.26"
         style="fill:none;stroke:#262626;stroke-width:5.00079;stroke-linecap:square;stroke-linejoin:round;stroke-miterlimit:10;stroke-dasharray:none;stroke-opacity:1"
         id="path9545" /></g><g
       id="g9547"
       transform="scale(0.0999442,-0.100056)"><path
         d="m 9914.71,-4952.79 v 97.26"
         style="fill:none;stroke:#262626;stroke-width:5.00079;stroke-linecap:square;stroke-linejoin:round;stroke-miterlimit:10;stroke-dasharray:none;stroke-opacity:1"
         id="path9549" /></g><g
       id="g9551"
       transform="scale(0.0999442,-0.100056)"><path
         d="m 11295,-4952.79 v 97.26"
         style="fill:none;stroke:#262626;stroke-width:5.00079;stroke-linecap:square;stroke-linejoin:round;stroke-miterlimit:10;stroke-dasharray:none;stroke-opacity:1"
         id="path9553" /></g><g
       id="g9555"><text
         transform="matrix(0.998885,0,0,-1,143.1,34.0383)"
         style="font-variant:normal;font-weight:normal;font-size:18.0201px;font-family:Helvetica;-inkscape-font-specification:Helvetica;writing-mode:lr-tb;fill:#262626;fill-opacity:1;fill-rule:nonzero;stroke:none"
         id="text9559"><tspan
           x="0 10.019176 20.038351 30.057528 138.10983 148.12901 158.14818 168.16736 276.20129 286.22046 296.23962 306.25882 414.31128 424.33047 434.34964 444.3688 552.42169 562.44086 572.46002 582.47919 690.53168 700.55084 710.57001 720.58917 828.64185 838.66101 848.68024 858.6994 966.75171 976.77087 986.79004 996.8092"
           y="0"
           sodipodi:role="line"
           id="tspan9557">18801900192019401960198020002020</tspan></text><text
         transform="matrix(0.998885,0,0,-1,614.40091,8.4094)"
         style="font-variant:normal;font-weight:normal;font-size:19.8221px;font-family:Helvetica;-inkscape-font-specification:Helvetica;writing-mode:lr-tb;fill:#262626;fill-opacity:1;fill-rule:nonzero;stroke:none"
         id="text9563"><tspan
           x="0 16.511808 27.532896 38.553986 44.064529 55.085617 59.486122"
           y="0"
           sodipodi:role="line"
           id="tspan9561">Monthly</tspan></text></g><g
       id="g9565"
       transform="scale(0.0999442,-0.100056)"><path
         d="M 1632.91,-582.351 V -4952.79"
         style="fill:none;stroke:#262626;stroke-width:5.00079;stroke-linecap:square;stroke-linejoin:round;stroke-miterlimit:10;stroke-dasharray:none;stroke-opacity:1"
         id="path9567" /></g><g
       id="g9569"
       transform="scale(0.0999442,-0.100056)"><path
         d="M 11358.3,-582.351 V -4952.79"
         style="fill:none;stroke:#262626;stroke-width:5.00079;stroke-linecap:square;stroke-linejoin:round;stroke-miterlimit:10;stroke-dasharray:none;stroke-opacity:1"
         id="path9571" /></g><g
       id="g9573"
       transform="scale(0.0999442,-0.100056)"><path
         d="m 1632.91,-602.394 h 97.25"
         style="fill:none;stroke:#262626;stroke-width:5.00079;stroke-linecap:square;stroke-linejoin:round;stroke-miterlimit:10;stroke-dasharray:none;stroke-opacity:1"
         id="path9575" /></g><g
       id="g9577"
       transform="scale(0.0999442,-0.100056)"><path
         d="m 1632.91,-1003.35 h 97.25"
         style="fill:none;stroke:#262626;stroke-width:5.00079;stroke-linecap:square;stroke-linejoin:round;stroke-miterlimit:10;stroke-dasharray:none;stroke-opacity:1"
         id="path9579" /></g><g
       id="g9581"
       transform="scale(0.0999442,-0.100056)"><path
         d="m 1632.91,-1404.31 h 97.25"
         style="fill:none;stroke:#262626;stroke-width:5.00079;stroke-linecap:square;stroke-linejoin:round;stroke-miterlimit:10;stroke-dasharray:none;stroke-opacity:1"
         id="path9583" /></g><g
       id="g9585"
       transform="scale(0.0999442,-0.100056)"><path
         d="m 1632.91,-1805.27 h 97.25"
         style="fill:none;stroke:#262626;stroke-width:5.00079;stroke-linecap:square;stroke-linejoin:round;stroke-miterlimit:10;stroke-dasharray:none;stroke-opacity:1"
         id="path9587" /></g><g
       id="g9589"
       transform="scale(0.0999442,-0.100056)"><path
         d="m 1632.91,-2206.23 h 97.25"
         style="fill:none;stroke:#262626;stroke-width:5.00079;stroke-linecap:square;stroke-linejoin:round;stroke-miterlimit:10;stroke-dasharray:none;stroke-opacity:1"
         id="path9591" /></g><g
       id="g9593"
       transform="scale(0.0999442,-0.100056)"><path
         d="m 1632.91,-2607.18 h 97.25"
         style="fill:none;stroke:#262626;stroke-width:5.00079;stroke-linecap:square;stroke-linejoin:round;stroke-miterlimit:10;stroke-dasharray:none;stroke-opacity:1"
         id="path9595" /></g><g
       id="g9597"
       transform="scale(0.0999442,-0.100056)"><path
         d="m 1632.91,-3008.14 h 97.25"
         style="fill:none;stroke:#262626;stroke-width:5.00079;stroke-linecap:square;stroke-linejoin:round;stroke-miterlimit:10;stroke-dasharray:none;stroke-opacity:1"
         id="path9599" /></g><g
       id="g9601"
       transform="scale(0.0999442,-0.100056)"><path
         d="m 1632.91,-3409.1 h 97.25"
         style="fill:none;stroke:#262626;stroke-width:5.00079;stroke-linecap:square;stroke-linejoin:round;stroke-miterlimit:10;stroke-dasharray:none;stroke-opacity:1"
         id="path9603" /></g><g
       id="g9605"
       transform="scale(0.0999442,-0.100056)"><path
         d="m 1632.91,-3810.06 h 97.25"
         style="fill:none;stroke:#262626;stroke-width:5.00079;stroke-linecap:square;stroke-linejoin:round;stroke-miterlimit:10;stroke-dasharray:none;stroke-opacity:1"
         id="path9607" /></g><g
       id="g9609"
       transform="scale(0.0999442,-0.100056)"><path
         d="m 1632.91,-4211.01 h 97.25"
         style="fill:none;stroke:#262626;stroke-width:5.00079;stroke-linecap:square;stroke-linejoin:round;stroke-miterlimit:10;stroke-dasharray:none;stroke-opacity:1"
         id="path9611" /></g><g
       id="g9613"
       transform="scale(0.0999442,-0.100056)"><path
         d="m 1632.91,-4611.97 h 97.25"
         style="fill:none;stroke:#262626;stroke-width:5.00079;stroke-linecap:square;stroke-linejoin:round;stroke-miterlimit:10;stroke-dasharray:none;stroke-opacity:1"
         id="path9615" /></g><g
       id="g9617"
       transform="scale(0.0999442,-0.100056)"><path
         d="m 11358.3,-602.394 h -97.2"
         style="fill:none;stroke:#262626;stroke-width:5.00079;stroke-linecap:square;stroke-linejoin:round;stroke-miterlimit:10;stroke-dasharray:none;stroke-opacity:1"
         id="path9619" /></g><g
       id="g9621"
       transform="scale(0.0999442,-0.100056)"><path
         d="m 11358.3,-1003.35 h -97.2"
         style="fill:none;stroke:#262626;stroke-width:5.00079;stroke-linecap:square;stroke-linejoin:round;stroke-miterlimit:10;stroke-dasharray:none;stroke-opacity:1"
         id="path9623" /></g><g
       id="g9625"
       transform="scale(0.0999442,-0.100056)"><path
         d="m 11358.3,-1404.31 h -97.2"
         style="fill:none;stroke:#262626;stroke-width:5.00079;stroke-linecap:square;stroke-linejoin:round;stroke-miterlimit:10;stroke-dasharray:none;stroke-opacity:1"
         id="path9627" /></g><g
       id="g9629"
       transform="scale(0.0999442,-0.100056)"><path
         d="m 11358.3,-1805.27 h -97.2"
         style="fill:none;stroke:#262626;stroke-width:5.00079;stroke-linecap:square;stroke-linejoin:round;stroke-miterlimit:10;stroke-dasharray:none;stroke-opacity:1"
         id="path9631" /></g><g
       id="g9633"
       transform="scale(0.0999442,-0.100056)"><path
         d="m 11358.3,-2206.23 h -97.2"
         style="fill:none;stroke:#262626;stroke-width:5.00079;stroke-linecap:square;stroke-linejoin:round;stroke-miterlimit:10;stroke-dasharray:none;stroke-opacity:1"
         id="path9635" /></g><g
       id="g9637"
       transform="scale(0.0999442,-0.100056)"><path
         d="m 11358.3,-2607.18 h -97.2"
         style="fill:none;stroke:#262626;stroke-width:5.00079;stroke-linecap:square;stroke-linejoin:round;stroke-miterlimit:10;stroke-dasharray:none;stroke-opacity:1"
         id="path9639" /></g><g
       id="g9641"
       transform="scale(0.0999442,-0.100056)"><path
         d="m 11358.3,-3008.14 h -97.2"
         style="fill:none;stroke:#262626;stroke-width:5.00079;stroke-linecap:square;stroke-linejoin:round;stroke-miterlimit:10;stroke-dasharray:none;stroke-opacity:1"
         id="path9643" /></g><g
       id="g9645"
       transform="scale(0.0999442,-0.100056)"><path
         d="m 11358.3,-3409.1 h -97.2"
         style="fill:none;stroke:#262626;stroke-width:5.00079;stroke-linecap:square;stroke-linejoin:round;stroke-miterlimit:10;stroke-dasharray:none;stroke-opacity:1"
         id="path9647" /></g><g
       id="g9649"
       transform="scale(0.0999442,-0.100056)"><path
         d="m 11358.3,-3810.06 h -97.2"
         style="fill:none;stroke:#262626;stroke-width:5.00079;stroke-linecap:square;stroke-linejoin:round;stroke-miterlimit:10;stroke-dasharray:none;stroke-opacity:1"
         id="path9651" /></g><g
       id="g9653"
       transform="scale(0.0999442,-0.100056)"><path
         d="m 11358.3,-4211.01 h -97.2"
         style="fill:none;stroke:#262626;stroke-width:5.00079;stroke-linecap:square;stroke-linejoin:round;stroke-miterlimit:10;stroke-dasharray:none;stroke-opacity:1"
         id="path9655" /></g><g
       id="g9657"
       transform="scale(0.0999442,-0.100056)"><path
         d="m 11358.3,-4611.97 h -97.2"
         style="fill:none;stroke:#262626;stroke-width:5.00079;stroke-linecap:square;stroke-linejoin:round;stroke-miterlimit:10;stroke-dasharray:none;stroke-opacity:1"
         id="path9659" /></g><g
       id="g9661"><text
         transform="matrix(0.998885,0,0,-1,126.4,53.0633)"
         style="font-variant:normal;font-weight:normal;font-size:18.0201px;font-family:Helvetica;-inkscape-font-specification:Helvetica;writing-mode:lr-tb;fill:#262626;fill-opacity:1;fill-rule:nonzero;stroke:none"
         id="text9685"><tspan
           x="0 6.0006933 16.019869 21.029457"
           y="0"
           sodipodi:role="line"
           id="tspan9663">-0.8</tspan><tspan
           x="0 6.0006933 16.019869 21.029457"
           y="-40.118"
           sodipodi:role="line"
           id="tspan9665">-0.6</tspan><tspan
           x="0 6.0006933 16.019869 21.029457"
           y="-80.236397"
           sodipodi:role="line"
           id="tspan9667">-0.4</tspan><tspan
           x="0 6.0006933 16.019869 21.029457"
           y="-120.3548"
           sodipodi:role="line"
           id="tspan9669">-0.2</tspan><tspan
           x="21.023399"
           y="-160.47321"
           id="tspan9671">0</tspan><tspan
           x="6.0067 16.025875 21.035463"
           y="-200.5916"
           sodipodi:role="line"
           id="tspan9673">0.2</tspan><tspan
           x="6.0067 16.025875 21.035463"
           y="-240.71001"
           sodipodi:role="line"
           id="tspan9675">0.4</tspan><tspan
           x="6.0067 16.025875 21.035463"
           y="-280.8284"
           sodipodi:role="line"
           id="tspan9677">0.6</tspan><tspan
           x="6.0067 16.025875 21.035463"
           y="-320.94681"
           sodipodi:role="line"
           id="tspan9679">0.8</tspan><tspan
           x="21.023399"
           y="-361.06519"
           id="tspan9681">1</tspan><tspan
           x="6.0067 16.025875 21.035463"
           y="-401.18359"
           sodipodi:role="line"
           id="tspan9683">1.2</tspan></text><text
         transform="matrix(0,1,0.99888125,0,118.6,173.295)"
         style="font-variant:normal;font-weight:normal;font-size:19.8222px;font-family:Helvetica;-inkscape-font-specification:Helvetica;writing-mode:lr-tb;fill:#262626;fill-opacity:1;fill-rule:nonzero;stroke:none"
         id="text9689"><tspan
           x="0 16.511873 27.533003 38.554131 49.575264 55.085827 67.197174 78.218307 94.730179 105.75131 116.77244 123.37322 134.39435 139.90492 150.92604 157.52684 168.54796 174.05853 179.56909 185.07965 193.00853"
           y="0"
           sodipodi:role="line"
           id="tspan9687">Mean Temperature / °C</tspan></text></g><g
       transform="translate(-0.77166869,-38.583434)"
       id="g9691"><text
         transform="matrix(0.998885,0,0,-1,425.701,503.364)"
         style="font-variant:normal;font-weight:bold;font-size:20.0221px;font-family:Helvetica;-inkscape-font-specification:Helvetica-Bold;writing-mode:lr-tb;fill:#000000;fill-opacity:1;fill-rule:nonzero;stroke:none"
         id="text9695"><tspan
           x="0 16.67841 27.810698 38.942986 51.176487 56.74263 68.976135 74.542282 86.77578 99.009285 110.14157 115.70772 121.27386 127.94122 139.0735 156.87315 169.10666 180.23894 188.02754 199.15984 205.82719 218.06068 225.84929 236.98158 242.54771 253.68001 264.81229 275.94458 287.07687 293.74423 304.87653 316.00879 327.14108 338.27338 343.83951 350.5069 366.08408 371.65021 385.00497 397.23846 410.5932 427.27161 440.62634"
           y="0"
           sodipodi:role="line"
           id="tspan9693">Mean global temperature 1880-2020 (GISTEMP)</tspan></text></g><g
       id="g9697"
       transform="scale(0.0999442,-0.100056)"><path
         d="m 1632.91,-1865.42 5.86,120.3 5.48,-300.73 5.85,140.34 5.68,-140.34 5.85,240.58 5.67,-60.15 5.86,-160.38 5.85,80.19 5.67,180.43 5.86,-40.09 5.67,-80.19 5.86,40.1 5.86,-100.25 5.29,-340.81 5.86,-40.09 5.66,-40.1 5.86,501.19 5.67,-380.9 5.86,80.18 5.85,240.59 5.68,120.28 5.85,-60.15 5.67,-240.57 5.86,-461.1 5.85,60.15 5.3,180.43 5.85,421 5.67,-40.1 5.86,160.39 5.67,-120.29 5.86,-180.43 5.86,140.33 5.66,200.49 5.86,-160.39 5.67,380.91 5.86,-120.29 5.86,160.39 5.29,-501.2 5.86,120.28 5.66,-20.04 5.86,-180.43 5.67,-40.1 5.86,140.34 5.85,160.38 5.67,-200.48 5.86,240.57 5.67,-240.57 5.86,40.1 5.85,-100.24 5.48,581.39 5.87,60.14 5.66,-120.29 5.86,20.05 5.67,-40.09 5.86,-100.24 5.85,-20.06 5.67,-40.09 5.86,160.39 5.67,-40.1 5.85,561.34 5.86,-501.2 5.29,-160.38 5.86,320.77 5.67,60.14 5.86,-20.05 5.66,-200.48 5.86,-60.14 5.87,-40.1 5.66,-100.23 h 5.86 l 5.67,-280.68 5.86,681.63 5.85,140.34 5.29,-160.39 5.86,-300.71 5.67,-80.19 5.86,220.52 5.67,-340.82 5.86,260.63 5.85,-140.33 5.67,80.19 5.86,-20.06 5.67,-40.09 5.85,942.247 5.86,-300.707 5.29,-421.01 5.86,-20.05 5.67,-100.24 5.86,-100.24 5.66,20.05 5.86,180.43 5.86,-180.43 5.67,200.48 5.86,-200.48 5.66,140.34 5.87,20.04 5.85,40.1 5.48,120.29 5.86,-421.01 5.67,20.05 5.86,-80.2 5.66,-140.33 5.86,100.24 5.86,-80.19 5.67,-260.62 5.86,-20.05 5.66,120.29 5.86,100.23 5.86,-501.19 5.29,220.53 5.85,-80.2 5.68,200.48 5.85,200.48 5.68,-60.14 5.85,260.62 5.86,80.19 5.67,20.05 5.86,160.38 5.66,-100.24 5.86,260.63 5.86,60.14 5.29,-80.19 5.86,-220.53 5.66,200.48 5.86,-300.72 5.67,60.15 5.86,220.53 5.86,-40.1 5.67,-240.58 5.86,360.86 5.66,-240.57 5.86,80.19 5.85,240.57 5.3,-561.33 5.85,180.43 5.68,-220.53 5.85,80.19 5.67,-60.15 h 5.86 l 5.86,-40.09 5.66,140.33 5.86,180.44 5.67,-541.3 5.86,481.15 5.86,-360.86 5.48,601.44 5.85,-140.34 5.68,-200.47 5.85,-20.06 5.67,180.44 5.86,-80.19 5.86,-220.53 5.66,-40.09 5.86,541.29 5.67,-60.14 5.86,862.049 5.86,-481.149 5.29,-701.68 5.86,100.25 5.66,120.28 5.86,-160.38 5.67,-240.58 5.86,220.53 5.85,-40.1 5.67,-80.18 h 5.86 l 5.67,260.62 5.86,421 5.85,-461.1 5.3,-120.28 5.85,421 5.67,-280.67 5.86,200.48 5.66,-340.81 h 5.86 l 5.87,80.19 5.66,-80.19 5.86,40.09 5.67,-100.24 5.86,400.96 5.86,40.09 5.28,-200.47 5.86,-220.53 5.67,100.23 5.86,-120.28 5.67,-80.19 h 5.86 l 5.85,-80.19 5.67,-40.1 5.86,120.29 5.67,-60.15 5.85,160.39 5.86,-180.43 5.48,280.66 5.86,80.2 5.67,-300.72 5.86,-100.24 5.67,-160.39 5.85,60.15 5.86,40.1 5.67,-280.68 5.86,220.53 h 5.67 l 5.85,220.53 5.86,40.09 5.29,-80.19 5.86,-220.53 5.67,-20.04 5.86,200.48 5.66,-180.44 5.86,140.34 5.86,-20.05 5.67,80.2 5.86,100.23 5.66,40.1 5.86,-360.86 5.86,561.34 5.29,421.01 5.86,-400.96 5.67,-20.05 5.86,-220.52 5.67,60.14 5.85,80.19 5.86,-80.19 5.67,260.62 5.86,60.14 5.67,-300.72 5.85,-140.33 5.86,461.11 5.29,-60.15 5.86,-300.72 5.66,40.09 5.86,180.44 5.67,-320.77 5.86,-140.34 5.86,-80.19 h 5.67 l 5.86,-360.86 5.67,781.87 5.85,200.48 5.86,-601.44 5.29,-120.29 5.86,180.43 h 5.67 l 5.86,20.05 5.66,60.15 5.87,-80.2 5.85,-80.19 5.67,-300.71 5.85,320.76 5.68,20.05 5.85,300.72 5.86,-220.53 5.29,-340.82 5.86,180.43 5.66,260.63 5.86,-80.19 5.67,60.15 5.86,120.28 5.86,20.05 5.67,140.33 5.85,-220.53 5.67,180.43 5.86,-180.43 5.85,-220.52 5.3,421.01 h 5.86 l 5.67,80.19 5.85,-40.1 5.67,-40.09 5.86,40.09 5.86,-20.05 h 5.66 l 5.86,120.29 5.67,120.29 5.86,-360.87 5.86,-340.81 5.29,320.77 5.86,380.91 5.66,-20.05 5.86,40.1 5.67,-140.34 5.86,200.48 5.86,100.24 5.67,-40.09 5.85,-120.29 5.67,160.38 5.86,260.617 5.86,-100.237 5.47,-200.47 5.86,40.09 5.67,40.1 5.86,-80.19 5.67,60.14 5.86,-40.1 5.86,140.33 5.67,-340.8 5.85,-441.06 5.67,320.77 5.86,40.09 5.85,481.15 5.3,-741.77 5.85,240.57 5.67,-80.19 5.86,-40.09 5.67,-20.06 5.85,-140.33 5.86,-20.04 5.67,120.28 5.86,-360.86 5.67,120.29 5.86,300.72 5.86,40.09 5.29,-220.52 5.85,-280.68 5.67,421.01 5.86,-120.29 5.67,60.14 5.86,-60.14 5.85,180.43 5.67,-180.43 5.86,340.82 5.67,-441.05 5.86,561.33 5.85,160.39 5.3,-481.16 5.85,200.49 5.67,180.43 5.86,-80.19 5.67,-140.34 5.85,-20.05 h 5.86 l 5.67,-220.53 5.86,461.11 5.67,20.04 5.85,-40.09 5.86,-240.57 5.49,441.05 5.85,-200.48 5.66,-140.34 h 5.86 l 5.67,-60.14 5.86,220.53 5.86,-200.48 5.67,160.38 5.86,160.39 5.67,-60.15 5.85,461.097 5.86,-521.237 5.29,180.43 5.86,80.19 5.67,-80.19 5.86,-60.14 5.67,-140.34 5.86,-240.57 5.85,120.29 5.67,20.04 5.85,-160.38 5.68,481.14 5.85,-280.66 h 5.86 l 5.29,180.43 5.86,-180.43 5.67,-160.39 5.85,80.19 5.67,-80.19 5.86,40.1 5.86,60.15 5.67,40.09 5.85,280.67 5.68,240.57 5.85,-100.237 5.86,-100.233 5.29,80.19 5.86,-160.39 5.67,-40.09 5.86,-20.05 5.66,-180.43 5.86,60.14 5.86,-60.14 5.67,-280.68 5.85,-120.28 h 5.68 l 5.85,80.19 5.86,-220.53 5.48,481.15 5.86,-421 5.67,80.19 5.86,40.09 5.66,380.92 5.86,240.57 5.86,80.19 5.67,-20.04 5.85,-360.86 5.67,80.18 5.86,-60.14 5.86,100.24 5.29,-40.1 5.85,-60.14 5.67,80.19 5.86,20.05 5.67,-180.43 5.86,-40.1 5.86,20.05 5.67,-40.09 5.85,-260.63 5.67,-360.86 5.86,-140.33 5.86,300.71 5.29,280.68 5.86,100.23 5.67,-160.38 5.85,100.24 5.67,-40.09 5.85,-160.39 5.86,20.05 5.68,-260.62 5.85,220.53 5.67,-220.53 5.86,340.81 5.86,-340.81 5.29,120.28 5.85,-320.77 5.67,240.58 5.86,320.77 5.67,-200.48 5.86,200.48 5.85,-20.05 5.67,80.19 5.86,-240.57 5.67,180.43 5.86,-200.48 5.85,60.15 5.49,260.62 5.85,60.14 5.67,60.14 5.86,300.72 5.67,-240.57 5.86,-180.43 5.85,160.38 5.67,-60.14 5.86,260.62 5.67,721.719 5.86,-481.149 5.85,100.237 5.3,20.051 5.85,-180.428 h 5.67 l 5.86,-240.58 5.67,-360.86 5.85,-60.14 5.86,20.04 5.67,421.01 5.86,-220.52 5.67,681.62 5.85,-380.9 5.86,-280.68 5.29,-180.43 5.86,380.91 5.67,-20.05 5.86,-140.33 5.67,-80.19 h 5.86 l 5.85,-280.68 5.67,-240.57 5.86,120.29 5.67,360.86 5.86,-180.43 5.85,60.15 5.29,-40.1 5.86,-180.43 5.67,300.72 5.85,160.38 5.68,-140.34 5.85,80.2 5.86,-140.34 5.67,-120.29 5.86,421.01 5.67,20.05 5.85,-340.82 5.86,40.09 5.48,-280.66 5.86,220.53 5.67,60.13 5.85,180.44 5.68,-120.29 5.85,-60.15 5.86,-100.23 5.67,100.23 h 5.85 l 5.67,380.92 5.86,-821.97 5.86,260.62 5.29,100.24 5.86,140.34 5.67,20.05 5.86,-60.14 5.66,-260.62 5.86,220.52 5.86,-120.29 5.67,-320.76 5.85,200.47 5.67,80.19 5.86,300.73 5.86,240.57 5.29,-601.43 5.85,160.37 5.67,220.53 5.86,-60.14 5.67,-60.14 5.86,100.24 5.86,60.14 5.67,-60.14 5.85,-360.86 5.67,80.19 5.86,180.43 5.86,240.57 5.29,-120.29 5.86,140.34 5.67,-140.34 5.86,-100.24 5.66,40.1 5.86,40.1 5.85,-20.05 5.68,-360.87 5.85,-220.53 5.67,40.1 5.86,360.86 5.86,20.06 5.48,-300.73 5.86,441.06 5.66,-240.57 5.86,140.33 5.67,60.14 5.86,140.34 5.85,-60.14 5.68,60.14 5.85,-300.72 5.67,441.05 5.85,-80.18 5.86,40.09 5.3,-260.62 5.85,-40.1 5.67,60.14 5.86,80.2 5.67,-120.3 5.86,-140.33 h 5.86 l 5.66,-60.14 5.86,-421.01 5.67,-40.1 5.86,-280.66 5.86,360.86 5.29,-160.38 5.86,461.1 5.66,220.53 5.86,40.09 5.67,40.1 5.86,-280.68 5.85,20.06 5.67,-60.15 5.86,-100.24 5.67,461.1 5.86,-40.09 5.85,-180.43 5.29,400.96 5.86,-160.39 5.67,-100.24 5.86,40.1 5.67,-180.43 5.86,120.28 5.86,-240.57 5.66,-220.53 5.86,80.19 5.67,561.34 5.86,-641.53 5.85,160.38 5.48,320.77 5.86,40.1 5.67,40.09 5.86,180.44 5.66,-380.92 5.86,60.14 5.86,-20.04 5.67,-40.1 5.86,-200.48 5.67,140.34 5.86,561.34 5.85,280.67 5.29,-521.24 5.86,180.43 5.67,-60.14 5.85,100.23 5.68,-140.33 5.85,-80.19 5.86,-140.34 5.67,-220.52 5.86,-80.2 5.66,882.11 5.86,-501.2 5.86,-60.15 5.29,-320.76 5.86,300.72 5.67,-20.05 5.86,-40.1 5.66,-20.04 5.86,-120.29 h 5.86 l 5.67,-60.14 5.86,-601.44 5.66,461.1 5.86,100.24 5.86,220.53 5.29,-220.53 5.85,260.63 5.68,-80.2 5.85,-220.53 5.68,-100.23 5.85,20.04 5.86,60.15 5.67,-240.58 5.86,200.48 h 5.66 l 5.86,-400.95 5.86,641.52 5.48,20.06 5.85,-240.58 5.68,220.52 5.85,240.58 5.68,-80.19 5.85,-60.15 5.86,-220.52 5.67,-40.1 5.86,360.87 5.66,-20.06 5.86,-60.13 5.86,120.28 5.29,20.05 5.86,-120.29 5.66,100.24 5.86,100.24 5.67,-260.62 5.86,60.14 5.86,100.24 5.67,-80.19 5.86,120.29 5.66,260.62 5.86,-461.1 5.86,-380.92 5.29,541.3 5.85,20.05 5.68,-421.01 5.85,100.25 5.68,-80.2 5.85,40.1 5.86,60.14 5.66,-160.38 5.86,-220.53 5.67,120.28 5.86,621.49 5.86,-942.25 5.29,561.35 5.86,441.05 5.66,-140.34 5.86,-40.09 5.67,-120.29 h 5.86 5.85 l 5.67,-300.72 5.86,400.95 5.67,-180.43 5.86,200.49 5.85,220.53 5.49,-340.82 5.86,-20.05 5.66,-80.19 5.86,100.24 5.67,-220.53 5.86,60.14 5.85,-80.19 5.67,-120.28 5.86,-80.2 5.67,40.1 5.86,120.29 5.85,-200.48 5.29,461.1 5.86,-100.24 5.67,-200.48 h 5.86 l 5.66,-40.09 5.86,-100.24 5.87,-140.34 h 5.66 l 5.86,20.05 5.67,300.72 5.86,-300.72 5.86,100.24 5.28,-120.29 5.86,60.15 5.67,300.71 5.86,160.38 5.67,-160.38 5.86,-80.19 5.85,-100.24 5.67,-300.71 5.86,140.33 5.67,400.96 5.85,-140.34 5.86,40.1 5.29,220.53 5.86,-180.44 5.67,-100.24 5.86,60.15 5.66,-20.05 h 5.86 l 5.86,20.05 5.67,-60.15 5.86,-220.53 5.66,-741.76 5.87,882.1 5.85,-160.38 5.48,-20.05 5.86,-160.38 5.67,120.29 h 5.86 l 5.66,-20.05 5.86,100.23 5.86,-160.37 5.67,80.19 5.86,-120.29 5.66,-300.72 5.86,280.67 5.86,-260.62 5.29,421 5.86,-120.29 5.67,-20.04 5.85,80.19 5.68,-180.43 5.85,140.34 5.86,260.62 5.67,-661.58 5.86,260.62 5.66,20.05 5.86,-160.38 5.86,541.29 5.29,-60.15 5.86,-80.19 5.66,-40.09 5.86,120.28 5.67,100.24 5.86,80.19 5.86,-20.04 5.67,-80.2 5.86,-180.43 5.66,-60.14 5.86,280.67 5.86,-360.86 5.29,421 5.86,-300.71 5.67,80.18 5.85,240.58 5.68,-260.62 5.85,140.33 5.86,-80.19 5.66,-360.86 5.86,60.15 5.67,-80.2 5.86,-240.57 5.86,240.57 5.48,-40.09 5.85,140.33 h 5.68 l 5.85,80.2 5.67,-60.15 h 5.86 l 5.86,-200.48 5.66,40.1 5.86,300.72 5.67,140.33 5.86,-120.29 5.86,200.48 5.29,-120.28 5.86,-260.63 5.66,260.63 5.86,120.28 5.67,-60.14 5.86,-461.1 5.86,120.29 5.66,40.09 5.86,220.52 5.67,280.68 5.86,-441.05 5.85,260.62 5.3,20.04 5.85,-80.19 5.68,240.58 5.85,280.67 5.67,-180.43 5.86,160.38 5.86,-240.58 h 5.66 l 5.86,-60.14 5.67,521.25 5.86,-481.15 5.86,20.04 5.28,-280.66 h 5.86 l 5.67,160.37 h 5.86 l 5.67,40.1 5.86,60.15 5.86,100.24 5.67,-380.92 5.85,80.2 5.67,320.76 5.85,-380.9 5.86,421 5.48,180.43 5.86,-240.57 5.67,-220.53 5.86,80.19 5.67,120.29 5.85,20.05 5.86,40.1 5.67,-180.44 5.86,140.34 5.67,220.53 5.85,-601.45 5.86,421.02 5.29,-240.59 5.86,180.44 5.67,-20.05 5.86,340.82 5.66,-280.68 h 5.86 l 5.86,20.06 5.67,-160.39 5.86,80.19 5.67,160.39 5.85,160.37 5.86,20.06 5.29,-380.92 5.86,260.63 5.67,-200.48 5.86,-120.29 5.67,80.19 5.86,140.34 5.85,-100.24 5.67,180.43 5.86,280.67 5.67,-260.62 5.85,260.62 5.86,140.34 5.29,-421.01 5.86,-120.28 5.66,-280.68 5.86,140.34 5.67,-120.29 5.86,-140.33 5.86,20.04 5.67,-60.14 5.86,180.43 5.67,-340.82 5.85,80.2 5.86,20.05 5.48,380.9 5.86,-220.52 5.66,120.29 h 5.86 l 5.67,-140.34 5.86,-20.05 5.86,-40.1 5.67,140.34 5.86,260.62 5.67,-220.53 5.85,-180.43 5.86,-160.37 5.29,80.19 5.86,-160.39 5.67,160.39 5.86,-20.05 5.66,220.52 5.86,-80.19 5.86,20.05 5.67,-80.19 5.85,220.53 5.68,-160.39 5.85,581.39 5.86,-280.67 5.29,100.24 5.86,-20.04 5.66,120.28 5.86,-40.09 5.67,20.04 5.86,-40.1 5.86,-140.33 5.67,-160.39 5.85,-200.47 5.67,521.25 5.86,-621.49 5.85,581.39 5.3,320.77 5.86,-200.49 5.67,-40.09 5.85,-120.28 5.67,-60.15 5.86,-260.62 5.86,260.62 5.66,-120.29 5.86,400.96 5.67,60.14 5.86,-320.76 5.86,240.57 5.48,-60.14 5.85,120.29 5.68,40.09 5.85,-260.62 5.67,-140.34 5.85,340.81 5.86,-140.33 5.67,80.2 5.86,-160.39 5.67,-180.43 5.86,60.14 5.86,-120.28 5.28,40.09 5.86,-100.24 5.67,-180.43 5.86,-120.28 5.67,260.62 5.86,-260.62 5.86,120.28 5.66,160.38 5.86,-140.33 5.67,-140.33 5.86,-481.15 5.85,340.81 5.3,280.67 5.85,140.33 5.67,-100.23 5.86,300.71 5.67,-280.67 5.85,200.48 5.86,-60.15 5.67,-120.28 5.86,40.1 5.67,20.04 5.85,-140.33 5.86,20.04 5.3,-220.52 5.85,40.09 5.67,240.58 5.86,20.05 h 5.67 l 5.86,80.19 5.85,100.24 5.67,20.05 5.86,20.04 5.67,-140.33 5.86,-20.05 5.85,-260.62 5.48,962.3 5.86,-400.96 5.67,-140.34 5.86,-80.19 h 5.67 l 5.86,-120.28 5.85,-100.25 5.67,20.06 5.86,340.81 5.67,-601.44 5.85,240.57 5.86,-240.57 5.29,200.48 5.86,-80.19 5.67,20.05 5.85,20.05 5.67,200.47 h 5.86 l 5.86,-160.38 5.67,180.43 5.86,-60.14 5.67,380.91 5.85,-421.01 5.86,-200.47 5.29,100.23 5.86,100.24 5.67,220.53 5.86,-180.43 5.66,20.05 5.87,60.14 5.85,-20.05 5.67,-20.05 5.85,-100.23 5.68,180.43 h 5.85 l 5.86,-421.01 5.29,641.54 5.86,-140.34 5.67,-20.05 5.85,-220.53 5.67,-20.04 5.86,-320.77 5.86,80.19 5.67,80.19 5.85,-20.04 5.67,360.86 5.86,120.28 5.86,20.05 5.47,220.53 5.87,220.53 5.66,-140.34 5.86,-421.01 h 5.67 l 5.86,360.86 5.86,160.39 5.67,40.1 5.85,-220.53 5.67,180.43 5.86,-441.06 5.86,180.43 5.29,-80.19 5.86,120.29 5.67,-140.33 5.86,-80.2 5.66,100.24 5.86,-180.43 5.85,220.53 5.68,-200.48 5.85,20.05 5.67,40.09 5.86,220.53 5.86,-300.72 5.29,-160.38 5.85,340.81 5.67,-20.04 5.86,-260.63 5.67,-140.33 5.86,340.81 5.86,-120.28 5.66,260.62 5.86,-300.72 5.67,20.04 5.86,100.25 5.86,280.67 5.29,-521.25 5.85,200.48 5.67,-340.81 5.86,400.95 5.67,-200.47 5.86,20.04 5.85,140.34 5.67,-300.72 5.86,280.67 h 5.67 l 5.85,421 5.86,-240.56 5.49,-681.63 5.85,521.24 5.67,160.39 5.86,-100.25 5.67,80.19 5.85,-80.19 5.86,200.48 5.67,-561.34 5.86,280.67 5.67,200.48 5.85,-80.19 5.86,120.28 5.29,-360.86 5.86,-320.76 5.67,-20.05 5.86,300.72 5.67,140.33 5.86,-160.38 5.85,-100.24 5.67,-20.05 5.86,-40.09 5.67,-240.58 5.86,320.77 5.85,-280.67 5.29,320.77 5.86,20.04 5.67,180.43 5.85,-20.04 5.68,-80.2 5.85,220.53 5.86,-441.05 5.67,180.43 5.86,20.05 5.67,280.67 5.85,-200.49 5.86,280.68 5.29,40.1 5.86,-220.53 5.67,-40.1 5.86,240.57 5.66,-180.43 5.87,-140.33 5.85,100.24 5.67,-40.1 5.86,60.15 5.67,20.04 5.86,280.67 5.85,-80.18 5.48,-400.96 5.86,40.09 5.67,60.15 5.86,-140.34 5.66,60.14 5.86,-300.72 5.86,280.68 5.67,-120.29 5.86,120.29 5.66,-320.77 5.86,-220.52 5.86,-60.15 5.29,60.15 5.86,40.09 5.67,100.24 5.85,60.14 5.68,120.29 5.85,160.38 5.86,-80.19 5.67,-20.05 5.85,100.24 5.67,240.58 5.86,60.14 5.86,340.82 5.29,-441.06 5.86,120.29 5.67,-140.34 5.86,20.05 5.66,-40.09 5.86,-280.67 5.85,380.9 5.68,-60.14 5.85,40.1 5.67,20.04 5.86,-360.86 5.86,40.1 5.29,-80.19 5.85,160.38 5.68,-240.58 5.85,340.82 h 5.67 l 5.86,320.76 5.86,-280.66 5.67,160.38 5.85,120.28 h 5.67 l 5.86,-280.66 5.86,60.14 5.48,300.72 5.85,-280.67 5.67,280.67 5.86,-180.43 5.67,-40.1 5.86,40.1 5.85,-120.29 5.67,360.86 5.86,-360.86 5.67,-340.81 5.86,-140.34 5.86,-100.24 5.29,-40.1 5.86,-20.04 5.66,-140.34 5.86,120.29 5.67,140.34 5.86,40.09 5.85,320.77 5.67,-20.05 5.86,-260.63 5.67,260.63 5.85,-60.14 5.86,-80.2 5.3,-180.43 5.85,40.1 5.67,160.38 5.86,200.48 5.67,-100.24 5.86,340.81 5.86,-380.9 5.66,60.14 5.86,-220.53 5.67,120.29 h 5.86 l 5.86,360.86 5.29,-581.39 5.86,80.2 5.66,220.52 5.86,-200.48 5.67,200.48 5.86,-260.62 5.85,-160.39 5.67,-20.04 5.86,-40.1 5.67,-400.95 5.86,360.86 5.85,-200.48 5.48,200.48 h 5.87 l 5.66,-100.24 5.85,300.72 5.68,-40.1 5.86,60.14 5.85,-20.04 5.67,140.33 5.85,-340.81 5.67,160.38 5.86,-621.48 5.86,220.52 5.29,-120.28 5.86,320.76 5.67,140.33 5.86,-80.18 5.66,-60.15 5.86,-60.14 5.86,400.96 5.67,60.14 5.86,-220.53 5.67,-360.86 5.86,721.72 5.85,-200.47 5.29,240.57 5.86,-240.57 5.67,-60.15 5.85,240.58 5.68,-180.43 5.85,220.52 5.86,-200.48 5.67,20.05 5.86,-100.24 5.66,-501.2 5.86,-200.47 5.86,200.47 5.29,20.05 5.86,280.67 5.67,-120.29 5.86,220.53 5.66,100.24 5.86,-340.81 5.86,-40.1 5.67,400.96 5.86,-260.62 5.66,260.62 5.86,-280.67 5.86,340.81 5.48,-240.57 5.86,400.96 5.66,-541.3 5.86,621.49 5.67,-340.82 h 5.86 l 5.86,-40.09 5.67,140.33 5.86,140.33 5.66,220.53 5.86,-521.24 5.86,521.24 5.29,-421 5.85,100.24 5.68,-60.14 h 5.85 l 5.68,220.52 5.85,-260.62 5.86,80.19 5.66,20.05 5.87,140.33 5.66,-180.43 5.86,-240.57 5.86,-220.53 5.29,140.34 5.86,160.38 5.66,20.05 5.86,180.43 5.67,20.05 5.86,-100.25 5.86,260.63 5.66,-240.57 5.87,100.23 5.66,-60.14 5.86,-380.91 5.85,-220.53 5.3,481.15 5.85,-120.29 5.68,-20.04 5.85,-180.43 5.67,-100.24 5.86,300.71 5.86,-200.47 5.66,40.09 5.86,80.2 5.67,-340.82 5.86,-220.53 5.86,260.63 5.48,-160.39 5.85,180.43 5.67,-20.04 5.86,80.19 5.67,140.33 5.86,-120.28 5.86,40.09 5.66,-20.05 5.86,521.25 5.67,-340.81 5.86,340.81 5.86,-360.86 5.28,-120.29 5.87,140.34 5.66,240.57 h 5.86 l 5.67,-340.82 5.86,20.05 5.85,-40.09 5.67,120.29 5.86,200.47 5.67,-360.86 5.86,-100.24 5.85,-40.09 5.29,-721.73 5.86,481.15 5.67,200.48 5.86,160.38 5.66,-160.38 5.86,240.57 5.86,220.53 5.67,-441.05 5.86,-40.1 5.67,120.29 5.86,-40.1 5.86,-140.33 5.28,300.72 5.86,-320.77 5.67,340.81 5.86,-380.9 5.67,120.28 5.85,160.39 5.86,-100.24 5.67,300.72 5.86,-20.05 5.67,-40.1 5.85,-300.72 5.86,140.34 5.48,-160.38 5.86,421 5.67,-80.19 5.86,100.24 5.67,360.86 h 5.85 l 5.86,180.43 5.67,-140.33 5.86,60.14 5.67,-360.86 5.85,-280.67 5.86,-40.1 5.29,20.05 5.86,160.38 5.66,-20.04 5.87,120.28 5.66,-40.1 5.86,280.68 5.86,-20.05 5.67,-220.53 5.86,380.91 5.66,-280.67 5.86,-160.38 5.86,481.15 5.29,-541.29 5.86,-260.63 5.67,280.67 5.85,-320.76 5.68,280.67 5.85,160.38 5.86,-200.48 5.67,-200.48 5.86,-40.09 5.66,120.28 5.86,-280.67 5.86,-541.29 5.29,641.53 5.86,20.05 5.66,380.91 5.86,-340.81 5.67,-20.05 h 5.86 l 5.86,220.52 5.66,-260.62 5.87,60.15 5.66,380.9 5.86,20.05 5.85,-441.05 5.49,260.62 5.86,20.05 5.66,80.19 5.86,40.1 5.67,-200.48 5.86,-240.57 5.86,461.09 5.66,100.25 5.86,-380.91 5.67,40.09 5.86,140.34 5.85,-220.53 5.3,-220.53 5.85,360.86 h 5.68 l 5.85,-400.95 5.67,400.95 5.86,-160.38 5.86,-200.48 5.66,-180.43 5.86,-60.14 5.67,100.24 5.86,20.05 5.86,-601.44 5.28,501.19 h 5.87 l 5.66,-100.23 5.86,-180.44 5.67,220.53 h 5.86 l 5.86,481.15 h 5.66 l 5.86,-20.05 5.67,-240.57 5.86,120.29 5.85,-300.72 5.3,641.53 5.85,20.05 5.68,80.19 5.85,-180.43 5.67,-40.1 5.85,120.29 5.86,-120.29 5.67,80.19 5.86,-80.19 5.67,-60.14 5.86,320.76 5.86,-621.48 h 5.48 5.85 l 5.67,400.96 5.86,-80.19 5.67,20.05 5.85,-60.15 5.86,80.19 5.67,200.48 5.86,-40.09 5.66,40.09 5.86,-360.86 5.87,40.1 5.28,-240.58 5.89,100.24 5.6,-140.33 5.9,120.28 5.7,-140.33 5.8,180.43 5.9,-40.1 5.7,20.05 5.8,-441.05 5.7,340.81 5.8,-441.05 5.9,-20.05 5.3,-180.43 5.8,601.44 5.7,-100.25 5.9,200.49 5.6,-160.39 5.9,160.39 5.9,-200.49 5.6,180.44 5.9,-100.24 5.6,300.72 5.9,-621.49 5.9,340.82 5.3,-40.1 5.8,100.24 5.7,-120.29 5.8,260.63 5.7,-220.53 5.9,-120.29 5.8,60.14 5.7,-220.52 5.8,400.96 5.7,-441.06 5.9,340.82 5.8,-300.72 5.5,180.43 5.9,60.14 5.6,461.1 5.9,-120.28 5.7,340.81 5.8,-400.96 5.9,-60.14 5.7,-220.53 5.8,-240.57 5.7,441.05 5.8,-481.15 5.9,300.72 5.3,-300.72 5.8,140.34 5.7,100.23 5.9,-40.09 5.6,60.14 h 5.9 l 5.8,-180.43 5.7,-80.19 5.9,20.05 5.6,120.29 5.9,220.52 5.9,-320.76 5.3,200.47 5.8,280.68 5.7,-20.05 5.8,-320.77 5.7,220.53 5.9,-320.77 5.8,120.29 5.7,-100.24 5.8,-80.19 5.7,-100.24 5.9,-481.15 5.8,661.58 5.3,-60.14 5.9,-80.2 5.6,160.39 5.9,140.33 5.7,20.05 5.8,20.05 h 5.9 l 5.7,40.1 5.8,-20.05 5.7,180.43 5.8,380.91 5.9,-140.34 5.5,-741.77 5.8,421.01 5.7,100.24 5.9,-20.05 5.6,-200.48 5.9,260.62 5.8,-280.67 5.7,-120.29 5.9,-40.09 5.6,300.72 5.9,-220.53 5.9,240.58 5.2,-20.05 5.9,-140.34 5.7,-80.19 h 5.8 l 5.7,-180.43 5.9,120.29 5.8,-100.24 5.7,160.38 5.8,-320.77 5.7,260.63 5.9,-140.34 5.8,-180.43 5.3,-160.38 5.9,160.38 5.6,180.43 5.9,140.34 5.7,100.23 5.8,-100.23 5.9,100.23 5.7,-160.38 5.8,-220.52 5.7,741.77 5.8,-140.34 5.9,80.2 5.3,-340.82 h 5.8 l 5.7,260.62 5.9,-200.48 5.6,-180.43 5.9,-80.19 5.9,360.86 5.6,-180.43 5.9,140.34 5.6,-20.05 5.9,220.53 5.9,-20.05 5.4,-160.38 5.9,-280.68 5.7,-120.28 5.8,260.62 5.7,140.34 5.8,-100.25 5.9,-180.43 5.7,-140.33 5.8,20.05 5.7,501.2 5.9,-360.87 5.8,160.38 5.3,-100.23 5.9,260.62 5.6,-120.29 5.9,-160.38 5.7,160.38 5.8,-180.43 5.9,-160.38 5.7,180.43 5.8,-300.72 5.7,280.67 5.8,-120.29 5.9,421.01 5.3,-481.15 5.8,-40.1 5.7,-120.29 5.9,380.92 5.6,200.48 5.9,-481.15 5.8,-120.29 5.7,140.33 5.9,280.67 5.6,-240.57 5.9,-120.29 5.9,-120.28 5.3,-100.25 5.8,400.96 5.7,-80.19 5.8,-40.09 5.7,160.38 5.9,-140.34 5.8,-80.19 5.7,-481.14 5.8,60.14 5.7,-200.48 5.9,-20.05 5.8,-400.96 5.5,40.1 5.9,461.1 5.6,320.76 5.9,300.72 5.7,-80.19 5.8,-340.81 5.9,220.53 5.6,40.09 5.9,-40.09 5.7,100.23 5.8,-340.81 5.9,-240.57 5.3,-40.1 5.8,441.05 5.7,80.2 5.9,380.9 5.6,-200.47 5.9,-100.25 5.8,200.48 5.7,-260.62 5.9,40.1 5.6,-120.29 5.9,240.58 5.9,-60.15 5.2,-100.24 5.9,20.05 5.7,120.29 5.8,100.24 5.7,-100.24 5.9,140.33 5.8,-100.24 5.7,-421 5.8,380.91 5.7,-180.43 5.9,-40.1 5.8,-40.1 5.3,-441.04 5.9,320.76 5.6,320.76 5.9,-140.33 5.7,-40.1 5.8,20.05 5.9,20.05 5.7,-180.43 5.8,20.05 5.7,-160.38 5.8,-160.39 5.9,-180.43 5.5,160.39 5.8,80.18 5.7,240.58 5.9,200.48 5.6,40.09 5.9,60.14 5.8,-240.57 5.7,200.48 5.9,-441.05 5.6,601.43"
         style="fill:none;stroke:#99c2ff;stroke-width:1.99912;stroke-linecap:butt;stroke-linejoin:round;stroke-miterlimit:10;stroke-dasharray:none;stroke-opacity:1"
         id="path9699" /></g><g
       id="g9701"
       transform="scale(0.0999442,-0.100056)"><path
         d="m 1632.91,-1865.42 5.86,60.15 5.48,-120.28 5.85,10.02 5.68,-65.16 5.85,87.71 5.67,13.78 5.86,-73.3 5.85,3.45 5.67,91.94 5.86,25.92 5.67,-27.14 5.86,6.48 5.86,-46.88 5.29,-193.84 5.86,-116.97 5.66,-78.53 5.86,211.33 5.67,-84.8 5.86,-2.3 5.85,119.15 5.68,119.71 5.85,29.78 5.67,-105.39 5.86,-283.25 5.85,-111.55 5.3,34.43 5.85,227.73 5.67,93.81 5.86,127.1 5.67,3.4 5.86,-88.51 5.86,25.91 5.66,113.2 5.86,-23.6 5.67,178.66 5.86,29.19 5.86,94.78 5.29,-203.21 5.86,-41.45 5.66,-30.75 5.86,-105.6 5.67,-72.84 5.86,33.74 5.85,97.06 5.67,-51.7 5.86,94.43 5.67,-73.07 5.86,-16.49 5.85,-58.35 5.48,261.51 5.87,160.82 5.66,20.27 5.86,20.16 5.67,-9.97 5.86,-55.1 5.85,-37.58 5.67,-38.84 5.86,60.78 5.67,10.34 5.85,285.84 5.86,-107.68 5.29,-134.03 5.86,93.37 5.67,76.76 5.86,28.35 5.66,-86.06 5.86,-73.11 5.87,-56.6 5.66,-78.41 5.86,-39.22 5.67,-159.94 5.86,260.85 5.85,200.59 5.29,20.1 5.86,-140.31 5.67,-110.24 5.86,55.13 5.67,-142.84 5.86,58.9 5.85,-40.72 5.67,19.73 5.86,-0.16 5.67,-20.12 5.85,461.06 5.86,80.17 5.29,-170.42 5.86,-95.23 5.67,-97.73 5.86,-98.99 5.66,-39.47 5.86,70.48 5.86,-54.98 5.67,72.76 5.86,-63.87 5.66,38.24 5.87,29.14 5.85,34.62 5.48,77.45 5.86,-171.77 5.67,-75.87 5.86,-78.02 5.66,-109.19 5.86,-4.47 5.86,-42.33 5.67,-151.48 5.86,-85.76 5.66,17.26 5.86,58.75 5.86,-221.22 5.29,-0.35 5.85,-40.27 5.68,80.11 5.85,140.29 5.68,40.07 5.85,150.35 5.86,115.27 5.67,67.66 5.86,114.03 5.66,6.88 5.86,133.76 5.86,96.95 5.29,8.38 5.86,-106.07 5.66,47.19 5.86,-126.75 5.67,-33.3 5.86,93.6 5.86,26.76 5.67,-106.91 5.86,126.98 5.66,-56.81 5.86,11.7 5.85,126.14 5.3,-217.6 5.85,-18.59 5.68,-119.56 5.85,-19.68 5.67,-39.91 5.86,-19.96 5.86,-30.02 5.66,55.15 5.86,117.79 5.67,-211.75 5.86,134.7 5.86,-113.08 5.48,244.18 5.85,51.92 5.68,-74.27 5.85,-47.17 5.67,66.63 5.86,-6.78 5.86,-113.65 5.66,-76.87 5.86,232.21 5.67,86.03 5.86,474.04 5.86,-3.54 5.29,-352.62 5.86,-126.19 5.66,-2.94 5.86,-81.68 5.67,-161.11 5.86,29.7 5.85,-5.2 5.67,-42.69 5.86,-21.35 5.67,119.64 5.86,270.32 5.85,-95.39 5.3,-107.84 5.85,156.59 5.67,-62.05 5.86,69.22 5.66,-135.8 5.86,-67.9 5.87,6.15 5.66,-37.02 5.86,1.53 5.67,-49.35 5.86,175.8 5.86,107.95 5.28,-46.26 5.86,-133.4 5.67,-16.57 5.86,-68.44 5.67,-74.31 5.86,-37.15 5.85,-58.67 5.67,-49.4 5.86,35.46 5.67,-12.35 5.85,74.02 5.86,-53.2 5.48,113.72 5.86,96.97 5.67,-101.88 5.86,-101.06 5.67,-130.72 5.85,-35.29 5.86,2.4 5.67,-139.13 5.86,40.69 5.67,20.36 5.85,120.44 5.86,80.26 5.29,0.04 5.86,-110.25 5.67,-65.14 5.86,67.66 5.66,-56.38 5.86,41.97 5.86,10.97 5.67,45.58 5.86,72.91 5.66,56.5 5.86,-152.18 5.86,204.58 5.29,312.79 5.86,-44.08 5.67,-32.06 5.86,-126.3 5.67,-33.07 5.85,23.55 5.86,-28.32 5.67,116.16 5.86,88.14 5.67,-106.28 5.85,-123.31 5.86,168.9 5.29,54.37 5.86,-123.17 5.66,-41.53 5.86,69.44 5.67,-125.66 5.86,-133 5.86,-106.59 5.67,-53.3 5.86,-207.08 5.67,287.4 5.85,243.93 5.86,-178.75 5.29,-149.52 5.86,15.46 5.67,7.73 5.86,13.88 5.66,37.02 5.87,-21.59 5.85,-50.89 5.67,-175.8 5.85,72.48 5.68,46.27 5.85,173.49 5.86,-23.52 5.29,-182.17 5.86,-0.86 5.66,129.87 5.86,24.84 5.67,42.5 5.86,81.39 5.86,50.72 5.67,95.53 5.85,-62.51 5.67,58.97 5.86,-60.73 5.85,-140.63 5.3,140.19 5.86,70.09 5.67,75.14 5.85,17.53 5.67,-11.29 5.86,14.4 5.86,-2.82 5.66,-1.41 5.86,59.44 5.67,89.87 5.86,-135.51 5.86,-238.15 5.29,41.31 5.86,211.1 5.66,95.53 5.86,67.81 5.67,-36.26 5.86,82.11 5.86,91.17 5.67,25.55 5.85,-47.38 5.67,56.5 5.86,158.57 5.86,29.16 5.47,-85.66 5.86,-22.78 5.67,8.66 5.86,-35.77 5.67,12.19 5.86,-13.96 5.86,63.19 5.67,-138.81 5.85,-289.93 5.67,15.42 5.86,27.75 5.85,254.46 5.3,-243.67 5.85,-1.54 5.67,-40.86 5.86,-40.48 5.67,-30.26 5.85,-85.31 5.86,-52.67 5.67,33.8 5.86,-163.52 5.67,-21.63 5.86,139.55 5.86,89.83 5.29,-65.35 5.85,-173.01 5.67,123.99 5.86,1.86 5.67,31 5.86,-14.58 5.85,82.93 5.67,-48.74 5.86,146.02 5.67,-147.51 5.86,206.92 5.85,183.65 5.3,-148.75 5.85,25.86 5.67,103.15 5.86,11.48 5.67,-64.43 5.85,-42.24 5.86,-21.12 5.67,-120.82 5.86,170.14 5.67,95.09 5.85,27.5 5.86,-106.54 5.49,167.26 5.85,-16.61 5.66,-78.47 5.86,-39.24 5.67,-49.69 5.86,85.42 5.86,-57.53 5.67,51.43 5.86,105.9 5.67,22.88 5.85,241.99 5.86,-139.62 5.29,20.39 5.86,50.3 5.67,-14.94 5.86,-37.55 5.67,-88.94 5.86,-164.76 5.85,-22.24 5.67,-1.09 5.85,-80.74 5.68,200.21 5.85,-40.23 5.86,-20.12 5.29,80.16 5.86,-50.14 5.67,-105.26 5.85,-12.53 5.67,-46.37 5.86,-3.13 5.86,28.5 5.67,34.31 5.85,157.48 5.68,199.03 5.85,49.4 5.86,-25.43 5.29,27.39 5.86,-66.5 5.67,-53.3 5.86,-36.67 5.66,-108.55 5.86,-24.2 5.86,-42.17 5.67,-161.43 5.85,-140.85 5.68,-70.43 5.85,4.88 5.86,-107.82 5.48,186.66 5.86,-117.17 5.67,-18.49 5.86,10.8 5.66,195.86 5.86,218.21 5.86,149.21 5.67,64.58 5.85,-148.15 5.67,-33.97 5.86,-47.06 5.86,26.59 5.29,-6.76 5.85,-33.44 5.67,23.37 5.86,21.71 5.67,-79.36 5.86,-59.73 5.86,-19.84 5.67,-29.97 5.85,-145.3 5.67,-253.07 5.86,-196.71 5.86,52.01 5.29,166.34 5.86,133.28 5.67,-13.54 5.85,43.35 5.67,1.62 5.85,-79.38 5.86,-29.67 5.68,-145.14 5.85,37.7 5.67,-91.43 5.86,124.7 5.86,-108.05 5.29,6.11 5.85,-157.33 5.67,41.63 5.86,181.2 5.67,-9.65 5.86,95.42 5.85,37.68 5.67,58.94 5.86,-90.81 5.67,44.8 5.86,-77.84 5.85,-8.84 5.49,125.89 5.85,93.01 5.67,76.58 5.86,188.65 5.67,-25.97 5.86,-103.18 5.85,28.58 5.67,-15.77 5.86,122.42 5.67,422.08 5.86,-29.54 5.85,35.349 5.3,27.7 5.85,-76.369 5.67,-38.18 5.86,-139.38 5.67,-250.12 5.85,-155.13 5.86,-67.54 5.67,176.73 5.86,-21.9 5.67,329.86 5.85,-25.51 5.86,-153.1 5.29,-166.76 5.86,107.07 5.67,43.51 5.86,-48.41 5.67,-64.3 5.86,-32.15 5.85,-156.41 5.67,-198.5 5.86,-39.1 5.67,160.88 5.86,-9.77 5.85,25.18 5.29,-7.46 5.86,-93.94 5.67,103.39 5.85,131.89 5.68,-4.23 5.85,37.98 5.86,-51.18 5.67,-85.72 5.86,167.63 5.67,93.84 5.85,-123.48 5.86,-41.7 5.48,-161.18 5.86,29.67 5.67,44.91 5.85,112.67 5.68,-3.81 5.85,-31.97 5.86,-66.11 5.67,17.06 5.85,8.53 5.67,194.72 5.86,-313.62 5.86,-26.5 5.29,36.87 5.86,88.61 5.67,54.32 5.86,-2.91 5.66,-131.76 5.86,44.38 5.86,-37.96 5.67,-179.35 5.85,10.56 5.67,45.37 5.86,173.05 5.86,206.81 5.29,-197.31 5.85,-18.47 5.67,101.03 5.86,20.45 5.67,-19.86 5.86,40.2 5.86,50.17 5.67,-4.99 5.85,-182.92 5.67,-51.37 5.86,64.53 5.86,152.56 5.29,16.13 5.86,78.24 5.67,-31.05 5.86,-65.65 5.66,-12.78 5.86,13.66 5.85,-3.19 5.68,-182.03 5.85,-201.27 5.67,-80.59 5.86,140.13 5.86,80.09 5.48,-110.31 5.86,165.37 5.66,-37.6 5.86,51.37 5.67,55.75 5.86,98.05 5.85,18.94 5.68,39.55 5.85,-130.58 5.67,155.23 5.85,37.52 5.86,38.81 5.3,-110.91 5.85,-75.5 5.67,-7.68 5.86,36.26 5.67,-42.02 5.86,-91.17 5.86,-45.59 5.66,-52.86 5.86,-236.94 5.67,-138.52 5.86,-209.59 5.86,75.64 5.29,-42.38 5.86,209.37 5.66,214.94 5.86,127.52 5.67,83.81 5.86,-98.44 5.85,-39.19 5.67,-49.66 5.86,-74.95 5.67,193.07 5.86,76.49 5.85,-51.97 5.29,174.49 5.86,7.05 5.67,-46.59 5.86,-3.25 5.67,-91.84 5.86,14.23 5.86,-113.18 5.66,-166.85 5.86,-43.33 5.67,259.01 5.86,-191.27 5.85,-15.43 5.48,152.66 5.86,96.37 5.67,68.24 5.86,124.34 5.66,-128.29 5.86,-34.07 5.86,-27.06 5.67,-33.58 5.86,-117.03 5.67,11.66 5.86,286.49 5.85,283.59 5.29,-118.84 5.86,30.81 5.67,-14.67 5.85,42.78 5.68,-48.78 5.85,-64.48 5.86,-102.41 5.67,-161.47 5.86,-120.83 5.66,380.64 5.86,-60.28 5.86,-60.21 5.29,-190.49 5.86,55.11 5.67,17.54 5.86,-11.28 5.66,-15.67 5.86,-67.98 5.86,-33.98 5.67,-47.07 5.86,-324.25 5.66,68.43 5.86,84.33 5.86,152.43 5.29,-34.05 5.85,113.28 5.68,16.56 5.85,-102 5.68,-101.11 5.85,-40.53 5.86,9.8 5.67,-115.39 5.86,42.56 5.66,21.27 5.86,-189.84 5.86,225.84 5.48,122.95 5.85,-58.82 5.68,80.86 5.85,160.72 5.68,40.25 5.85,-9.94 5.86,-115.23 5.67,-77.66 5.86,141.6 5.66,60.77 5.86,0.32 5.86,60.3 5.29,40.18 5.86,-40.06 5.66,30.09 5.86,65.16 5.67,-97.72 5.86,-18.8 5.86,40.73 5.67,-19.74 5.86,50.28 5.66,155.45 5.86,-152.82 5.86,-266.87 5.29,137.21 5.85,78.63 5.68,-171.19 5.85,-35.47 5.68,-57.83 5.85,-8.88 5.86,25.64 5.66,-67.37 5.86,-143.95 5.67,-11.83 5.86,304.82 5.86,-318.71 5.29,121.32 5.86,281.18 5.66,70.43 5.86,15.16 5.67,-52.56 5.86,-26.28 5.85,-13.14 5.67,-156.93 5.86,122.01 5.67,-29.2 5.86,85.63 5.85,153.08 5.49,-93.86 5.86,-56.96 5.66,-68.58 5.86,15.84 5.67,-102.35 5.86,-21.1 5.85,-50.65 5.67,-85.47 5.86,-82.83 5.67,-21.37 5.86,49.47 5.85,-75.51 5.29,192.8 5.86,46.27 5.67,-77.1 5.86,-38.55 5.66,-39.32 5.86,-69.78 5.87,-105.06 5.66,-52.53 5.86,-16.24 5.67,142.24 5.86,-79.24 5.86,10.5 5.28,-54.9 5.86,2.63 5.67,151.67 5.86,156.03 5.67,-2.18 5.86,-41.18 5.85,-70.72 5.67,-185.71 5.86,-22.69 5.67,189.13 5.85,24.4 5.86,32.25 5.29,126.39 5.86,-27.03 5.67,-63.62 5.86,-1.75 5.66,-10.9 5.86,-5.44 5.86,7.3 5.67,-26.42 5.86,-123.48 5.66,-432.62 5.87,224.74 5.85,32.18 5.48,6.07 5.86,-77.16 5.67,21.56 5.86,10.79 5.66,-4.64 5.86,47.81 5.86,-56.3 5.67,11.95 5.86,-54.16 5.66,-177.44 5.86,51.61 5.86,-104.51 5.29,158.25 5.86,18.99 5.67,-0.54 5.85,39.83 5.68,-70.3 5.85,35.02 5.86,147.82 5.67,-256.88 5.86,1.87 5.66,10.96 5.86,-74.71 5.86,233.29 5.29,86.57 5.86,3.19 5.66,-18.45 5.86,50.92 5.67,75.57 5.86,77.89 5.86,28.92 5.67,-25.64 5.86,-103.03 5.66,-81.59 5.86,99.54 5.86,-130.66 5.29,145.17 5.86,-77.77 5.67,1.21 5.85,120.89 5.68,-69.86 5.85,35.23 5.86,-22.48 5.66,-191.67 5.86,-65.76 5.67,-72.98 5.86,-156.78 5.86,41.9 5.48,0.91 5.85,70.61 5.68,35.31 5.85,57.75 5.67,-1.19 5.86,-0.6 5.86,-100.54 5.66,-30.22 5.86,135.25 5.67,137.79 5.86,8.75 5.86,104.61 5.29,-7.83 5.86,-134.23 5.66,63.2 5.86,91.74 5.67,15.8 5.86,-222.65 5.86,-51.18 5.66,-5.55 5.86,107.49 5.67,194.09 5.86,-123.49 5.85,68.57 5.3,44.31 5.85,-17.94 5.68,111.31 5.85,196 5.67,7.78 5.86,84.08 5.86,-78.25 5.66,-39.12 5.86,-49.64 5.67,235.81 5.86,-122.67 5.86,-51.32 5.28,-165.98 5.86,-83 5.67,38.69 5.86,19.35 5.67,29.73 5.86,44.92 5.86,72.59 5.67,-154.16 5.85,-36.98 5.67,141.88 5.85,-119.51 5.86,150.76 5.48,165.59 5.86,-37.5 5.67,-129.01 5.86,-24.41 5.67,47.94 5.85,34 5.86,37.04 5.67,-71.69 5.86,34.32 5.67,127.42 5.85,-237.01 5.86,92 5.29,-74.28 5.86,53.07 5.67,16.51 5.86,178.66 5.66,-51 5.86,-25.5 5.86,-2.73 5.67,-81.56 5.86,-0.67 5.67,79.85 5.85,120.11 5.86,70.08 5.29,-155.41 5.86,52.61 5.67,-73.94 5.86,-97.12 5.67,-8.46 5.86,65.94 5.85,-17.15 5.67,81.64 5.86,181.15 5.67,-39.73 5.85,110.45 5.86,125.38 5.29,-147.81 5.86,-134.04 5.66,-207.36 5.86,-33.51 5.67,-76.9 5.86,-108.62 5.86,-44.28 5.67,-52.21 5.86,64.1 5.67,-138.35 5.85,-29.08 5.86,-4.52 5.48,188.2 5.86,-16.17 5.66,52.07 5.86,26.03 5.67,-57.16 5.86,-38.6 5.86,-39.34 5.67,50.49 5.86,155.56 5.67,-32.49 5.85,-106.46 5.86,-133.42 5.29,-26.61 5.86,-93.5 5.67,33.44 5.86,6.7 5.66,113.61 5.86,16.71 5.86,18.38 5.67,-30.9 5.85,94.81 5.68,-32.79 5.85,274.3 5.86,-3.18 5.29,48.53 5.86,14.23 5.66,67.27 5.86,13.58 5.67,16.82 5.86,-11.64 5.86,-75.99 5.67,-118.19 5.85,-159.33 5.67,180.96 5.86,-220.27 5.85,180.57 5.3,250.66 5.86,25.09 5.67,-7.5 5.85,-63.89 5.67,-62.02 5.86,-161.32 5.86,49.65 5.66,-35.32 5.86,182.82 5.67,121.48 5.86,-99.64 5.86,70.47 5.48,5.16 5.85,62.72 5.68,51.41 5.85,-104.61 5.67,-122.46 5.85,109.16 5.86,-15.57 5.67,32.3 5.86,-64.04 5.67,-122.24 5.86,-31.04 5.86,-75.67 5.28,-17.79 5.86,-59.01 5.67,-119.72 5.86,-120.01 5.67,70.32 5.86,-95.16 5.86,12.57 5.66,86.47 5.86,-26.93 5.67,-83.63 5.86,-282.4 5.85,29.22 5.3,154.94 5.85,147.64 5.67,23.69 5.86,162.21 5.67,-59.22 5.85,70.62 5.86,5.24 5.67,-57.52 5.86,-8.72 5.67,5.67 5.85,-67.34 5.86,-23.64 5.3,-122.08 5.85,-41 5.67,99.79 5.86,59.92 5.67,29.96 5.86,55.08 5.85,77.66 5.67,48.84 5.86,34.46 5.67,-52.95 5.86,-36.49 5.85,-148.56 5.48,406.87 5.86,2.95 5.67,-68.68 5.86,-74.45 5.67,-37.22 5.86,-78.75 5.85,-89.5 5.67,-34.72 5.86,153.04 5.67,-224.19 5.85,8.19 5.86,-116.19 5.29,42.14 5.86,-19.03 5.67,0.52 5.85,10.28 5.67,105.38 5.86,52.68 5.86,-53.84 5.67,63.29 5.86,1.57 5.67,191.25 5.85,-114.88 5.86,-157.69 5.29,-28.72 5.86,35.77 5.67,128.14 5.86,-26.15 5.66,-3.05 5.87,28.55 5.85,4.26 5.67,-7.91 5.85,-54.07 5.68,63.19 5.85,31.59 5.86,-194.71 5.29,223.41 5.86,41.54 5.67,10.74 5.85,-104.89 5.67,-62.46 5.86,-191.62 5.86,-55.72 5.67,12.25 5.85,-3.91 5.67,178.48 5.86,149.38 5.86,84.72 5.47,152.62 5.87,186.57 5.66,23.12 5.86,-198.94 5.67,-99.47 5.86,130.69 5.86,145.54 5.67,92.82 5.85,-63.85 5.67,58.28 5.86,-191.39 5.86,-5.47 5.29,-42.83 5.86,38.72 5.67,-50.8 5.86,-65.5 5.66,17.38 5.86,-81.54 5.85,69.5 5.68,-65.49 5.85,-22.72 5.67,8.69 5.86,114.61 5.86,-93.06 5.29,-126.72 5.85,107.05 5.67,43.5 5.86,-108.56 5.67,-124.45 5.86,108.18 5.86,-6.05 5.66,127.28 5.86,-86.71 5.67,-33.34 5.86,33.45 5.86,157.07 5.29,-182.1 5.85,9.2 5.67,-165.81 5.86,117.57 5.67,-41.45 5.86,-10.7 5.85,64.82 5.67,-117.96 5.86,81.36 5.67,40.68 5.85,230.84 5.86,-4.86 5.49,-343.25 5.85,89 5.67,124.69 5.86,12.23 5.67,46.21 5.85,-16.99 5.86,91.74 5.67,-234.8 5.86,22.93 5.67,111.72 5.85,15.75 5.86,68.02 5.29,-146.42 5.86,-233.59 5.67,-126.82 5.86,86.95 5.67,113.64 5.86,-23.37 5.85,-61.8 5.67,-40.93 5.86,-40.51 5.67,-140.54 5.86,90.11 5.85,-95.28 5.29,112.74 5.86,66.4 5.67,123.41 5.85,51.68 5.68,-14.25 5.85,103.13 5.86,-168.96 5.67,5.74 5.86,12.89 5.67,146.79 5.85,-26.85 5.86,126.91 5.29,83.5 5.86,-68.51 5.67,-54.31 5.86,93.14 5.66,-43.65 5.87,-91.99 5.85,4.12 5.67,-17.98 5.86,21.08 5.67,20.56 5.86,150.62 5.85,35.21 5.48,-182.87 5.86,-71.39 5.67,-5.63 5.86,-72.97 5.66,-6.42 5.86,-153.57 5.86,63.56 5.67,-28.38 5.86,45.97 5.66,-137.41 5.86,-178.96 5.86,-119.55 5.29,-29.71 5.86,5.19 5.67,52.72 5.85,56.43 5.68,88.36 5.85,124.37 5.86,22.09 5.67,1.02 5.85,50.64 5.67,145.59 5.86,102.88 5.86,221.84 5.29,-109.61 5.86,5.35 5.67,-67.49 5.86,-23.73 5.66,-31.92 5.86,-156.28 5.85,112.3 5.68,26.09 5.85,33.09 5.67,26.57 5.86,-167.15 5.86,-63.52 5.29,-71.86 5.85,44.26 5.68,-98.16 5.85,121.33 5.67,60.67 5.86,190.71 5.86,-44.97 5.67,57.7 5.85,88.99 5.67,44.5 5.86,-118.09 5.86,-28.97 5.48,135.87 5.85,-72.4 5.67,104.14 5.86,-38.15 5.67,-39.12 5.86,0.49 5.85,-59.9 5.67,150.48 5.86,-105.19 5.67,-223 5.86,-181.67 5.86,-140.96 5.29,-90.52 5.86,-55.29 5.66,-97.81 5.86,11.24 5.67,75.79 5.86,57.94 5.85,189.35 5.67,84.66 5.86,-87.99 5.67,86.32 5.85,13.09 5.86,-33.55 5.3,-107 5.85,-33.45 5.67,63.48 5.86,131.97 5.67,15.86 5.86,178.35 5.86,-101.29 5.66,-20.57 5.86,-120.55 5.67,-0.13 5.86,-0.06 5.86,180.39 5.29,-200.49 5.86,-60.15 5.66,80.18 5.86,-60.14 5.67,70.17 5.86,-95.24 5.85,-127.8 5.67,-73.93 5.86,-57 5.67,-228.99 5.86,65.94 5.85,-67.27 5.48,66.6 5.87,33.3 5.66,-33.47 5.85,133.63 5.68,46.77 5.86,53.45 5.85,16.7 5.67,78.53 5.85,-131.15 5.67,14.61 5.86,-303.43 5.86,-41.45 5.29,-80.88 5.86,119.95 5.67,130.14 5.86,24.98 5.66,-17.59 5.86,-38.86 5.86,181.05 5.67,120.59 5.86,-49.96 5.67,-205.42 5.86,258.16 5.85,28.84 5.29,134.71 5.86,-52.94 5.67,-56.54 5.85,92.02 5.68,-44.21 5.85,88.16 5.86,-56.16 5.67,-18.06 5.86,-59.14 5.66,-280.17 5.86,-240.33 5.86,-19.92 5.29,0.06 5.86,140.37 5.67,10.04 5.86,115.28 5.66,107.76 5.86,-116.53 5.86,-78.3 5.67,161.32 5.86,-49.66 5.66,105.49 5.86,-87.59 5.86,126.61 5.48,-56.98 5.86,171.99 5.66,-184.66 5.86,218.42 5.67,-61.2 5.86,-30.6 5.86,-35.35 5.67,52.5 5.86,96.41 5.66,158.47 5.86,-181.38 5.86,169.93 5.29,-125.54 5.85,-12.65 5.68,-36.4 5.85,-18.2 5.68,101.17 5.85,-79.73 5.86,0.23 5.66,10.14 5.87,75.24 5.66,-52.6 5.86,-146.59 5.86,-183.55 5.29,-21.61 5.86,69.38 5.66,44.72 5.86,112.57 5.67,66.31 5.86,-16.96 5.86,121.83 5.66,-59.37 5.87,20.43 5.66,-19.85 5.86,-200.38 5.85,-210.46 5.3,135.35 5.85,7.53 5.68,-6.27 5.85,-93.34 5.67,-96.79 5.86,101.96 5.86,-49.25 5.66,-4.59 5.86,37.81 5.67,-151.5 5.86,-186.02 5.86,37.3 5.48,-61.54 5.85,59.45 5.67,19.7 5.86,49.94 5.67,95.14 5.86,-12.57 5.86,13.76 5.66,-3.14 5.86,259.05 5.67,-40.89 5.86,149.97 5.86,-105.44 5.28,-112.88 5.87,13.74 5.66,127.15 5.86,63.58 5.67,-138.62 5.86,-59.28 5.85,-49.69 5.67,35.3 5.86,117.88 5.67,-121.49 5.86,-110.85 5.85,-75.48 5.29,-398.61 5.86,41.27 5.67,120.88 5.86,140.63 5.66,-9.87 5.86,115.34 5.86,167.94 5.67,-136.56 5.86,-88.32 5.67,15.98 5.86,-12.06 5.86,-76.2 5.28,112.26 5.86,-104.25 5.67,118.28 5.86,-131.31 5.67,-5.51 5.85,77.43 5.86,-11.4 5.67,144.65 5.86,62.31 5.67,11.1 5.85,-144.81 5.86,-2.23 5.48,-81.3 5.86,169.84 5.67,44.83 5.86,72.54 5.67,216.69 5.85,108.35 5.86,144.39 5.67,2.03 5.86,31.08 5.67,-164.88 5.85,-222.78 5.86,-131.44 5.29,-55.69 5.86,52.34 5.66,16.15 5.87,68.21 5.66,14.06 5.86,147.37 5.86,63.66 5.67,-78.44 5.86,151.24 5.66,-64.72 5.86,-112.54 5.86,184.3 5.29,-178.5 5.86,-219.56 5.67,30.55 5.85,-145.09 5.68,67.77 5.85,114.09 5.86,-43.2 5.67,-121.84 5.86,-80.96 5.66,19.66 5.86,-130.51 5.86,-335.9 5.29,152.82 5.86,86.43 5.66,233.67 5.86,-53.57 5.67,-36.81 5.86,-18.41 5.86,101.06 5.66,-79.78 5.87,-9.82 5.66,185.55 5.86,102.8 5.85,-169.13 5.49,45.74 5.86,32.9 5.66,56.54 5.86,48.33 5.67,-76.08 5.86,-158.33 5.86,151.39 5.66,125.81 5.86,-127.55 5.67,-43.72 5.86,48.3 5.85,-86.11 5.3,-153.32 5.85,103.78 5.68,51.88 5.85,-174.54 5.67,113.21 5.86,-23.58 5.86,-112.03 5.66,-146.23 5.86,-103.2 5.67,-1.46 5.86,9.28 5.86,-296.08 5.28,102.56 5.87,51.28 5.66,-24.47 5.86,-102.46 5.67,59.04 5.86,29.52 5.86,255.33 5.66,127.67 5.86,53.8 5.67,-93.38 5.86,13.45 5.85,-143.63 5.3,248.95 5.85,134.5 5.68,107.35 5.85,-36.55 5.67,-38.32 5.85,40.98 5.86,-39.65 5.67,20.28 5.86,-29.97 5.67,-45.05 5.86,137.86 5.86,-241.82 5.48,-120.9 5.85,-60.46 5.67,170.26 5.86,45.03 5.67,32.54 5.85,-13.81 5.86,33.2 5.67,116.83 5.86,38.38 5.66,39.23 5.86,-160.82 5.87,-60.35 5.28,-150.48 5.89,-25.11 5.6,-82.72 5.9,18.78 5.7,-60.78 5.8,59.83 5.9,9.87 5.7,14.95 5.8,-213.05 5.7,63.89 5.8,-188.59 5.9,-104.32 5.3,-142.37 5.8,229.54 5.7,64.64 5.9,132.56 5.6,-13.91 5.9,73.24 5.9,-63.62 5.6,58.41 5.9,-20.93 5.6,139.91 5.9,-240.8 5.9,50.02 5.3,4.95 5.8,52.6 5.7,-33.84 5.8,113.38 5.7,-53.57 5.9,-86.92 5.8,-13.39 5.7,-116.96 5.8,141.99 5.7,-149.52 5.9,95.64 5.8,-102.54 5.5,38.95 5.9,49.54 5.6,255.33 5.9,67.52 5.7,204.17 5.8,-98.4 5.9,-79.28 5.7,-149.89 5.8,-195.24 5.7,122.91 5.8,-179.12 5.9,60.8 5.3,-119.96 5.8,10.19 5.7,55.21 5.9,7.56 5.6,33.85 5.9,16.93 5.8,-81.75 5.7,-80.98 5.9,-30.46 5.6,44.92 5.9,132.71 5.9,-94.02 5.3,53.23 5.8,166.94 5.7,73.46 5.8,-123.66 5.7,48.44 5.9,-136.17 5.8,-7.94 5.7,-54.09 5.8,-67.14 5.7,-83.69 5.9,-282.42 5.8,189.58 5.3,64.72 5.9,-7.74 5.6,76.32 5.9,108.33 5.7,64.19 5.8,42.12 5.9,21.06 5.7,30.58 5.8,5.26 5.7,92.85 5.8,236.88 5.9,48.27 5.5,-346.75 5.8,37.13 5.7,68.68 5.9,24.32 5.6,-88.08 5.9,86.27 5.8,-97.2 5.7,-108.74 5.9,-74.42 5.6,113.15 5.9,-53.69 5.9,93.44 5.2,36.69 5.9,-51.81 5.7,-66.01 5.8,-33 5.7,-106.71 5.9,6.78 5.8,-46.73 5.7,56.83 5.8,-131.97 5.7,64.33 5.9,-38.01 5.8,-109.21 5.3,-134.8 5.9,12.79 5.6,96.61 5.9,118.48 5.7,109.35 5.8,4.56 5.9,52.4 5.7,-54 5.8,-137.25 5.7,302.25 5.8,80.96 5.9,80.58 5.3,-130.12 5.8,-65.06 5.7,97.78 5.9,-51.35 5.6,-115.89 5.9,-98.04 5.9,131.41 5.6,-24.51 5.9,57.91 5.6,18.94 5.9,119.73 5.9,49.84 5.4,-55.28 5.9,-167.96 5.7,-144.13 5.8,58.24 5.7,99.29 5.8,-0.47 5.9,-90.45 5.7,-115.39 5.8,-47.68 5.7,226.76 5.9,-67.05 5.8,46.67 5.3,-26.78 5.9,116.91 5.6,-1.68 5.9,-81.04 5.7,39.67 5.8,-70.37 5.9,-115.38 5.7,32.52 5.8,-134.09 5.7,73.28 5.8,-23.5 5.9,198.76 5.3,-141.2 5.8,-90.65 5.7,-105.46 5.9,137.72 5.6,169.1 5.9,-156.03 5.8,-138.16 5.7,1.1 5.9,140.88 5.6,-49.86 5.9,-85.06 5.9,-102.68 5.3,-101.45 5.8,149.74 5.7,34.78 5.8,-2.65 5.7,78.86 5.9,-30.74 5.8,-55.46 5.7,-268.31 5.8,-104.08 5.7,-152.29 5.9,-86.15 5.8,-243.57 5.5,-101.73 5.9,179.69 5.6,250.22 5.9,275.47 5.7,97.64 5.8,-121.58 5.9,49.46 5.6,44.79 5.9,2.34 5.7,51.29 5.8,-144.76 5.9,-192.67 5.3,-116.38 5.8,162.34 5.7,121.26 5.9,251.09 5.6,25.31 5.9,-37.47 5.8,81.5 5.7,-89.56 5.9,-24.73 5.6,-72.51 5.9,84.03 5.9,11.95 5.2,-44.15 5.9,-12.05 5.7,54.12 5.8,77.18 5.7,-11.53 5.9,64.4 5.8,-17.92 5.7,-219.46 5.8,80.73 5.7,-49.86 5.9,-44.97 5.8,-42.54 5.3,-241.79 5.9,39.48 5.6,180.13 5.9,19.9 5.7,-10.11 5.8,4.98 5.9,12.51 5.7,-83.97 5.8,-31.95 5.7,-96.17 5.8,-128.28 5.9,-154.35 5.5,3.01 5.8,41.61 5.7,141.09 5.9,170.78 5.6,105.44 5.9,82.8 5.8,-78.9 5.7,60.8 5.9,-190.13 5.6,205.65"
         style="fill:none;stroke:#000000;stroke-width:10.0076;stroke-linecap:butt;stroke-linejoin:round;stroke-miterlimit:10;stroke-dasharray:none;stroke-opacity:1"
         id="path9703" /></g><path
       d="m 961.2,66.0762 h 166.2 v 49.2551 H 961.2 Z"
       style="fill:#ffffff;fill-opacity:1;fill-rule:nonzero;stroke:none;stroke-width:0.1"
       id="path9705" /><g
       id="g9707"><text
         transform="matrix(0.998885,0,0,-1,996.482,95.1473)"
         style="font-variant:normal;font-weight:normal;font-size:18.0201px;font-family:Helvetica;-inkscape-font-specification:Helvetica;writing-mode:lr-tb;fill:#000000;fill-opacity:1;fill-rule:nonzero;stroke:none"
         id="text9711"><tspan
           x="0 13.010512 23.029688"
           y="0"
           sodipodi:role="line"
           id="tspan9709">Raw</tspan></text></g><g
       id="g9713"
       transform="scale(0.0999442,-0.100056)"><path
         d="m 9647.41,-1023 h 300.44"
         style="fill:none;stroke:#99c2ff;stroke-width:1.99912;stroke-linecap:butt;stroke-linejoin:round;stroke-miterlimit:10;stroke-dasharray:none;stroke-opacity:1"
         id="path9715" /></g><g
       id="g9717"><text
         transform="matrix(0.998885,0,0,-1,996.6,72.0809)"
         style="font-variant:normal;font-weight:normal;font-size:18.0201px;font-family:Helvetica;-inkscape-font-specification:Helvetica;writing-mode:lr-tb;fill:#000000;fill-opacity:1;fill-rule:nonzero;stroke:none"
         id="text9721"><tspan
           x="0 11.010282 15.010743 19.011206 24.020794 34.03997 40.040661 50.059837 60.079014 65.0886"
           y="0"
           sodipodi:role="line"
           id="tspan9719">Filtered, </tspan></text></g><path
       d="m 1070.42,71.8742 c -0.57,0 -1.07,0.136 -1.52,0.4082 -0.44,0.2723 -0.78,0.6367 -1.02,1.0934 -0.24,0.457 -0.36,0.9762 -0.36,1.5582 0,0.8133 0.23,1.6187 0.68,2.4164 0.45,0.798 1.06,1.4457 1.81,1.9434 0.75,0.4972 1.54,0.7457 2.37,0.7457 0.61,0 1.15,-0.1594 1.61,-0.4786 0.46,-0.3191 0.81,-0.7429 1.06,-1.2718 0.24,-0.5286 0.36,-1.0961 0.36,-1.7032 l 0.02,-1.2015 c 0.4,0.5695 0.75,1.159 1.03,1.7691 0.29,0.6102 0.51,1.2438 0.66,1.9004 0.02,0.0754 0.07,0.1129 0.14,0.1129 h 0.21 c 0.11,0 0.17,-0.0563 0.17,-0.1688 0,-0.0128 -0.01,-0.0316 -0.02,-0.0566 -0.14,-0.5504 -0.31,-1.0793 -0.53,-1.5863 -0.21,-0.5063 -0.46,-0.9977 -0.74,-1.4735 -0.29,-0.4753 -0.59,-0.907 -0.92,-1.2949 0,-1.4894 0.17,-2.234 0.51,-2.234 0.23,0 0.41,0.0657 0.55,0.1973 0.15,0.1313 0.27,0.2941 0.38,0.4883 0.11,0.1937 0.17,0.2937 0.21,0.3004 h 0.21 c 0.09,0 0.14,-0.0598 0.14,-0.1785 0,-0.2942 -0.17,-0.5821 -0.51,-0.8637 -0.34,-0.2817 -0.68,-0.4223 -1.02,-0.4223 -0.43,0 -0.79,0.1406 -1.07,0.4223 -0.29,0.2816 -0.49,0.6512 -0.6,1.1074 -0.56,-0.4816 -1.17,-0.857 -1.82,-1.1262 -0.66,-0.2691 -1.32,-0.4035 -1.99,-0.4035 z m 0.04,0.4785 c 1.28,0 2.51,0.5289 3.69,1.5864 -0.01,0.0691 -0.02,0.155 -0.03,0.2578 -0.01,0.1035 -0.02,0.1613 -0.02,0.1742 v 1.9426 c 0,2.1773 -0.58,3.2656 -1.75,3.2656 -0.71,0 -1.32,-0.3 -1.85,-0.9008 -0.53,-0.6008 -0.93,-1.3199 -1.19,-2.1582 -0.27,-0.8387 -0.4,-1.6019 -0.4,-2.2902 0,-0.5254 0.13,-0.9699 0.4,-1.3332 0.26,-0.3625 0.65,-0.5442 1.15,-0.5442"
       style="fill:#000000;fill-opacity:1;fill-rule:nonzero;stroke:none;stroke-width:0.1"
       id="path9723" /><g
       id="g9725"><text
         transform="matrix(0.998885,0,0,-1,1083.804,72.0809)"
         style="font-variant:normal;font-weight:normal;font-size:18.0201px;font-family:Helvetica;-inkscape-font-specification:Helvetica;writing-mode:lr-tb;fill:#000000;fill-opacity:1;fill-rule:nonzero;stroke:none"
         id="text9729"><tspan
           x="0 10.523739 15.533326 25.552502 30.56209"
           y="0"
           sodipodi:role="line"
           id="tspan9727">= 0.5</tspan></text></g><g
       id="g9731"
       transform="scale(0.0999442,-0.100056)"><path
         d="m 9647.41,-790.059 h 300.44"
         style="fill:none;stroke:#000000;stroke-width:10.0076;stroke-linecap:butt;stroke-linejoin:round;stroke-miterlimit:10;stroke-dasharray:none;stroke-opacity:1"
         id="path9733" /></g><g
       id="g9735"
       transform="scale(0.0999442,-0.100056)"><path
         d="m 9617.37,-660.393 v -492.277 h 1662.93 v 492.277 z"
         style="fill:none;stroke:#262626;stroke-width:5.00079;stroke-linecap:butt;stroke-linejoin:miter;stroke-miterlimit:10;stroke-dasharray:none;stroke-opacity:1"
         id="path9737" /></g></g></svg>
