<?xml version="1.0" encoding="UTF-8" standalone="no"?>
<svg
   xmlns:dc="http://purl.org/dc/elements/1.1/"
   xmlns:cc="http://creativecommons.org/ns#"
   xmlns:rdf="http://www.w3.org/1999/02/22-rdf-syntax-ns#"
   xmlns:svg="http://www.w3.org/2000/svg"
   xmlns="http://www.w3.org/2000/svg"
   xmlns:sodipodi="http://sodipodi.sourceforge.net/DTD/sodipodi-0.dtd"
   xmlns:inkscape="http://www.inkscape.org/namespaces/inkscape"
   inkscape:version="1.0 (4035a4fb49, 2020-05-01)"
   sodipodi:docname="alpha0.01.svg"
   viewBox="0 0 1391.6829 655.42486"
   height="655.42487"
   width="1391.6829"
   xml:space="preserve"
   id="svg8094"
   version="1.1"><metadata
     id="metadata8100"><rdf:RDF><cc:Work
         rdf:about=""><dc:format>image/svg+xml</dc:format><dc:type
           rdf:resource="http://purl.org/dc/dcmitype/StillImage" /><dc:title></dc:title></cc:Work></rdf:RDF></metadata><defs
     id="defs8098" /><sodipodi:namedview
     inkscape:current-layer="g8102"
     inkscape:window-maximized="1"
     inkscape:window-y="-9"
     inkscape:window-x="-9"
     inkscape:cy="303.74204"
     inkscape:cx="697.75324"
     inkscape:zoom="1.1270917"
     fit-margin-bottom="0"
     fit-margin-right="0"
     fit-margin-left="0"
     fit-margin-top="0"
     showgrid="false"
     id="namedview8096"
     inkscape:window-height="1361"
     inkscape:window-width="2560"
     inkscape:pageshadow="2"
     inkscape:pageopacity="0"
     guidetolerance="10"
     gridtolerance="10"
     objecttolerance="10"
     borderopacity="1"
     bordercolor="#666666"
     pagecolor="#ffffff" /><g
     transform="matrix(1.3333333,0,0,-1.3333333,-138.91338,661.07536)"
     inkscape:label="ink_ext_XXXXXX"
     inkscape:groupmode="layer"
     id="g8102"><path
       d="m 163.2,58.2676 h 972 v 437.288 h -972 z"
       style="fill:#ffffff;fill-opacity:1;fill-rule:nonzero;stroke:none;stroke-width:0.1"
       id="path8110" /><g
       id="g8112"
       transform="scale(0.0999442,-0.100056)"><path
         d="M 1632.91,-582.351 H 11358.3"
         style="fill:none;stroke:#262626;stroke-width:5.00079;stroke-linecap:square;stroke-linejoin:round;stroke-miterlimit:10;stroke-dasharray:none;stroke-opacity:1"
         id="path8114" /></g><g
       id="g8116"
       transform="scale(0.0999442,-0.100056)"><path
         d="M 1632.91,-4952.79 H 11358.3"
         style="fill:none;stroke:#262626;stroke-width:5.00079;stroke-linecap:square;stroke-linejoin:round;stroke-miterlimit:10;stroke-dasharray:none;stroke-opacity:1"
         id="path8118" /></g><g
       id="g8120"
       transform="scale(0.0999442,-0.100056)"><path
         d="m 1632.91,-582.351 v -97.254"
         style="fill:none;stroke:#262626;stroke-width:5.00079;stroke-linecap:square;stroke-linejoin:round;stroke-miterlimit:10;stroke-dasharray:none;stroke-opacity:1"
         id="path8122" /></g><g
       id="g8124"
       transform="scale(0.0999442,-0.100056)"><path
         d="m 3013.24,-582.351 v -97.254"
         style="fill:none;stroke:#262626;stroke-width:5.00079;stroke-linecap:square;stroke-linejoin:round;stroke-miterlimit:10;stroke-dasharray:none;stroke-opacity:1"
         id="path8126" /></g><g
       id="g8128"
       transform="scale(0.0999442,-0.100056)"><path
         d="m 4393.38,-582.351 v -97.254"
         style="fill:none;stroke:#262626;stroke-width:5.00079;stroke-linecap:square;stroke-linejoin:round;stroke-miterlimit:10;stroke-dasharray:none;stroke-opacity:1"
         id="path8130" /></g><g
       id="g8132"
       transform="scale(0.0999442,-0.100056)"><path
         d="m 5773.72,-582.351 v -97.254"
         style="fill:none;stroke:#262626;stroke-width:5.00079;stroke-linecap:square;stroke-linejoin:round;stroke-miterlimit:10;stroke-dasharray:none;stroke-opacity:1"
         id="path8134" /></g><g
       id="g8136"
       transform="scale(0.0999442,-0.100056)"><path
         d="m 7154.05,-582.351 v -97.254"
         style="fill:none;stroke:#262626;stroke-width:5.00079;stroke-linecap:square;stroke-linejoin:round;stroke-miterlimit:10;stroke-dasharray:none;stroke-opacity:1"
         id="path8138" /></g><g
       id="g8140"
       transform="scale(0.0999442,-0.100056)"><path
         d="m 8534.38,-582.351 v -97.254"
         style="fill:none;stroke:#262626;stroke-width:5.00079;stroke-linecap:square;stroke-linejoin:round;stroke-miterlimit:10;stroke-dasharray:none;stroke-opacity:1"
         id="path8142" /></g><g
       id="g8144"
       transform="scale(0.0999442,-0.100056)"><path
         d="m 9914.71,-582.351 v -97.254"
         style="fill:none;stroke:#262626;stroke-width:5.00079;stroke-linecap:square;stroke-linejoin:round;stroke-miterlimit:10;stroke-dasharray:none;stroke-opacity:1"
         id="path8146" /></g><g
       id="g8148"
       transform="scale(0.0999442,-0.100056)"><path
         d="m 11295,-582.351 v -97.254"
         style="fill:none;stroke:#262626;stroke-width:5.00079;stroke-linecap:square;stroke-linejoin:round;stroke-miterlimit:10;stroke-dasharray:none;stroke-opacity:1"
         id="path8150" /></g><g
       id="g8152"
       transform="scale(0.0999442,-0.100056)"><path
         d="m 1632.91,-4952.79 v 97.26"
         style="fill:none;stroke:#262626;stroke-width:5.00079;stroke-linecap:square;stroke-linejoin:round;stroke-miterlimit:10;stroke-dasharray:none;stroke-opacity:1"
         id="path8154" /></g><g
       id="g8156"
       transform="scale(0.0999442,-0.100056)"><path
         d="m 3013.24,-4952.79 v 97.26"
         style="fill:none;stroke:#262626;stroke-width:5.00079;stroke-linecap:square;stroke-linejoin:round;stroke-miterlimit:10;stroke-dasharray:none;stroke-opacity:1"
         id="path8158" /></g><g
       id="g8160"
       transform="scale(0.0999442,-0.100056)"><path
         d="m 4393.38,-4952.79 v 97.26"
         style="fill:none;stroke:#262626;stroke-width:5.00079;stroke-linecap:square;stroke-linejoin:round;stroke-miterlimit:10;stroke-dasharray:none;stroke-opacity:1"
         id="path8162" /></g><g
       id="g8164"
       transform="scale(0.0999442,-0.100056)"><path
         d="m 5773.72,-4952.79 v 97.26"
         style="fill:none;stroke:#262626;stroke-width:5.00079;stroke-linecap:square;stroke-linejoin:round;stroke-miterlimit:10;stroke-dasharray:none;stroke-opacity:1"
         id="path8166" /></g><g
       id="g8168"
       transform="scale(0.0999442,-0.100056)"><path
         d="m 7154.05,-4952.79 v 97.26"
         style="fill:none;stroke:#262626;stroke-width:5.00079;stroke-linecap:square;stroke-linejoin:round;stroke-miterlimit:10;stroke-dasharray:none;stroke-opacity:1"
         id="path8170" /></g><g
       id="g8172"
       transform="scale(0.0999442,-0.100056)"><path
         d="m 8534.38,-4952.79 v 97.26"
         style="fill:none;stroke:#262626;stroke-width:5.00079;stroke-linecap:square;stroke-linejoin:round;stroke-miterlimit:10;stroke-dasharray:none;stroke-opacity:1"
         id="path8174" /></g><g
       id="g8176"
       transform="scale(0.0999442,-0.100056)"><path
         d="m 9914.71,-4952.79 v 97.26"
         style="fill:none;stroke:#262626;stroke-width:5.00079;stroke-linecap:square;stroke-linejoin:round;stroke-miterlimit:10;stroke-dasharray:none;stroke-opacity:1"
         id="path8178" /></g><g
       id="g8180"
       transform="scale(0.0999442,-0.100056)"><path
         d="m 11295,-4952.79 v 97.26"
         style="fill:none;stroke:#262626;stroke-width:5.00079;stroke-linecap:square;stroke-linejoin:round;stroke-miterlimit:10;stroke-dasharray:none;stroke-opacity:1"
         id="path8182" /></g><g
       id="g8184"><text
         transform="matrix(0.998885,0,0,-1,143.1,34.0383)"
         style="font-variant:normal;font-weight:normal;font-size:18.0201px;font-family:Helvetica;-inkscape-font-specification:Helvetica;writing-mode:lr-tb;fill:#262626;fill-opacity:1;fill-rule:nonzero;stroke:none"
         id="text8188"><tspan
           x="0 10.019176 20.038351 30.057528 138.10983 148.12901 158.14818 168.16736 276.20129 286.22046 296.23962 306.25882 414.31128 424.33047 434.34964 444.3688 552.42169 562.44086 572.46002 582.47919 690.53168 700.55084 710.57001 720.58917 828.64185 838.66101 848.68024 858.6994 966.75171 976.77087 986.79004 996.8092"
           y="0"
           sodipodi:role="line"
           id="tspan8186">18801900192019401960198020002020</tspan></text><text
         transform="matrix(0.998885,0,0,-1,614.40091,8.4094)"
         style="font-variant:normal;font-weight:normal;font-size:19.8221px;font-family:Helvetica;-inkscape-font-specification:Helvetica;writing-mode:lr-tb;fill:#262626;fill-opacity:1;fill-rule:nonzero;stroke:none"
         id="text8192"><tspan
           x="0 16.511808 27.532896 38.553986 44.064529 55.085617 59.486122"
           y="0"
           sodipodi:role="line"
           id="tspan8190">Monthly</tspan></text></g><g
       id="g8194"
       transform="scale(0.0999442,-0.100056)"><path
         d="M 1632.91,-582.351 V -4952.79"
         style="fill:none;stroke:#262626;stroke-width:5.00079;stroke-linecap:square;stroke-linejoin:round;stroke-miterlimit:10;stroke-dasharray:none;stroke-opacity:1"
         id="path8196" /></g><g
       id="g8198"
       transform="scale(0.0999442,-0.100056)"><path
         d="M 11358.3,-582.351 V -4952.79"
         style="fill:none;stroke:#262626;stroke-width:5.00079;stroke-linecap:square;stroke-linejoin:round;stroke-miterlimit:10;stroke-dasharray:none;stroke-opacity:1"
         id="path8200" /></g><g
       id="g8202"
       transform="scale(0.0999442,-0.100056)"><path
         d="m 1632.91,-602.394 h 97.25"
         style="fill:none;stroke:#262626;stroke-width:5.00079;stroke-linecap:square;stroke-linejoin:round;stroke-miterlimit:10;stroke-dasharray:none;stroke-opacity:1"
         id="path8204" /></g><g
       id="g8206"
       transform="scale(0.0999442,-0.100056)"><path
         d="m 1632.91,-1003.35 h 97.25"
         style="fill:none;stroke:#262626;stroke-width:5.00079;stroke-linecap:square;stroke-linejoin:round;stroke-miterlimit:10;stroke-dasharray:none;stroke-opacity:1"
         id="path8208" /></g><g
       id="g8210"
       transform="scale(0.0999442,-0.100056)"><path
         d="m 1632.91,-1404.31 h 97.25"
         style="fill:none;stroke:#262626;stroke-width:5.00079;stroke-linecap:square;stroke-linejoin:round;stroke-miterlimit:10;stroke-dasharray:none;stroke-opacity:1"
         id="path8212" /></g><g
       id="g8214"
       transform="scale(0.0999442,-0.100056)"><path
         d="m 1632.91,-1805.27 h 97.25"
         style="fill:none;stroke:#262626;stroke-width:5.00079;stroke-linecap:square;stroke-linejoin:round;stroke-miterlimit:10;stroke-dasharray:none;stroke-opacity:1"
         id="path8216" /></g><g
       id="g8218"
       transform="scale(0.0999442,-0.100056)"><path
         d="m 1632.91,-2206.23 h 97.25"
         style="fill:none;stroke:#262626;stroke-width:5.00079;stroke-linecap:square;stroke-linejoin:round;stroke-miterlimit:10;stroke-dasharray:none;stroke-opacity:1"
         id="path8220" /></g><g
       id="g8222"
       transform="scale(0.0999442,-0.100056)"><path
         d="m 1632.91,-2607.18 h 97.25"
         style="fill:none;stroke:#262626;stroke-width:5.00079;stroke-linecap:square;stroke-linejoin:round;stroke-miterlimit:10;stroke-dasharray:none;stroke-opacity:1"
         id="path8224" /></g><g
       id="g8226"
       transform="scale(0.0999442,-0.100056)"><path
         d="m 1632.91,-3008.14 h 97.25"
         style="fill:none;stroke:#262626;stroke-width:5.00079;stroke-linecap:square;stroke-linejoin:round;stroke-miterlimit:10;stroke-dasharray:none;stroke-opacity:1"
         id="path8228" /></g><g
       id="g8230"
       transform="scale(0.0999442,-0.100056)"><path
         d="m 1632.91,-3409.1 h 97.25"
         style="fill:none;stroke:#262626;stroke-width:5.00079;stroke-linecap:square;stroke-linejoin:round;stroke-miterlimit:10;stroke-dasharray:none;stroke-opacity:1"
         id="path8232" /></g><g
       id="g8234"
       transform="scale(0.0999442,-0.100056)"><path
         d="m 1632.91,-3810.06 h 97.25"
         style="fill:none;stroke:#262626;stroke-width:5.00079;stroke-linecap:square;stroke-linejoin:round;stroke-miterlimit:10;stroke-dasharray:none;stroke-opacity:1"
         id="path8236" /></g><g
       id="g8238"
       transform="scale(0.0999442,-0.100056)"><path
         d="m 1632.91,-4211.01 h 97.25"
         style="fill:none;stroke:#262626;stroke-width:5.00079;stroke-linecap:square;stroke-linejoin:round;stroke-miterlimit:10;stroke-dasharray:none;stroke-opacity:1"
         id="path8240" /></g><g
       id="g8242"
       transform="scale(0.0999442,-0.100056)"><path
         d="m 1632.91,-4611.97 h 97.25"
         style="fill:none;stroke:#262626;stroke-width:5.00079;stroke-linecap:square;stroke-linejoin:round;stroke-miterlimit:10;stroke-dasharray:none;stroke-opacity:1"
         id="path8244" /></g><g
       id="g8246"
       transform="scale(0.0999442,-0.100056)"><path
         d="m 11358.3,-602.394 h -97.2"
         style="fill:none;stroke:#262626;stroke-width:5.00079;stroke-linecap:square;stroke-linejoin:round;stroke-miterlimit:10;stroke-dasharray:none;stroke-opacity:1"
         id="path8248" /></g><g
       id="g8250"
       transform="scale(0.0999442,-0.100056)"><path
         d="m 11358.3,-1003.35 h -97.2"
         style="fill:none;stroke:#262626;stroke-width:5.00079;stroke-linecap:square;stroke-linejoin:round;stroke-miterlimit:10;stroke-dasharray:none;stroke-opacity:1"
         id="path8252" /></g><g
       id="g8254"
       transform="scale(0.0999442,-0.100056)"><path
         d="m 11358.3,-1404.31 h -97.2"
         style="fill:none;stroke:#262626;stroke-width:5.00079;stroke-linecap:square;stroke-linejoin:round;stroke-miterlimit:10;stroke-dasharray:none;stroke-opacity:1"
         id="path8256" /></g><g
       id="g8258"
       transform="scale(0.0999442,-0.100056)"><path
         d="m 11358.3,-1805.27 h -97.2"
         style="fill:none;stroke:#262626;stroke-width:5.00079;stroke-linecap:square;stroke-linejoin:round;stroke-miterlimit:10;stroke-dasharray:none;stroke-opacity:1"
         id="path8260" /></g><g
       id="g8262"
       transform="scale(0.0999442,-0.100056)"><path
         d="m 11358.3,-2206.23 h -97.2"
         style="fill:none;stroke:#262626;stroke-width:5.00079;stroke-linecap:square;stroke-linejoin:round;stroke-miterlimit:10;stroke-dasharray:none;stroke-opacity:1"
         id="path8264" /></g><g
       id="g8266"
       transform="scale(0.0999442,-0.100056)"><path
         d="m 11358.3,-2607.18 h -97.2"
         style="fill:none;stroke:#262626;stroke-width:5.00079;stroke-linecap:square;stroke-linejoin:round;stroke-miterlimit:10;stroke-dasharray:none;stroke-opacity:1"
         id="path8268" /></g><g
       id="g8270"
       transform="scale(0.0999442,-0.100056)"><path
         d="m 11358.3,-3008.14 h -97.2"
         style="fill:none;stroke:#262626;stroke-width:5.00079;stroke-linecap:square;stroke-linejoin:round;stroke-miterlimit:10;stroke-dasharray:none;stroke-opacity:1"
         id="path8272" /></g><g
       id="g8274"
       transform="scale(0.0999442,-0.100056)"><path
         d="m 11358.3,-3409.1 h -97.2"
         style="fill:none;stroke:#262626;stroke-width:5.00079;stroke-linecap:square;stroke-linejoin:round;stroke-miterlimit:10;stroke-dasharray:none;stroke-opacity:1"
         id="path8276" /></g><g
       id="g8278"
       transform="scale(0.0999442,-0.100056)"><path
         d="m 11358.3,-3810.06 h -97.2"
         style="fill:none;stroke:#262626;stroke-width:5.00079;stroke-linecap:square;stroke-linejoin:round;stroke-miterlimit:10;stroke-dasharray:none;stroke-opacity:1"
         id="path8280" /></g><g
       id="g8282"
       transform="scale(0.0999442,-0.100056)"><path
         d="m 11358.3,-4211.01 h -97.2"
         style="fill:none;stroke:#262626;stroke-width:5.00079;stroke-linecap:square;stroke-linejoin:round;stroke-miterlimit:10;stroke-dasharray:none;stroke-opacity:1"
         id="path8284" /></g><g
       id="g8286"
       transform="scale(0.0999442,-0.100056)"><path
         d="m 11358.3,-4611.97 h -97.2"
         style="fill:none;stroke:#262626;stroke-width:5.00079;stroke-linecap:square;stroke-linejoin:round;stroke-miterlimit:10;stroke-dasharray:none;stroke-opacity:1"
         id="path8288" /></g><g
       id="g8290"><text
         transform="matrix(0.998885,0,0,-1,126.4,53.0633)"
         style="font-variant:normal;font-weight:normal;font-size:18.0201px;font-family:Helvetica;-inkscape-font-specification:Helvetica;writing-mode:lr-tb;fill:#262626;fill-opacity:1;fill-rule:nonzero;stroke:none"
         id="text8314"><tspan
           x="0 6.0006933 16.019869 21.029457"
           y="0"
           sodipodi:role="line"
           id="tspan8292">-0.8</tspan><tspan
           x="0 6.0006933 16.019869 21.029457"
           y="-40.118"
           sodipodi:role="line"
           id="tspan8294">-0.6</tspan><tspan
           x="0 6.0006933 16.019869 21.029457"
           y="-80.236397"
           sodipodi:role="line"
           id="tspan8296">-0.4</tspan><tspan
           x="0 6.0006933 16.019869 21.029457"
           y="-120.3548"
           sodipodi:role="line"
           id="tspan8298">-0.2</tspan><tspan
           x="21.023399"
           y="-160.47321"
           id="tspan8300">0</tspan><tspan
           x="6.0067 16.025875 21.035463"
           y="-200.5916"
           sodipodi:role="line"
           id="tspan8302">0.2</tspan><tspan
           x="6.0067 16.025875 21.035463"
           y="-240.71001"
           sodipodi:role="line"
           id="tspan8304">0.4</tspan><tspan
           x="6.0067 16.025875 21.035463"
           y="-280.8284"
           sodipodi:role="line"
           id="tspan8306">0.6</tspan><tspan
           x="6.0067 16.025875 21.035463"
           y="-320.94681"
           sodipodi:role="line"
           id="tspan8308">0.8</tspan><tspan
           x="21.023399"
           y="-361.06519"
           id="tspan8310">1</tspan><tspan
           x="6.0067 16.025875 21.035463"
           y="-401.18359"
           sodipodi:role="line"
           id="tspan8312">1.2</tspan></text><text
         transform="matrix(0,1,0.99888125,0,118.6,173.295)"
         style="font-variant:normal;font-weight:normal;font-size:19.8222px;font-family:Helvetica;-inkscape-font-specification:Helvetica;writing-mode:lr-tb;fill:#262626;fill-opacity:1;fill-rule:nonzero;stroke:none"
         id="text8318"><tspan
           x="0 16.511873 27.533003 38.554131 49.575264 55.085827 67.197174 78.218307 94.730179 105.75131 116.77244 123.37322 134.39435 139.90492 150.92604 157.52684 168.54796 174.05853 179.56909 185.07965 193.00853"
           y="0"
           sodipodi:role="line"
           id="tspan8316">Mean Temperature / °C</tspan></text></g><g
       transform="translate(1.3308589,-37.929479)"
       id="g8320"><text
         transform="matrix(0.998885,0,0,-1,425.701,503.364)"
         style="font-variant:normal;font-weight:bold;font-size:20.0221px;font-family:Helvetica;-inkscape-font-specification:Helvetica-Bold;writing-mode:lr-tb;fill:#000000;fill-opacity:1;fill-rule:nonzero;stroke:none"
         id="text8324"><tspan
           x="0 16.67841 27.810698 38.942986 51.176487 56.74263 68.976135 74.542282 86.77578 99.009285 110.14157 115.70772 121.27386 127.94122 139.0735 156.87315 169.10666 180.23894 188.02754 199.15984 205.82719 218.06068 225.84929 236.98158 242.54771 253.68001 264.81229 275.94458 287.07687 293.74423 304.87653 316.00879 327.14108 338.27338 343.83951 350.5069 366.08408 371.65021 385.00497 397.23846 410.5932 427.27161 440.62634"
           y="0"
           sodipodi:role="line"
           id="tspan8322">Mean global temperature 1880-2020 (GISTEMP)</tspan></text></g><g
       id="g8326"
       transform="scale(0.0999442,-0.100056)"><path
         d="m 1632.91,-1865.42 5.86,120.3 5.48,-300.73 5.85,140.34 5.68,-140.34 5.85,240.58 5.67,-60.15 5.86,-160.38 5.85,80.19 5.67,180.43 5.86,-40.09 5.67,-80.19 5.86,40.1 5.86,-100.25 5.29,-340.81 5.86,-40.09 5.66,-40.1 5.86,501.19 5.67,-380.9 5.86,80.18 5.85,240.59 5.68,120.28 5.85,-60.15 5.67,-240.57 5.86,-461.1 5.85,60.15 5.3,180.43 5.85,421 5.67,-40.1 5.86,160.39 5.67,-120.29 5.86,-180.43 5.86,140.33 5.66,200.49 5.86,-160.39 5.67,380.91 5.86,-120.29 5.86,160.39 5.29,-501.2 5.86,120.28 5.66,-20.04 5.86,-180.43 5.67,-40.1 5.86,140.34 5.85,160.38 5.67,-200.48 5.86,240.57 5.67,-240.57 5.86,40.1 5.85,-100.24 5.48,581.39 5.87,60.14 5.66,-120.29 5.86,20.05 5.67,-40.09 5.86,-100.24 5.85,-20.06 5.67,-40.09 5.86,160.39 5.67,-40.1 5.85,561.34 5.86,-501.2 5.29,-160.38 5.86,320.77 5.67,60.14 5.86,-20.05 5.66,-200.48 5.86,-60.14 5.87,-40.1 5.66,-100.23 h 5.86 l 5.67,-280.68 5.86,681.63 5.85,140.34 5.29,-160.39 5.86,-300.71 5.67,-80.19 5.86,220.52 5.67,-340.82 5.86,260.63 5.85,-140.33 5.67,80.19 5.86,-20.06 5.67,-40.09 5.85,942.247 5.86,-300.707 5.29,-421.01 5.86,-20.05 5.67,-100.24 5.86,-100.24 5.66,20.05 5.86,180.43 5.86,-180.43 5.67,200.48 5.86,-200.48 5.66,140.34 5.87,20.04 5.85,40.1 5.48,120.29 5.86,-421.01 5.67,20.05 5.86,-80.2 5.66,-140.33 5.86,100.24 5.86,-80.19 5.67,-260.62 5.86,-20.05 5.66,120.29 5.86,100.23 5.86,-501.19 5.29,220.53 5.85,-80.2 5.68,200.48 5.85,200.48 5.68,-60.14 5.85,260.62 5.86,80.19 5.67,20.05 5.86,160.38 5.66,-100.24 5.86,260.63 5.86,60.14 5.29,-80.19 5.86,-220.53 5.66,200.48 5.86,-300.72 5.67,60.15 5.86,220.53 5.86,-40.1 5.67,-240.58 5.86,360.86 5.66,-240.57 5.86,80.19 5.85,240.57 5.3,-561.33 5.85,180.43 5.68,-220.53 5.85,80.19 5.67,-60.15 h 5.86 l 5.86,-40.09 5.66,140.33 5.86,180.44 5.67,-541.3 5.86,481.15 5.86,-360.86 5.48,601.44 5.85,-140.34 5.68,-200.47 5.85,-20.06 5.67,180.44 5.86,-80.19 5.86,-220.53 5.66,-40.09 5.86,541.29 5.67,-60.14 5.86,862.049 5.86,-481.149 5.29,-701.68 5.86,100.25 5.66,120.28 5.86,-160.38 5.67,-240.58 5.86,220.53 5.85,-40.1 5.67,-80.18 h 5.86 l 5.67,260.62 5.86,421 5.85,-461.1 5.3,-120.28 5.85,421 5.67,-280.67 5.86,200.48 5.66,-340.81 h 5.86 l 5.87,80.19 5.66,-80.19 5.86,40.09 5.67,-100.24 5.86,400.96 5.86,40.09 5.28,-200.47 5.86,-220.53 5.67,100.23 5.86,-120.28 5.67,-80.19 h 5.86 l 5.85,-80.19 5.67,-40.1 5.86,120.29 5.67,-60.15 5.85,160.39 5.86,-180.43 5.48,280.66 5.86,80.2 5.67,-300.72 5.86,-100.24 5.67,-160.39 5.85,60.15 5.86,40.1 5.67,-280.68 5.86,220.53 h 5.67 l 5.85,220.53 5.86,40.09 5.29,-80.19 5.86,-220.53 5.67,-20.04 5.86,200.48 5.66,-180.44 5.86,140.34 5.86,-20.05 5.67,80.2 5.86,100.23 5.66,40.1 5.86,-360.86 5.86,561.34 5.29,421.01 5.86,-400.96 5.67,-20.05 5.86,-220.52 5.67,60.14 5.85,80.19 5.86,-80.19 5.67,260.62 5.86,60.14 5.67,-300.72 5.85,-140.33 5.86,461.11 5.29,-60.15 5.86,-300.72 5.66,40.09 5.86,180.44 5.67,-320.77 5.86,-140.34 5.86,-80.19 h 5.67 l 5.86,-360.86 5.67,781.87 5.85,200.48 5.86,-601.44 5.29,-120.29 5.86,180.43 h 5.67 l 5.86,20.05 5.66,60.15 5.87,-80.2 5.85,-80.19 5.67,-300.71 5.85,320.76 5.68,20.05 5.85,300.72 5.86,-220.53 5.29,-340.82 5.86,180.43 5.66,260.63 5.86,-80.19 5.67,60.15 5.86,120.28 5.86,20.05 5.67,140.33 5.85,-220.53 5.67,180.43 5.86,-180.43 5.85,-220.52 5.3,421.01 h 5.86 l 5.67,80.19 5.85,-40.1 5.67,-40.09 5.86,40.09 5.86,-20.05 h 5.66 l 5.86,120.29 5.67,120.29 5.86,-360.87 5.86,-340.81 5.29,320.77 5.86,380.91 5.66,-20.05 5.86,40.1 5.67,-140.34 5.86,200.48 5.86,100.24 5.67,-40.09 5.85,-120.29 5.67,160.38 5.86,260.617 5.86,-100.237 5.47,-200.47 5.86,40.09 5.67,40.1 5.86,-80.19 5.67,60.14 5.86,-40.1 5.86,140.33 5.67,-340.8 5.85,-441.06 5.67,320.77 5.86,40.09 5.85,481.15 5.3,-741.77 5.85,240.57 5.67,-80.19 5.86,-40.09 5.67,-20.06 5.85,-140.33 5.86,-20.04 5.67,120.28 5.86,-360.86 5.67,120.29 5.86,300.72 5.86,40.09 5.29,-220.52 5.85,-280.68 5.67,421.01 5.86,-120.29 5.67,60.14 5.86,-60.14 5.85,180.43 5.67,-180.43 5.86,340.82 5.67,-441.05 5.86,561.33 5.85,160.39 5.3,-481.16 5.85,200.49 5.67,180.43 5.86,-80.19 5.67,-140.34 5.85,-20.05 h 5.86 l 5.67,-220.53 5.86,461.11 5.67,20.04 5.85,-40.09 5.86,-240.57 5.49,441.05 5.85,-200.48 5.66,-140.34 h 5.86 l 5.67,-60.14 5.86,220.53 5.86,-200.48 5.67,160.38 5.86,160.39 5.67,-60.15 5.85,461.097 5.86,-521.237 5.29,180.43 5.86,80.19 5.67,-80.19 5.86,-60.14 5.67,-140.34 5.86,-240.57 5.85,120.29 5.67,20.04 5.85,-160.38 5.68,481.14 5.85,-280.66 h 5.86 l 5.29,180.43 5.86,-180.43 5.67,-160.39 5.85,80.19 5.67,-80.19 5.86,40.1 5.86,60.15 5.67,40.09 5.85,280.67 5.68,240.57 5.85,-100.237 5.86,-100.233 5.29,80.19 5.86,-160.39 5.67,-40.09 5.86,-20.05 5.66,-180.43 5.86,60.14 5.86,-60.14 5.67,-280.68 5.85,-120.28 h 5.68 l 5.85,80.19 5.86,-220.53 5.48,481.15 5.86,-421 5.67,80.19 5.86,40.09 5.66,380.92 5.86,240.57 5.86,80.19 5.67,-20.04 5.85,-360.86 5.67,80.18 5.86,-60.14 5.86,100.24 5.29,-40.1 5.85,-60.14 5.67,80.19 5.86,20.05 5.67,-180.43 5.86,-40.1 5.86,20.05 5.67,-40.09 5.85,-260.63 5.67,-360.86 5.86,-140.33 5.86,300.71 5.29,280.68 5.86,100.23 5.67,-160.38 5.85,100.24 5.67,-40.09 5.85,-160.39 5.86,20.05 5.68,-260.62 5.85,220.53 5.67,-220.53 5.86,340.81 5.86,-340.81 5.29,120.28 5.85,-320.77 5.67,240.58 5.86,320.77 5.67,-200.48 5.86,200.48 5.85,-20.05 5.67,80.19 5.86,-240.57 5.67,180.43 5.86,-200.48 5.85,60.15 5.49,260.62 5.85,60.14 5.67,60.14 5.86,300.72 5.67,-240.57 5.86,-180.43 5.85,160.38 5.67,-60.14 5.86,260.62 5.67,721.719 5.86,-481.149 5.85,100.237 5.3,20.051 5.85,-180.428 h 5.67 l 5.86,-240.58 5.67,-360.86 5.85,-60.14 5.86,20.04 5.67,421.01 5.86,-220.52 5.67,681.62 5.85,-380.9 5.86,-280.68 5.29,-180.43 5.86,380.91 5.67,-20.05 5.86,-140.33 5.67,-80.19 h 5.86 l 5.85,-280.68 5.67,-240.57 5.86,120.29 5.67,360.86 5.86,-180.43 5.85,60.15 5.29,-40.1 5.86,-180.43 5.67,300.72 5.85,160.38 5.68,-140.34 5.85,80.2 5.86,-140.34 5.67,-120.29 5.86,421.01 5.67,20.05 5.85,-340.82 5.86,40.09 5.48,-280.66 5.86,220.53 5.67,60.13 5.85,180.44 5.68,-120.29 5.85,-60.15 5.86,-100.23 5.67,100.23 h 5.85 l 5.67,380.92 5.86,-821.97 5.86,260.62 5.29,100.24 5.86,140.34 5.67,20.05 5.86,-60.14 5.66,-260.62 5.86,220.52 5.86,-120.29 5.67,-320.76 5.85,200.47 5.67,80.19 5.86,300.73 5.86,240.57 5.29,-601.43 5.85,160.37 5.67,220.53 5.86,-60.14 5.67,-60.14 5.86,100.24 5.86,60.14 5.67,-60.14 5.85,-360.86 5.67,80.19 5.86,180.43 5.86,240.57 5.29,-120.29 5.86,140.34 5.67,-140.34 5.86,-100.24 5.66,40.1 5.86,40.1 5.85,-20.05 5.68,-360.87 5.85,-220.53 5.67,40.1 5.86,360.86 5.86,20.06 5.48,-300.73 5.86,441.06 5.66,-240.57 5.86,140.33 5.67,60.14 5.86,140.34 5.85,-60.14 5.68,60.14 5.85,-300.72 5.67,441.05 5.85,-80.18 5.86,40.09 5.3,-260.62 5.85,-40.1 5.67,60.14 5.86,80.2 5.67,-120.3 5.86,-140.33 h 5.86 l 5.66,-60.14 5.86,-421.01 5.67,-40.1 5.86,-280.66 5.86,360.86 5.29,-160.38 5.86,461.1 5.66,220.53 5.86,40.09 5.67,40.1 5.86,-280.68 5.85,20.06 5.67,-60.15 5.86,-100.24 5.67,461.1 5.86,-40.09 5.85,-180.43 5.29,400.96 5.86,-160.39 5.67,-100.24 5.86,40.1 5.67,-180.43 5.86,120.28 5.86,-240.57 5.66,-220.53 5.86,80.19 5.67,561.34 5.86,-641.53 5.85,160.38 5.48,320.77 5.86,40.1 5.67,40.09 5.86,180.44 5.66,-380.92 5.86,60.14 5.86,-20.04 5.67,-40.1 5.86,-200.48 5.67,140.34 5.86,561.34 5.85,280.67 5.29,-521.24 5.86,180.43 5.67,-60.14 5.85,100.23 5.68,-140.33 5.85,-80.19 5.86,-140.34 5.67,-220.52 5.86,-80.2 5.66,882.11 5.86,-501.2 5.86,-60.15 5.29,-320.76 5.86,300.72 5.67,-20.05 5.86,-40.1 5.66,-20.04 5.86,-120.29 h 5.86 l 5.67,-60.14 5.86,-601.44 5.66,461.1 5.86,100.24 5.86,220.53 5.29,-220.53 5.85,260.63 5.68,-80.2 5.85,-220.53 5.68,-100.23 5.85,20.04 5.86,60.15 5.67,-240.58 5.86,200.48 h 5.66 l 5.86,-400.95 5.86,641.52 5.48,20.06 5.85,-240.58 5.68,220.52 5.85,240.58 5.68,-80.19 5.85,-60.15 5.86,-220.52 5.67,-40.1 5.86,360.87 5.66,-20.06 5.86,-60.13 5.86,120.28 5.29,20.05 5.86,-120.29 5.66,100.24 5.86,100.24 5.67,-260.62 5.86,60.14 5.86,100.24 5.67,-80.19 5.86,120.29 5.66,260.62 5.86,-461.1 5.86,-380.92 5.29,541.3 5.85,20.05 5.68,-421.01 5.85,100.25 5.68,-80.2 5.85,40.1 5.86,60.14 5.66,-160.38 5.86,-220.53 5.67,120.28 5.86,621.49 5.86,-942.25 5.29,561.35 5.86,441.05 5.66,-140.34 5.86,-40.09 5.67,-120.29 h 5.86 5.85 l 5.67,-300.72 5.86,400.95 5.67,-180.43 5.86,200.49 5.85,220.53 5.49,-340.82 5.86,-20.05 5.66,-80.19 5.86,100.24 5.67,-220.53 5.86,60.14 5.85,-80.19 5.67,-120.28 5.86,-80.2 5.67,40.1 5.86,120.29 5.85,-200.48 5.29,461.1 5.86,-100.24 5.67,-200.48 h 5.86 l 5.66,-40.09 5.86,-100.24 5.87,-140.34 h 5.66 l 5.86,20.05 5.67,300.72 5.86,-300.72 5.86,100.24 5.28,-120.29 5.86,60.15 5.67,300.71 5.86,160.38 5.67,-160.38 5.86,-80.19 5.85,-100.24 5.67,-300.71 5.86,140.33 5.67,400.96 5.85,-140.34 5.86,40.1 5.29,220.53 5.86,-180.44 5.67,-100.24 5.86,60.15 5.66,-20.05 h 5.86 l 5.86,20.05 5.67,-60.15 5.86,-220.53 5.66,-741.76 5.87,882.1 5.85,-160.38 5.48,-20.05 5.86,-160.38 5.67,120.29 h 5.86 l 5.66,-20.05 5.86,100.23 5.86,-160.37 5.67,80.19 5.86,-120.29 5.66,-300.72 5.86,280.67 5.86,-260.62 5.29,421 5.86,-120.29 5.67,-20.04 5.85,80.19 5.68,-180.43 5.85,140.34 5.86,260.62 5.67,-661.58 5.86,260.62 5.66,20.05 5.86,-160.38 5.86,541.29 5.29,-60.15 5.86,-80.19 5.66,-40.09 5.86,120.28 5.67,100.24 5.86,80.19 5.86,-20.04 5.67,-80.2 5.86,-180.43 5.66,-60.14 5.86,280.67 5.86,-360.86 5.29,421 5.86,-300.71 5.67,80.18 5.85,240.58 5.68,-260.62 5.85,140.33 5.86,-80.19 5.66,-360.86 5.86,60.15 5.67,-80.2 5.86,-240.57 5.86,240.57 5.48,-40.09 5.85,140.33 h 5.68 l 5.85,80.2 5.67,-60.15 h 5.86 l 5.86,-200.48 5.66,40.1 5.86,300.72 5.67,140.33 5.86,-120.29 5.86,200.48 5.29,-120.28 5.86,-260.63 5.66,260.63 5.86,120.28 5.67,-60.14 5.86,-461.1 5.86,120.29 5.66,40.09 5.86,220.52 5.67,280.68 5.86,-441.05 5.85,260.62 5.3,20.04 5.85,-80.19 5.68,240.58 5.85,280.67 5.67,-180.43 5.86,160.38 5.86,-240.58 h 5.66 l 5.86,-60.14 5.67,521.25 5.86,-481.15 5.86,20.04 5.28,-280.66 h 5.86 l 5.67,160.37 h 5.86 l 5.67,40.1 5.86,60.15 5.86,100.24 5.67,-380.92 5.85,80.2 5.67,320.76 5.85,-380.9 5.86,421 5.48,180.43 5.86,-240.57 5.67,-220.53 5.86,80.19 5.67,120.29 5.85,20.05 5.86,40.1 5.67,-180.44 5.86,140.34 5.67,220.53 5.85,-601.45 5.86,421.02 5.29,-240.59 5.86,180.44 5.67,-20.05 5.86,340.82 5.66,-280.68 h 5.86 l 5.86,20.06 5.67,-160.39 5.86,80.19 5.67,160.39 5.85,160.37 5.86,20.06 5.29,-380.92 5.86,260.63 5.67,-200.48 5.86,-120.29 5.67,80.19 5.86,140.34 5.85,-100.24 5.67,180.43 5.86,280.67 5.67,-260.62 5.85,260.62 5.86,140.34 5.29,-421.01 5.86,-120.28 5.66,-280.68 5.86,140.34 5.67,-120.29 5.86,-140.33 5.86,20.04 5.67,-60.14 5.86,180.43 5.67,-340.82 5.85,80.2 5.86,20.05 5.48,380.9 5.86,-220.52 5.66,120.29 h 5.86 l 5.67,-140.34 5.86,-20.05 5.86,-40.1 5.67,140.34 5.86,260.62 5.67,-220.53 5.85,-180.43 5.86,-160.37 5.29,80.19 5.86,-160.39 5.67,160.39 5.86,-20.05 5.66,220.52 5.86,-80.19 5.86,20.05 5.67,-80.19 5.85,220.53 5.68,-160.39 5.85,581.39 5.86,-280.67 5.29,100.24 5.86,-20.04 5.66,120.28 5.86,-40.09 5.67,20.04 5.86,-40.1 5.86,-140.33 5.67,-160.39 5.85,-200.47 5.67,521.25 5.86,-621.49 5.85,581.39 5.3,320.77 5.86,-200.49 5.67,-40.09 5.85,-120.28 5.67,-60.15 5.86,-260.62 5.86,260.62 5.66,-120.29 5.86,400.96 5.67,60.14 5.86,-320.76 5.86,240.57 5.48,-60.14 5.85,120.29 5.68,40.09 5.85,-260.62 5.67,-140.34 5.85,340.81 5.86,-140.33 5.67,80.2 5.86,-160.39 5.67,-180.43 5.86,60.14 5.86,-120.28 5.28,40.09 5.86,-100.24 5.67,-180.43 5.86,-120.28 5.67,260.62 5.86,-260.62 5.86,120.28 5.66,160.38 5.86,-140.33 5.67,-140.33 5.86,-481.15 5.85,340.81 5.3,280.67 5.85,140.33 5.67,-100.23 5.86,300.71 5.67,-280.67 5.85,200.48 5.86,-60.15 5.67,-120.28 5.86,40.1 5.67,20.04 5.85,-140.33 5.86,20.04 5.3,-220.52 5.85,40.09 5.67,240.58 5.86,20.05 h 5.67 l 5.86,80.19 5.85,100.24 5.67,20.05 5.86,20.04 5.67,-140.33 5.86,-20.05 5.85,-260.62 5.48,962.3 5.86,-400.96 5.67,-140.34 5.86,-80.19 h 5.67 l 5.86,-120.28 5.85,-100.25 5.67,20.06 5.86,340.81 5.67,-601.44 5.85,240.57 5.86,-240.57 5.29,200.48 5.86,-80.19 5.67,20.05 5.85,20.05 5.67,200.47 h 5.86 l 5.86,-160.38 5.67,180.43 5.86,-60.14 5.67,380.91 5.85,-421.01 5.86,-200.47 5.29,100.23 5.86,100.24 5.67,220.53 5.86,-180.43 5.66,20.05 5.87,60.14 5.85,-20.05 5.67,-20.05 5.85,-100.23 5.68,180.43 h 5.85 l 5.86,-421.01 5.29,641.54 5.86,-140.34 5.67,-20.05 5.85,-220.53 5.67,-20.04 5.86,-320.77 5.86,80.19 5.67,80.19 5.85,-20.04 5.67,360.86 5.86,120.28 5.86,20.05 5.47,220.53 5.87,220.53 5.66,-140.34 5.86,-421.01 h 5.67 l 5.86,360.86 5.86,160.39 5.67,40.1 5.85,-220.53 5.67,180.43 5.86,-441.06 5.86,180.43 5.29,-80.19 5.86,120.29 5.67,-140.33 5.86,-80.2 5.66,100.24 5.86,-180.43 5.85,220.53 5.68,-200.48 5.85,20.05 5.67,40.09 5.86,220.53 5.86,-300.72 5.29,-160.38 5.85,340.81 5.67,-20.04 5.86,-260.63 5.67,-140.33 5.86,340.81 5.86,-120.28 5.66,260.62 5.86,-300.72 5.67,20.04 5.86,100.25 5.86,280.67 5.29,-521.25 5.85,200.48 5.67,-340.81 5.86,400.95 5.67,-200.47 5.86,20.04 5.85,140.34 5.67,-300.72 5.86,280.67 h 5.67 l 5.85,421 5.86,-240.56 5.49,-681.63 5.85,521.24 5.67,160.39 5.86,-100.25 5.67,80.19 5.85,-80.19 5.86,200.48 5.67,-561.34 5.86,280.67 5.67,200.48 5.85,-80.19 5.86,120.28 5.29,-360.86 5.86,-320.76 5.67,-20.05 5.86,300.72 5.67,140.33 5.86,-160.38 5.85,-100.24 5.67,-20.05 5.86,-40.09 5.67,-240.58 5.86,320.77 5.85,-280.67 5.29,320.77 5.86,20.04 5.67,180.43 5.85,-20.04 5.68,-80.2 5.85,220.53 5.86,-441.05 5.67,180.43 5.86,20.05 5.67,280.67 5.85,-200.49 5.86,280.68 5.29,40.1 5.86,-220.53 5.67,-40.1 5.86,240.57 5.66,-180.43 5.87,-140.33 5.85,100.24 5.67,-40.1 5.86,60.15 5.67,20.04 5.86,280.67 5.85,-80.18 5.48,-400.96 5.86,40.09 5.67,60.15 5.86,-140.34 5.66,60.14 5.86,-300.72 5.86,280.68 5.67,-120.29 5.86,120.29 5.66,-320.77 5.86,-220.52 5.86,-60.15 5.29,60.15 5.86,40.09 5.67,100.24 5.85,60.14 5.68,120.29 5.85,160.38 5.86,-80.19 5.67,-20.05 5.85,100.24 5.67,240.58 5.86,60.14 5.86,340.82 5.29,-441.06 5.86,120.29 5.67,-140.34 5.86,20.05 5.66,-40.09 5.86,-280.67 5.85,380.9 5.68,-60.14 5.85,40.1 5.67,20.04 5.86,-360.86 5.86,40.1 5.29,-80.19 5.85,160.38 5.68,-240.58 5.85,340.82 h 5.67 l 5.86,320.76 5.86,-280.66 5.67,160.38 5.85,120.28 h 5.67 l 5.86,-280.66 5.86,60.14 5.48,300.72 5.85,-280.67 5.67,280.67 5.86,-180.43 5.67,-40.1 5.86,40.1 5.85,-120.29 5.67,360.86 5.86,-360.86 5.67,-340.81 5.86,-140.34 5.86,-100.24 5.29,-40.1 5.86,-20.04 5.66,-140.34 5.86,120.29 5.67,140.34 5.86,40.09 5.85,320.77 5.67,-20.05 5.86,-260.63 5.67,260.63 5.85,-60.14 5.86,-80.2 5.3,-180.43 5.85,40.1 5.67,160.38 5.86,200.48 5.67,-100.24 5.86,340.81 5.86,-380.9 5.66,60.14 5.86,-220.53 5.67,120.29 h 5.86 l 5.86,360.86 5.29,-581.39 5.86,80.2 5.66,220.52 5.86,-200.48 5.67,200.48 5.86,-260.62 5.85,-160.39 5.67,-20.04 5.86,-40.1 5.67,-400.95 5.86,360.86 5.85,-200.48 5.48,200.48 h 5.87 l 5.66,-100.24 5.85,300.72 5.68,-40.1 5.86,60.14 5.85,-20.04 5.67,140.33 5.85,-340.81 5.67,160.38 5.86,-621.48 5.86,220.52 5.29,-120.28 5.86,320.76 5.67,140.33 5.86,-80.18 5.66,-60.15 5.86,-60.14 5.86,400.96 5.67,60.14 5.86,-220.53 5.67,-360.86 5.86,721.72 5.85,-200.47 5.29,240.57 5.86,-240.57 5.67,-60.15 5.85,240.58 5.68,-180.43 5.85,220.52 5.86,-200.48 5.67,20.05 5.86,-100.24 5.66,-501.2 5.86,-200.47 5.86,200.47 5.29,20.05 5.86,280.67 5.67,-120.29 5.86,220.53 5.66,100.24 5.86,-340.81 5.86,-40.1 5.67,400.96 5.86,-260.62 5.66,260.62 5.86,-280.67 5.86,340.81 5.48,-240.57 5.86,400.96 5.66,-541.3 5.86,621.49 5.67,-340.82 h 5.86 l 5.86,-40.09 5.67,140.33 5.86,140.33 5.66,220.53 5.86,-521.24 5.86,521.24 5.29,-421 5.85,100.24 5.68,-60.14 h 5.85 l 5.68,220.52 5.85,-260.62 5.86,80.19 5.66,20.05 5.87,140.33 5.66,-180.43 5.86,-240.57 5.86,-220.53 5.29,140.34 5.86,160.38 5.66,20.05 5.86,180.43 5.67,20.05 5.86,-100.25 5.86,260.63 5.66,-240.57 5.87,100.23 5.66,-60.14 5.86,-380.91 5.85,-220.53 5.3,481.15 5.85,-120.29 5.68,-20.04 5.85,-180.43 5.67,-100.24 5.86,300.71 5.86,-200.47 5.66,40.09 5.86,80.2 5.67,-340.82 5.86,-220.53 5.86,260.63 5.48,-160.39 5.85,180.43 5.67,-20.04 5.86,80.19 5.67,140.33 5.86,-120.28 5.86,40.09 5.66,-20.05 5.86,521.25 5.67,-340.81 5.86,340.81 5.86,-360.86 5.28,-120.29 5.87,140.34 5.66,240.57 h 5.86 l 5.67,-340.82 5.86,20.05 5.85,-40.09 5.67,120.29 5.86,200.47 5.67,-360.86 5.86,-100.24 5.85,-40.09 5.29,-721.73 5.86,481.15 5.67,200.48 5.86,160.38 5.66,-160.38 5.86,240.57 5.86,220.53 5.67,-441.05 5.86,-40.1 5.67,120.29 5.86,-40.1 5.86,-140.33 5.28,300.72 5.86,-320.77 5.67,340.81 5.86,-380.9 5.67,120.28 5.85,160.39 5.86,-100.24 5.67,300.72 5.86,-20.05 5.67,-40.1 5.85,-300.72 5.86,140.34 5.48,-160.38 5.86,421 5.67,-80.19 5.86,100.24 5.67,360.86 h 5.85 l 5.86,180.43 5.67,-140.33 5.86,60.14 5.67,-360.86 5.85,-280.67 5.86,-40.1 5.29,20.05 5.86,160.38 5.66,-20.04 5.87,120.28 5.66,-40.1 5.86,280.68 5.86,-20.05 5.67,-220.53 5.86,380.91 5.66,-280.67 5.86,-160.38 5.86,481.15 5.29,-541.29 5.86,-260.63 5.67,280.67 5.85,-320.76 5.68,280.67 5.85,160.38 5.86,-200.48 5.67,-200.48 5.86,-40.09 5.66,120.28 5.86,-280.67 5.86,-541.29 5.29,641.53 5.86,20.05 5.66,380.91 5.86,-340.81 5.67,-20.05 h 5.86 l 5.86,220.52 5.66,-260.62 5.87,60.15 5.66,380.9 5.86,20.05 5.85,-441.05 5.49,260.62 5.86,20.05 5.66,80.19 5.86,40.1 5.67,-200.48 5.86,-240.57 5.86,461.09 5.66,100.25 5.86,-380.91 5.67,40.09 5.86,140.34 5.85,-220.53 5.3,-220.53 5.85,360.86 h 5.68 l 5.85,-400.95 5.67,400.95 5.86,-160.38 5.86,-200.48 5.66,-180.43 5.86,-60.14 5.67,100.24 5.86,20.05 5.86,-601.44 5.28,501.19 h 5.87 l 5.66,-100.23 5.86,-180.44 5.67,220.53 h 5.86 l 5.86,481.15 h 5.66 l 5.86,-20.05 5.67,-240.57 5.86,120.29 5.85,-300.72 5.3,641.53 5.85,20.05 5.68,80.19 5.85,-180.43 5.67,-40.1 5.85,120.29 5.86,-120.29 5.67,80.19 5.86,-80.19 5.67,-60.14 5.86,320.76 5.86,-621.48 h 5.48 5.85 l 5.67,400.96 5.86,-80.19 5.67,20.05 5.85,-60.15 5.86,80.19 5.67,200.48 5.86,-40.09 5.66,40.09 5.86,-360.86 5.87,40.1 5.28,-240.58 5.89,100.24 5.6,-140.33 5.9,120.28 5.7,-140.33 5.8,180.43 5.9,-40.1 5.7,20.05 5.8,-441.05 5.7,340.81 5.8,-441.05 5.9,-20.05 5.3,-180.43 5.8,601.44 5.7,-100.25 5.9,200.49 5.6,-160.39 5.9,160.39 5.9,-200.49 5.6,180.44 5.9,-100.24 5.6,300.72 5.9,-621.49 5.9,340.82 5.3,-40.1 5.8,100.24 5.7,-120.29 5.8,260.63 5.7,-220.53 5.9,-120.29 5.8,60.14 5.7,-220.52 5.8,400.96 5.7,-441.06 5.9,340.82 5.8,-300.72 5.5,180.43 5.9,60.14 5.6,461.1 5.9,-120.28 5.7,340.81 5.8,-400.96 5.9,-60.14 5.7,-220.53 5.8,-240.57 5.7,441.05 5.8,-481.15 5.9,300.72 5.3,-300.72 5.8,140.34 5.7,100.23 5.9,-40.09 5.6,60.14 h 5.9 l 5.8,-180.43 5.7,-80.19 5.9,20.05 5.6,120.29 5.9,220.52 5.9,-320.76 5.3,200.47 5.8,280.68 5.7,-20.05 5.8,-320.77 5.7,220.53 5.9,-320.77 5.8,120.29 5.7,-100.24 5.8,-80.19 5.7,-100.24 5.9,-481.15 5.8,661.58 5.3,-60.14 5.9,-80.2 5.6,160.39 5.9,140.33 5.7,20.05 5.8,20.05 h 5.9 l 5.7,40.1 5.8,-20.05 5.7,180.43 5.8,380.91 5.9,-140.34 5.5,-741.77 5.8,421.01 5.7,100.24 5.9,-20.05 5.6,-200.48 5.9,260.62 5.8,-280.67 5.7,-120.29 5.9,-40.09 5.6,300.72 5.9,-220.53 5.9,240.58 5.2,-20.05 5.9,-140.34 5.7,-80.19 h 5.8 l 5.7,-180.43 5.9,120.29 5.8,-100.24 5.7,160.38 5.8,-320.77 5.7,260.63 5.9,-140.34 5.8,-180.43 5.3,-160.38 5.9,160.38 5.6,180.43 5.9,140.34 5.7,100.23 5.8,-100.23 5.9,100.23 5.7,-160.38 5.8,-220.52 5.7,741.77 5.8,-140.34 5.9,80.2 5.3,-340.82 h 5.8 l 5.7,260.62 5.9,-200.48 5.6,-180.43 5.9,-80.19 5.9,360.86 5.6,-180.43 5.9,140.34 5.6,-20.05 5.9,220.53 5.9,-20.05 5.4,-160.38 5.9,-280.68 5.7,-120.28 5.8,260.62 5.7,140.34 5.8,-100.25 5.9,-180.43 5.7,-140.33 5.8,20.05 5.7,501.2 5.9,-360.87 5.8,160.38 5.3,-100.23 5.9,260.62 5.6,-120.29 5.9,-160.38 5.7,160.38 5.8,-180.43 5.9,-160.38 5.7,180.43 5.8,-300.72 5.7,280.67 5.8,-120.29 5.9,421.01 5.3,-481.15 5.8,-40.1 5.7,-120.29 5.9,380.92 5.6,200.48 5.9,-481.15 5.8,-120.29 5.7,140.33 5.9,280.67 5.6,-240.57 5.9,-120.29 5.9,-120.28 5.3,-100.25 5.8,400.96 5.7,-80.19 5.8,-40.09 5.7,160.38 5.9,-140.34 5.8,-80.19 5.7,-481.14 5.8,60.14 5.7,-200.48 5.9,-20.05 5.8,-400.96 5.5,40.1 5.9,461.1 5.6,320.76 5.9,300.72 5.7,-80.19 5.8,-340.81 5.9,220.53 5.6,40.09 5.9,-40.09 5.7,100.23 5.8,-340.81 5.9,-240.57 5.3,-40.1 5.8,441.05 5.7,80.2 5.9,380.9 5.6,-200.47 5.9,-100.25 5.8,200.48 5.7,-260.62 5.9,40.1 5.6,-120.29 5.9,240.58 5.9,-60.15 5.2,-100.24 5.9,20.05 5.7,120.29 5.8,100.24 5.7,-100.24 5.9,140.33 5.8,-100.24 5.7,-421 5.8,380.91 5.7,-180.43 5.9,-40.1 5.8,-40.1 5.3,-441.04 5.9,320.76 5.6,320.76 5.9,-140.33 5.7,-40.1 5.8,20.05 5.9,20.05 5.7,-180.43 5.8,20.05 5.7,-160.38 5.8,-160.39 5.9,-180.43 5.5,160.39 5.8,80.18 5.7,240.58 5.9,200.48 5.6,40.09 5.9,60.14 5.8,-240.57 5.7,200.48 5.9,-441.05 5.6,601.43"
         style="fill:none;stroke:#99c2ff;stroke-width:1.99912;stroke-linecap:butt;stroke-linejoin:round;stroke-miterlimit:10;stroke-dasharray:none;stroke-opacity:1"
         id="path8328" /></g><g
       id="g8330"
       transform="scale(0.0999442,-0.100056)"><path
         d="m 1632.91,-1865.42 5.86,1.21 5.48,-1.82 5.85,-0.39 5.68,-1.8 5.85,0.63 5.67,0.03 5.86,-1.59 5.85,-0.76 5.67,1.04 5.86,0.64 5.67,-0.17 5.86,0.23 5.86,-0.78 5.29,-4.17 5.86,-4.54 5.66,-4.88 5.86,0.16 5.67,-3.63 5.86,-2.8 5.85,-0.37 5.68,0.84 5.85,0.23 5.67,-2.18 5.86,-6.77 5.85,-6.1 5.3,-4.23 5.85,0.02 5.67,-0.39 5.86,1.23 5.67,0.01 5.86,-1.79 5.86,-0.38 5.66,1.64 5.86,0.01 5.67,3.83 5.86,2.59 5.86,4.15 5.29,-0.89 5.86,0.32 5.66,0.12 5.86,-1.69 5.67,-2.08 5.86,-0.65 5.85,0.96 5.67,-1.05 5.86,1.37 5.67,-1.06 5.86,-0.65 5.85,-1.64 5.48,4.19 5.87,4.75 5.66,3.5 5.86,3.66 5.67,3.22 5.86,2.19 5.85,1.98 5.67,1.54 5.86,3.15 5.67,2.7 5.85,8.29 5.86,3.2 5.29,1.55 5.86,4.76 5.67,5.3 5.86,5.06 5.66,2.99 5.86,2.37 5.87,1.94 5.66,0.91 5.86,0.92 5.67,-1.91 5.86,4.93 5.85,6.29 5.29,4.61 5.86,1.57 5.67,0.74 5.86,2.95 5.67,-0.49 5.86,2.11 5.85,0.69 5.67,1.5 5.86,1.27 5.67,0.86 5.85,10.27 5.86,7.16 5.29,2.88 5.86,2.65 5.67,1.63 5.86,0.6 5.66,0.8 5.86,2.59 5.86,0.77 5.67,2.76 5.86,0.73 5.66,2.13 5.87,2.31 5.85,2.68 5.48,3.85 5.86,-0.39 5.67,-0.18 5.86,-0.99 5.66,-2.37 5.86,-1.35 5.86,-2.15 5.67,-4.72 5.86,-4.88 5.66,-3.63 5.86,-2.59 5.86,-7.57 5.29,-5.3 5.85,-6.04 5.68,-3.98 5.85,-1.93 5.68,-2.52 5.85,0.12 5.86,0.92 5.67,1.11 5.86,2.7 5.66,1.67 5.86,4.26 5.86,4.82 5.29,3.97 5.86,1.73 5.66,3.71 5.86,0.66 5.67,1.27 5.86,3.45 5.86,3.02 5.67,0.59 5.86,4.19 5.66,1.74 5.86,2.52 5.85,4.9 5.3,-0.76 5.85,1.06 5.68,-1.16 5.85,-0.35 5.67,-0.95 5.86,-0.93 5.86,-1.34 5.66,0.09 5.86,1.89 5.67,-3.54 5.86,1.31 5.86,-2.32 5.48,3.72 5.85,2.29 5.68,0.25 5.85,0.05 5.67,1.86 5.86,1.03 5.86,-1.18 5.66,-1.57 5.86,3.86 5.67,3.22 5.86,11.81 5.86,6.87 5.29,-0.2 5.86,0.79 5.66,1.99 5.86,0.37 5.67,-2.04 5.86,0.18 5.85,-0.22 5.67,-1.02 5.86,-1.01 5.67,1.61 5.86,5.8 5.85,1.13 5.3,-0.08 5.85,4.13 5.67,1.29 5.86,3.27 5.66,-0.17 5.86,-0.17 5.87,0.64 5.66,-0.17 5.86,0.24 5.67,-0.78 5.86,3.24 5.86,3.61 5.28,1.58 5.86,-0.65 5.67,0.36 5.86,-0.85 5.67,-1.63 5.86,-1.63 5.85,-2.41 5.67,-2.79 5.86,-1.55 5.67,-2.14 5.85,-0.52 5.86,-2.31 5.48,0.51 5.86,1.31 5.67,-1.71 5.86,-2.69 5.67,-4.27 5.85,-3.63 5.86,-3.19 5.67,-5.96 5.86,-3.7 5.67,-3.66 5.85,-1.43 5.86,-1 5.29,-1.8 5.86,-3.99 5.67,-4.14 5.86,-2.1 5.66,-3.88 5.86,-2.44 5.86,-2.62 5.67,-1.79 5.86,-0.77 5.66,-0.35 5.86,-3.97 5.86,1.7 5.29,5.87 5.86,1.82 5.67,1.59 5.86,-0.62 5.67,-0.02 5.85,0.78 5.86,-0.02 5.67,2.58 5.86,3.15 5.67,0.12 5.85,-1.29 5.86,3.34 5.29,2.7 5.86,-0.33 5.66,0.07 5.86,1.87 5.67,-1.35 5.86,-2.73 5.86,-3.52 5.67,-3.48 5.86,-7.06 5.67,0.84 5.85,2.83 5.86,-3.21 5.29,-4.38 5.86,-2.54 5.67,-2.51 5.86,-2.28 5.66,-1.66 5.87,-2.44 5.85,-3.22 5.67,-6.2 5.85,-2.92 5.68,-2.7 5.85,0.33 5.86,-1.86 5.29,-5.27 5.86,-3.4 5.66,-0.76 5.86,-1.56 5.67,-0.94 5.86,0.27 5.86,0.46 5.67,1.87 5.85,-0.35 5.67,1.45 5.86,-0.37 5.85,-2.56 5.3,1.66 5.86,1.65 5.67,2.44 5.85,2.01 5.67,1.59 5.86,1.98 5.86,1.75 5.66,1.73 5.86,2.93 5.67,4.09 5.86,0.44 5.86,-2.96 5.29,0.27 5.86,4.08 5.66,3.84 5.86,4.19 5.67,2.76 5.86,4.73 5.86,5.69 5.67,5.22 5.85,3.97 5.67,5.54 5.86,8.09 5.86,7.01 5.47,4.92 5.86,5.28 5.67,5.63 5.86,4.78 5.67,5.32 5.86,4.87 5.86,6.22 5.67,2.76 5.85,-1.68 5.67,1.54 5.86,1.93 5.85,6.72 5.3,-0.77 5.85,1.65 5.67,0.83 5.86,0.42 5.67,0.21 5.85,-1.19 5.86,-1.38 5.67,-0.16 5.86,-3.77 5.67,-2.52 5.86,0.5 5.86,0.89 5.29,-1.3 5.85,-4.12 5.67,0.15 5.86,-1.07 5.67,-0.44 5.86,-1.05 5.85,0.77 5.67,-1.04 5.86,2.37 5.67,-2.06 5.86,3.58 5.85,5.14 5.3,0.28 5.85,2.28 5.67,4.06 5.86,3.23 5.67,1.78 5.85,1.57 5.86,1.55 5.67,-0.67 5.86,3.95 5.67,4.11 5.85,3.66 5.86,1.23 5.49,5.63 5.85,3.56 5.66,2.12 5.86,2.1 5.67,1.48 5.86,3.67 5.86,1.63 5.67,3.22 5.86,4.78 5.67,4.14 5.85,8.71 5.86,3.41 5.29,5.18 5.86,5.93 5.67,5.07 5.86,4.41 5.67,2.97 5.86,0.53 5.85,1.73 5.67,1.92 5.85,0.28 5.68,5.11 5.85,2.24 5.86,2.22 5.29,3.99 5.86,2.17 5.67,0.52 5.85,1.33 5.67,0.52 5.86,0.9 5.86,1.51 5.67,1.88 5.85,4.67 5.68,7.04 5.85,5.96 5.86,4.9 5.29,5.65 5.86,3.99 5.67,3.55 5.86,3.32 5.66,1.47 5.86,2.07 5.86,1.44 5.67,-1.38 5.85,-2.56 5.68,-2.55 5.85,-1.71 5.86,-3.91 5.48,0.95 5.86,-3.27 5.67,-2.44 5.86,-2.01 5.66,1.81 5.86,4.21 5.86,4.96 5.67,4.72 5.85,1.06 5.67,1.84 5.86,1.23 5.86,2.22 5.29,1.8 5.85,1.18 5.67,1.97 5.86,2.14 5.67,0.32 5.86,-0.07 5.86,0.12 5.67,-0.29 5.85,-2.88 5.67,-6.47 5.86,-7.8 5.86,-4.72 5.29,-1.87 5.86,-0.85 5.67,-2.43 5.85,-1.42 5.67,-1.8 5.85,-3.38 5.86,-3.16 5.68,-5.72 5.85,-3.47 5.67,-5.63 5.86,-2.17 5.86,-5.55 5.29,-4.3 5.85,-7.46 5.67,-4.99 5.86,-1.72 5.67,-3.71 5.86,-1.68 5.85,-1.85 5.67,-1.03 5.86,-3.43 5.67,-1.59 5.86,-3.58 5.85,-2.94 5.49,-0.31 5.85,0.31 5.67,0.89 5.86,3.9 5.67,1.44 5.86,-0.36 5.85,1.23 5.67,0.63 5.86,3.23 5.67,10.41 5.86,5.49 5.85,6.44 5.3,6.58 5.85,4.71 5.67,4.66 5.86,2.2 5.67,-1.42 5.85,-2 5.86,-1.79 5.67,2.44 5.86,0.21 5.67,7.02 5.85,3.14 5.86,0.31 5.29,-1.51 5.86,2.33 5.67,2.1 5.86,0.67 5.67,-0.13 5.86,-0.13 5.85,-2.94 5.67,-5.32 5.86,-4.06 5.67,-0.4 5.86,-2.21 5.85,-1.59 5.29,-1.97 5.86,-3.75 5.67,-0.72 5.85,0.91 5.68,-0.52 5.85,0.3 5.86,-1.11 5.67,-2.3 5.86,1.92 5.67,2.12 5.85,-1.33 5.86,-0.89 5.48,-3.71 5.86,-1.46 5.67,-0.84 5.85,0.97 5.68,-0.24 5.85,-0.85 5.86,-1.84 5.67,-0.81 5.85,-0.81 5.67,3.01 5.86,-5.23 5.86,-2.59 5.29,-1.55 5.86,-0.13 5.67,0.06 5.86,-0.53 5.66,-3.14 5.86,-0.9 5.86,-2.09 5.67,-5.28 5.85,-3.21 5.67,-2.39 5.86,0.64 5.86,3.04 5.29,-3 5.85,-1.37 5.67,0.85 5.86,0.24 5.67,-0.36 5.86,0.64 5.86,1.24 5.67,0.63 5.85,-3 5.67,-2.15 5.86,-0.34 5.86,2.08 5.29,0.85 5.86,2.25 5.67,0.82 5.86,-0.19 5.66,0.22 5.86,0.61 5.85,0.4 5.68,-3.21 5.85,-5.37 5.67,-4.93 5.86,-1.27 5.86,-1.05 5.48,-4.05 5.86,0.4 5.66,-2.01 5.86,-0.59 5.67,0.02 5.86,1.43 5.85,0.81 5.68,1.4 5.85,-1.62 5.67,2.81 5.85,1.98 5.86,2.36 5.3,-0.28 5.85,-0.67 5.67,-0.06 5.86,0.75 5.67,-0.47 5.86,-1.87 5.86,-1.85 5.66,-2.44 5.86,-6.61 5.67,-6.95 5.86,-9.69 5.86,-5.99 5.29,-7.52 5.86,-2.85 5.66,-0.6 5.86,-0.2 5.67,0.2 5.86,-2.6 5.85,-2.39 5.67,-2.96 5.86,-3.92 5.67,0.72 5.86,0.3 5.85,-1.49 5.29,2.52 5.86,0.91 5.67,-0.11 5.86,0.29 5.67,-1.52 5.86,-0.3 5.86,-2.71 5.66,-4.87 5.86,-4.03 5.67,1.62 5.86,-4.81 5.85,-3.15 5.48,0.09 5.86,0.48 5.67,0.88 5.86,2.68 5.66,-1.17 5.86,-0.54 5.86,-0.74 5.67,-1.14 5.86,-3.13 5.67,-1.69 5.86,3.93 5.85,6.71 5.29,1.42 5.86,3.21 5.67,2.58 5.85,3.56 5.68,2.12 5.85,1.3 5.86,-0.13 5.67,-2.33 5.86,-3.1 5.66,5.75 5.86,0.68 5.86,0.07 5.29,-3.14 5.86,-0.1 5.67,-0.3 5.86,-0.69 5.66,-0.89 5.86,-2.09 5.86,-2.06 5.67,-2.65 5.86,-8.63 5.66,-3.94 5.86,-2.89 5.86,-0.66 5.29,-2.86 5.85,-0.22 5.68,-1.02 5.85,-3.22 5.68,-4.19 5.85,-3.94 5.86,-3.31 5.67,-5.67 5.86,-3.62 5.66,-3.58 5.86,-7.55 5.86,-1.06 5.48,-0.86 5.85,-3.24 5.68,-1.02 5.85,1.41 5.68,0.59 5.85,-0.02 5.86,-2.23 5.67,-2.6 5.86,1.04 5.66,0.82 5.86,0.21 5.86,1.41 5.29,1.6 5.86,0.38 5.66,1.38 5.86,2.37 5.67,-0.26 5.86,0.33 5.86,1.35 5.67,0.52 5.86,1.73 5.66,4.31 5.86,-0.35 5.86,-4.14 5.29,1.3 5.85,1.5 5.68,-2.73 5.85,-1.7 5.68,-2.49 5.85,-2.06 5.86,-1.44 5.66,-3.03 5.86,-5.2 5.67,-3.95 5.86,2.31 5.86,-7.14 5.29,-1.45 5.86,2.97 5.66,1.54 5.86,1.11 5.67,-0.09 5.86,-0.09 5.85,-0.09 5.67,-3.1 5.86,0.95 5.67,-0.87 5.86,1.14 5.85,3.34 5.49,-0.11 5.86,-0.3 5.66,-1.11 5.86,-0.09 5.67,-2.29 5.86,-1.67 5.85,-2.46 5.67,-3.63 5.86,-4.4 5.67,-3.95 5.86,-2.71 5.85,-4.69 5.29,-0.03 5.86,-1.03 5.67,-3.03 5.86,-3 5.66,-3.37 5.86,-4.33 5.87,-5.7 5.66,-5.64 5.86,-5.38 5.67,-2.32 5.86,-5.31 5.86,-4.25 5.28,-5.41 5.86,-4.76 5.67,-1.7 5.86,-0.08 5.67,-1.68 5.86,-2.47 5.85,-3.44 5.67,-6.42 5.86,-4.95 5.67,-0.9 5.85,-2.28 5.86,-1.87 5.29,0.36 5.86,-1.44 5.67,-2.43 5.86,-1.81 5.66,-1.99 5.86,-1.97 5.86,-1.76 5.67,-2.33 5.86,-4.51 5.66,-11.9 5.87,-2.94 5.85,-4.53 5.48,-4.68 5.86,-6.24 5.67,-4.97 5.86,-4.91 5.66,-5.08 5.86,-4.02 5.86,-5.58 5.67,-4.73 5.86,-5.87 5.66,-8.83 5.86,-5.94 5.86,-8.48 5.29,-4.18 5.86,-5.35 5.67,-5.49 5.85,-4.65 5.68,-6.39 5.85,-4.93 5.86,-2.27 5.67,-8.87 5.86,-6.16 5.66,-5.91 5.86,-7.46 5.86,-1.96 5.29,-2.55 5.86,-3.32 5.66,-3.7 5.86,-2.45 5.67,-1.42 5.86,-0.61 5.86,-0.8 5.67,-1.6 5.86,-3.39 5.66,-3.95 5.86,-1.11 5.86,-4.7 5.29,-0.45 5.86,-3.45 5.67,-2.61 5.85,-0.18 5.68,-2.79 5.85,-1.36 5.86,-2.14 5.66,-5.73 5.86,-5.07 5.67,-5.82 5.86,-8.17 5.86,-5.68 5.48,-6.03 5.85,-4.57 5.68,-4.51 5.85,-3.67 5.67,-4.24 5.86,-4.19 5.86,-6.16 5.66,-5.69 5.86,-2.63 5.67,-1.2 5.86,-2.39 5.86,-0.36 5.29,-1.56 5.86,-4.16 5.66,-1.5 5.86,-0.28 5.67,-0.89 5.86,-5.48 5.86,-4.23 5.66,-3.79 5.86,-1.54 5.67,1.28 5.86,-3.15 5.85,-0.5 5.3,-0.3 5.85,-1.11 5.68,1.33 5.85,4.11 5.67,2.26 5.86,3.85 5.86,1.4 5.66,1.39 5.86,0.77 5.67,5.98 5.86,1.1 5.86,1.3 5.28,-1.53 5.86,-1.5 5.67,0.11 5.86,0.11 5.67,0.5 5.86,1.11 5.86,2.1 5.67,-1.74 5.85,-0.91 5.67,2.3 5.85,-1.52 5.86,2.69 5.48,4.48 5.86,2.02 5.67,-0.21 5.86,0.6 5.67,1.81 5.85,1.97 5.86,2.37 5.67,0.53 5.86,1.93 5.67,4.12 5.85,-1.94 5.86,2.29 5.29,-0.13 5.86,1.66 5.67,1.46 5.86,4.84 5.66,1.99 5.86,1.97 5.86,2.16 5.67,0.52 5.86,1.32 5.67,2.91 5.85,4.49 5.86,4.65 5.29,0.78 5.86,3.39 5.67,1.34 5.86,0.14 5.67,0.92 5.86,2.34 5.85,1.29 5.67,3.09 5.86,5.87 5.67,3.21 5.85,5.77 5.86,7.12 5.29,2.84 5.86,1.61 5.66,-1.22 5.86,0.21 5.67,-1 5.86,-2.4 5.86,-2.17 5.67,-2.75 5.86,-0.92 5.67,-4.32 5.85,-3.47 5.86,-3.24 5.48,0.6 5.86,-1.61 5.66,-0.39 5.86,-0.38 5.67,-1.78 5.86,-1.97 5.86,-2.35 5.67,-0.92 5.86,1.69 5.67,-0.53 5.85,-2.32 5.86,-3.91 5.29,-3.07 5.86,-4.64 5.67,-2.99 5.86,-3.16 5.66,-0.93 5.86,-1.72 5.86,-1.49 5.67,-2.29 5.85,-0.06 5.68,-1.65 5.85,4.16 5.86,1.32 5.29,2.31 5.86,2.1 5.66,3.26 5.86,2.84 5.67,3.01 5.86,2.57 5.86,1.15 5.67,-0.47 5.85,-2.47 5.67,2.77 5.86,-3.47 5.85,2.37 5.3,5.56 5.86,3.5 5.67,3.06 5.85,1.83 5.67,1.21 5.86,-1.41 5.86,1.21 h 5.66 l 5.86,4.01 5.67,4.57 5.86,1.31 5.86,3.7 5.48,3.07 5.85,4.24 5.68,4.6 5.85,1.95 5.67,0.52 5.85,3.93 5.86,2.48 5.67,3.26 5.86,1.63 5.67,-0.2 5.86,0.41 5.86,-0.8 5.28,-0.39 5.86,-1.39 5.67,-3.18 5.86,-4.35 5.67,-1.7 5.86,-4.29 5.86,-3.04 5.66,-1.41 5.86,-2.8 5.67,-4.18 5.86,-8.94 5.85,-5.45 5.3,-2.58 5.85,-1.16 5.67,-2.14 5.86,0.88 5.67,-1.94 5.85,0.09 5.86,-0.51 5.67,-1.71 5.86,-1.29 5.67,-1.07 5.85,-2.48 5.86,-2.24 5.3,-4.44 5.85,-3.97 5.67,-1.55 5.86,-1.32 5.67,-1.31 5.86,-0.49 5.85,0.52 5.67,0.7 5.86,0.9 5.67,-0.51 5.86,-0.7 5.85,-3.31 5.48,6.36 5.86,2.28 5.67,0.85 5.86,0.04 5.67,0.04 5.86,-1.16 5.85,-2.16 5.67,-1.92 5.86,1.49 5.67,-4.53 5.85,-2.08 5.86,-4.47 5.29,-2.42 5.86,-3.19 5.67,-2.96 5.85,-2.74 5.67,-0.7 5.86,-0.69 5.86,-2.29 5.67,-0.46 5.86,-1.06 5.67,2.76 5.85,-1.48 5.86,-3.47 5.29,-2.43 5.86,-1.4 5.67,0.82 5.86,-1 5.66,-0.79 5.87,-0.18 5.85,-0.37 5.67,-0.58 5.85,-1.56 5.68,0.25 5.85,0.24 5.86,-3.96 5.29,2.49 5.86,1.07 5.67,0.84 5.85,-1.36 5.67,-1.55 5.86,-4.74 5.86,-3.89 5.67,-3.05 5.85,-3.23 5.67,0.42 5.86,1.62 5.86,1.81 5.47,3.98 5.87,6.16 5.66,4.69 5.86,0.43 5.67,0.44 5.86,4.03 5.86,5.59 5.67,5.94 5.85,3.68 5.67,5.45 5.86,0.98 5.86,2.77 5.29,1.95 5.86,3.12 5.67,1.7 5.86,0.87 5.66,1.87 5.86,0.04 5.85,2.25 5.68,0.23 5.85,0.41 5.67,0.83 5.86,3.01 5.86,-0.02 5.29,-1.63 5.85,1.8 5.67,1.58 5.86,-1.04 5.67,-2.44 5.86,1 5.86,-0.22 5.66,2.39 5.86,-0.63 5.67,-0.44 5.86,0.58 5.86,3.37 5.29,-1.86 5.85,0.15 5.67,-3.26 5.86,0.79 5.67,-1.23 5.86,-1.01 5.85,0.4 5.67,-2.61 5.86,0.22 5.67,0.22 5.85,4.43 5.86,1.97 5.49,-4.86 5.85,0.41 5.67,2 5.86,0.97 5.67,1.78 5.85,0.95 5.86,2.95 5.67,-2.71 5.86,0.14 5.67,2.15 5.85,1.32 5.86,2.5 5.29,-1.12 5.86,-4.32 5.67,-4.49 5.86,-1.42 5.67,-0.02 5.86,-1.61 5.85,-2.6 5.67,-2.77 5.86,-3.15 5.67,-5.53 5.86,-2.25 5.85,-5.04 5.29,-1.79 5.86,-1.56 5.67,0.25 5.85,0.04 5.68,-0.75 5.85,1.46 5.86,-2.96 5.67,-1.13 5.86,-0.92 5.67,1.9 5.85,-0.13 5.86,2.68 5.29,3.05 5.86,0.83 5.67,0.4 5.86,2.81 5.66,0.99 5.87,-0.44 5.85,0.57 5.67,0.17 5.86,0.77 5.67,0.96 5.86,3.75 5.85,2.92 5.48,-1.12 5.86,-0.71 5.67,-0.11 5.86,-1.5 5.66,-0.89 5.86,-3.88 5.86,-1.04 5.67,-2.23 5.86,-1.01 5.66,-4.21 5.86,-6.36 5.86,-6.91 5.29,-6.23 5.86,-5.78 5.67,-4.71 5.85,-4.07 5.68,-2.81 5.85,-1.19 5.86,-1.98 5.67,-2.16 5.85,-1.13 5.67,1.29 5.86,1.86 5.86,5.26 5.29,0.8 5.86,1.99 5.67,0.57 5.86,0.76 5.66,0.36 5.86,-2.46 5.85,1.38 5.68,0.77 5.85,1.16 5.67,1.34 5.86,-2.27 5.86,-1.86 5.29,-2.64 5.85,-1 5.68,-3.4 5.85,0.04 5.67,0.04 5.86,3.25 5.86,0.4 5.67,2.01 5.85,3.19 5.67,3.16 5.86,0.32 5.86,0.92 5.48,3.92 5.85,1.07 5.67,3.87 5.86,2.02 5.67,1.6 5.86,1.99 5.85,0.76 5.67,4.37 5.86,0.71 5.67,-2.7 5.86,-4.08 5.86,-5.03 5.29,-5.39 5.86,-5.54 5.66,-6.89 5.86,-5.61 5.67,-4.15 5.86,-3.71 5.85,-0.47 5.67,-0.66 5.86,-3.27 5.67,-0.62 5.85,-1.22 5.86,-2.01 5.3,-3.78 5.85,-3.36 5.67,-1.72 5.86,0.31 5.67,-0.7 5.86,2.71 5.86,-1.11 5.66,-0.51 5.86,-2.71 5.67,-1.47 5.86,-1.47 5.86,2.16 5.29,-3.67 5.86,-2.84 5.66,-0.6 5.86,-2.61 5.67,-0.57 5.86,-3.17 5.85,-4.74 5.67,-4.9 5.86,-5.25 5.67,-9.21 5.86,-5.5 5.85,-7.46 5.48,-5.37 5.87,-5.33 5.66,-6.26 5.85,-3.2 5.68,-3.57 5.86,-2.94 5.85,-3.1 5.67,-1.67 5.85,-5.06 5.67,-3.41 5.86,-9.58 5.86,-7.29 5.29,-8.42 5.86,-5.13 5.67,-3.66 5.86,-4.44 5.66,-4.99 5.86,-5.55 5.86,-1.47 5.67,-0.87 5.86,-3.05 5.67,-6.64 5.86,0.64 5.85,-1.36 5.29,1.05 5.86,-1.36 5.67,-1.95 5.85,0.48 5.68,-1.33 5.85,0.88 5.86,-1.13 5.67,-0.91 5.86,-1.92 5.66,-6.9 5.86,-8.84 5.86,-6.74 5.29,-6.48 5.86,-3.6 5.67,-4.78 5.86,-2.52 5.66,-1.49 5.86,-4.88 5.86,-5.24 5.67,-1.18 5.86,-3.76 5.66,-1.14 5.86,-3.92 5.86,-0.47 5.48,-2.88 5.86,1.17 5.66,-4.26 5.86,2 5.67,-1.44 5.86,-1.42 5.86,-1.8 5.67,-0.38 5.86,1.02 5.66,3.22 5.86,-2.03 5.86,3.21 5.29,-1.03 5.85,-0.02 5.68,-0.63 5.85,-0.62 5.68,1.6 5.85,-1.03 5.86,-0.21 5.66,-0.02 5.87,1.39 5.66,-0.43 5.86,-2.82 5.86,-5.01 5.29,-3.55 5.86,-1.92 5.66,-1.69 5.86,0.12 5.67,0.34 5.86,-0.68 5.86,1.93 5.66,-0.49 5.87,0.51 5.66,-0.09 5.86,-3.89 5.85,-6.07 5.3,-1.19 5.85,-2.38 5.68,-2.57 5.85,-4.34 5.67,-5.29 5.86,-2.24 5.86,-4.22 5.66,-3.78 5.86,-2.94 5.67,-6.32 5.86,-8.46 5.86,-5.76 5.48,-7.32 5.85,-5.43 5.67,-5.58 5.86,-4.73 5.67,-3.27 5.86,-4.45 5.86,-4 5.66,-4.15 5.86,1.09 5.67,-2.32 5.86,1.1 5.86,-2.51 5.28,-3.69 5.87,-2.25 5.66,0.18 5.86,0.17 5.67,-3.23 5.86,-3 5.85,-3.37 5.67,-2.14 5.86,-0.11 5.67,-3.71 5.86,-4.68 5.85,-5.04 5.29,-12.2 5.86,-7.27 5.67,-5.19 5.86,-3.54 5.66,-5.1 5.86,-2.65 5.86,-0.41 5.67,-4.83 5.86,-5.17 5.67,-3.92 5.86,-4.29 5.86,-5.64 5.28,-2.57 5.86,-5.77 5.67,-2.29 5.86,-6.08 5.67,-4.82 5.85,-3.16 5.86,-4.14 5.67,-1.09 5.86,-1.28 5.67,-1.67 5.85,-4.65 5.86,-3.21 5.48,-4.77 5.86,-0.53 5.67,-1.31 5.86,-0.3 5.67,3.31 5.85,3.27 5.86,5.05 5.67,3.6 5.86,4.16 5.67,0.51 5.85,-2.3 5.86,-2.68 5.29,-2.45 5.86,-0.83 5.66,-1.02 5.87,0.2 5.66,-0.2 5.86,2.6 5.86,2.37 5.67,0.15 5.86,3.96 5.66,1.11 5.86,-0.52 5.86,4.32 5.29,-1.15 5.86,-3.74 5.67,-0.89 5.85,-4.1 5.68,-1.25 5.85,0.38 5.86,-1.65 5.67,-3.63 5.86,-3.99 5.66,-2.75 5.86,-5.53 5.86,-10.89 5.29,-4.35 5.86,-4.12 5.66,-0.28 5.86,-3.67 5.67,-3.83 5.86,-3.81 5.86,-1.55 5.66,-4.15 5.87,-3.5 5.66,0.34 5.86,0.54 5.85,-3.88 5.49,-1.24 5.86,-1.02 5.66,-0.2 5.86,0.19 5.67,-1.81 5.86,-4.2 5.86,0.45 5.66,1.45 5.86,-2.37 5.67,-1.95 5.86,-0.52 5.85,-2.73 5.3,-4.9 5.85,-1.24 5.68,-1.23 5.85,-5.24 5.67,-1.16 5.86,-2.76 5.86,-4.74 5.66,-6.5 5.86,-7.03 5.67,-5.96 5.86,-5.69 5.86,-11.66 5.28,-6.53 5.87,-6.46 5.66,-7.39 5.86,-9.14 5.67,-6.83 5.86,-6.76 5.86,-1.89 5.66,-1.87 5.86,-2.05 5.67,-4.43 5.86,-3.19 5.85,-6.16 5.3,0.32 5.85,0.51 5.68,1.3 5.85,-0.51 5.67,-0.89 5.85,0.3 5.86,-0.9 5.67,-0.08 5.86,-0.89 5.67,-1.49 5.86,1.74 5.86,-4.49 5.48,-4.44 5.85,-4.4 5.67,-0.35 5.86,-1.15 5.67,-0.93 5.85,-1.52 5.86,-0.72 5.67,1.31 5.86,0.88 5.66,1.29 5.86,-2.35 5.87,-1.91 5.28,-4.31 5.89,-3.26 5.6,-4.62 5.9,-3.38 5.7,-4.75 5.8,-2.89 5.9,-3.27 5.7,-3.04 5.8,-7.42 5.7,-3.93 5.8,-8.3 5.9,-8.43 5.3,-10.14 5.8,-4.02 5.7,-4.99 5.9,-2.94 5.6,-4.51 5.9,-2.85 5.9,-4.84 5.6,-2.99 5.9,-3.95 5.6,-0.91 5.9,-7.11 5.9,-3.64 5.3,-4 5.8,-2.96 5.7,-4.13 5.8,-1.48 5.7,-3.68 5.9,-4.83 5.8,-4.19 5.7,-6.36 5.8,-2.28 5.7,-6.67 5.9,-3.19 5.8,-6.17 5.5,-4.3 5.9,-3.66 5.6,0.99 5.9,-0.22 5.7,3.18 5.8,-0.85 5.9,-1.45 5.7,-3.63 5.8,-6.02 5.7,-1.53 5.8,-6.34 5.9,-3.26 5.3,-6.23 5.8,-4.78 5.7,-3.72 5.9,-4.08 5.6,-3.44 5.9,-3.41 5.8,-5.18 5.7,-5.92 5.9,-5.68 5.6,-4.4 5.9,-2.16 5.9,-5.35 5.3,-3.29 5.8,-0.45 5.7,-0.64 5.8,-3.84 5.7,-1.6 5.9,-4.8 5.8,-3.54 5.7,-4.51 5.8,-5.27 5.7,-6.22 5.9,-10.96 5.8,-4.24 5.3,-4.8 5.9,-5.55 5.6,-3.89 5.9,-2.45 5.7,-2.23 5.8,-2.01 5.9,-1.98 5.7,-1.56 5.8,-1.75 5.7,0.08 5.8,3.87 5.9,2.45 5.5,-5 5.8,-0.74 5.7,0.26 5.9,0.07 5.6,-1.94 5.9,0.68 5.8,-2.12 5.7,-3.31 5.9,-3.68 5.6,-0.63 5.9,-2.84 5.9,-0.39 5.2,-0.6 5.9,-1.99 5.7,-2.78 5.8,-2.75 5.7,-4.52 5.9,-3.27 5.8,-4.25 5.7,-2.6 5.8,-5.78 5.7,-3.11 5.9,-4.49 5.8,-6.25 5.3,-7.79 5.9,-6.11 5.6,-4.24 5.9,-2.8 5.7,-1.76 5.8,-2.75 5.9,-1.73 5.7,-3.3 5.8,-5.48 5.7,1.99 5.8,0.57 5.9,1.36 5.3,-2.05 5.8,-2.03 5.7,0.58 5.9,-1.42 5.6,-3.21 5.9,-3.98 5.9,-0.33 5.6,-2.13 5.9,-0.71 5.6,-0.9 5.9,1.32 5.9,1.1 5.4,-0.52 5.9,-3.31 5.7,-4.49 5.8,-1.83 5.7,-0.42 5.8,-1.41 5.9,-3.21 5.7,-4.57 5.8,-4.32 5.7,0.72 5.9,-2.89 5.8,-1.25 5.3,-2.24 5.9,0.38 5.6,-0.82 5.9,-2.42 5.7,-0.79 5.8,-2.59 5.9,-4.17 5.7,-2.31 5.8,-5.3 5.7,-2.45 5.8,-3.62 5.9,0.63 5.3,-4.2 5.8,-4.55 5.7,-5.71 5.9,-1.84 5.6,0.18 5.9,-4.64 5.8,-5.79 5.7,-4.33 5.9,-1.48 5.6,-3.86 5.9,-5.04 5.9,-6.18 5.3,-7.13 5.8,-3.05 5.7,-3.82 5.8,-4.18 5.7,-2.53 5.9,-3.91 5.8,-4.68 5.7,-9.44 5.8,-8.74 5.7,-10.67 5.9,-10.75 5.8,-14.66 5.5,-14.11 5.9,-9.35 5.6,-6.06 5.9,-2.99 5.7,-3.77 5.8,-7.12 5.9,-4.86 5.6,-4.41 5.9,-4.76 5.7,-3.71 5.8,-7.08 5.9,-9.42 5.3,-9.73 5.8,-5.21 5.7,-4.37 5.9,-0.51 5.6,-2.5 5.9,-3.49 5.8,-1.45 5.7,-4.04 5.9,-3.6 5.6,-4.76 5.9,-2.31 5.9,-2.9 5.2,-3.86 5.9,-3.62 5.7,-2.39 5.8,-1.36 5.7,-2.35 5.9,-0.92 5.8,-1.91 5.7,-6.11 5.8,-2.23 5.7,-4.02 5.9,-4.37 5.8,-4.74 5.3,-9.1 5.9,-5.8 5.6,-2.53 5.9,-3.91 5.7,-4.28 5.8,-4.03 5.9,-3.79 5.7,-5.55 5.8,-5.3 5.7,-6.85 5.8,-8.39 5.9,-10.1 5.5,-8.41 5.8,-7.51 5.7,-5.04 5.9,-2.98 5.6,-2.54 5.9,-1.93 5.8,-4.3 5.7,-2.27 5.9,-6.64 5.6,-0.57"
         style="fill:none;stroke:#000000;stroke-width:10.0076;stroke-linecap:butt;stroke-linejoin:round;stroke-miterlimit:10;stroke-dasharray:none;stroke-opacity:1"
         id="path8332" /></g><path
       d="m 951,66.0762 h 176.4 v 49.2551 H 951 Z"
       style="fill:#ffffff;fill-opacity:1;fill-rule:nonzero;stroke:none;stroke-width:0.1"
       id="path8334" /><g
       id="g8336"><text
         transform="matrix(0.998885,0,0,-1,986.28,95.1473)"
         style="font-variant:normal;font-weight:normal;font-size:18.0201px;font-family:Helvetica;-inkscape-font-specification:Helvetica;writing-mode:lr-tb;fill:#000000;fill-opacity:1;fill-rule:nonzero;stroke:none"
         id="text8340"><tspan
           x="0 13.010512 23.029688"
           y="0"
           sodipodi:role="line"
           id="tspan8338">Raw</tspan></text></g><g
       id="g8342"
       transform="scale(0.0999442,-0.100056)"><path
         d="m 9545.35,-1023 h 300.42"
         style="fill:none;stroke:#99c2ff;stroke-width:1.99912;stroke-linecap:butt;stroke-linejoin:round;stroke-miterlimit:10;stroke-dasharray:none;stroke-opacity:1"
         id="path8344" /></g><g
       id="g8346"><text
         transform="matrix(0.998885,0,0,-1,986.4,72.0809)"
         style="font-variant:normal;font-weight:normal;font-size:18.0201px;font-family:Helvetica;-inkscape-font-specification:Helvetica;writing-mode:lr-tb;fill:#000000;fill-opacity:1;fill-rule:nonzero;stroke:none"
         id="text8350"><tspan
           x="0 11.010282 15.010743 19.011206 24.020794 34.03997 40.040661 50.059837 60.079014 65.0886"
           y="0"
           sodipodi:role="line"
           id="tspan8348">Filtered, </tspan></text></g><path
       d="m 1060.22,71.8742 c -0.57,0 -1.07,0.136 -1.52,0.4082 -0.44,0.2723 -0.78,0.6367 -1.02,1.0934 -0.24,0.457 -0.36,0.9762 -0.36,1.5582 0,0.8133 0.23,1.6187 0.68,2.4164 0.45,0.798 1.06,1.4457 1.81,1.9434 0.75,0.4972 1.54,0.7457 2.37,0.7457 0.61,0 1.15,-0.1594 1.61,-0.4786 0.46,-0.3191 0.81,-0.7429 1.06,-1.2718 0.24,-0.5286 0.36,-1.0961 0.36,-1.7032 l 0.02,-1.2015 c 0.4,0.5695 0.75,1.159 1.03,1.7691 0.29,0.6102 0.51,1.2438 0.66,1.9004 0.02,0.0754 0.07,0.1129 0.14,0.1129 h 0.21 c 0.11,0 0.17,-0.0563 0.17,-0.1688 0,-0.0128 -0.01,-0.0316 -0.02,-0.0566 -0.14,-0.5504 -0.31,-1.0793 -0.53,-1.5863 -0.21,-0.5063 -0.46,-0.9977 -0.74,-1.4735 -0.29,-0.4753 -0.59,-0.907 -0.92,-1.2949 0,-1.4894 0.17,-2.234 0.51,-2.234 0.23,0 0.41,0.0657 0.55,0.1973 0.15,0.1313 0.27,0.2941 0.38,0.4883 0.11,0.1937 0.17,0.2937 0.21,0.3004 h 0.21 c 0.09,0 0.14,-0.0598 0.14,-0.1785 0,-0.2942 -0.17,-0.5821 -0.51,-0.8637 -0.34,-0.2817 -0.68,-0.4223 -1.02,-0.4223 -0.43,0 -0.79,0.1406 -1.07,0.4223 -0.29,0.2816 -0.49,0.6512 -0.6,1.1074 -0.56,-0.4816 -1.17,-0.857 -1.82,-1.1262 -0.66,-0.2691 -1.32,-0.4035 -1.99,-0.4035 z m 0.04,0.4785 c 1.28,0 2.51,0.5289 3.69,1.5864 -0.01,0.0691 -0.02,0.155 -0.03,0.2578 -0.01,0.1035 -0.02,0.1613 -0.02,0.1742 v 1.9426 c 0,2.1773 -0.58,3.2656 -1.75,3.2656 -0.71,0 -1.32,-0.3 -1.85,-0.9008 -0.53,-0.6008 -0.93,-1.3199 -1.19,-2.1582 -0.27,-0.8387 -0.4,-1.6019 -0.4,-2.2902 0,-0.5254 0.13,-0.9699 0.4,-1.3332 0.26,-0.3625 0.65,-0.5442 1.15,-0.5442"
       style="fill:#000000;fill-opacity:1;fill-rule:nonzero;stroke:none;stroke-width:0.1"
       id="path8352" /><g
       id="g8354"><text
         transform="matrix(0.998885,0,0,-1,1073.604,72.0809)"
         style="font-variant:normal;font-weight:normal;font-size:18.0201px;font-family:Helvetica;-inkscape-font-specification:Helvetica;writing-mode:lr-tb;fill:#000000;fill-opacity:1;fill-rule:nonzero;stroke:none"
         id="text8358"><tspan
           x="0 10.523739 15.533326 25.552502 30.56209 40.581264"
           y="0"
           sodipodi:role="line"
           id="tspan8356">= 0.01</tspan></text></g><g
       id="g8360"
       transform="scale(0.0999442,-0.100056)"><path
         d="m 9545.35,-790.059 h 300.42"
         style="fill:none;stroke:#000000;stroke-width:10.0076;stroke-linecap:butt;stroke-linejoin:round;stroke-miterlimit:10;stroke-dasharray:none;stroke-opacity:1"
         id="path8362" /></g><g
       id="g8364"
       transform="scale(0.0999442,-0.100056)"><path
         d="m 9515.31,-660.393 v -492.277 h 1764.99 v 492.277 z"
         style="fill:none;stroke:#262626;stroke-width:5.00079;stroke-linecap:butt;stroke-linejoin:miter;stroke-miterlimit:10;stroke-dasharray:none;stroke-opacity:1"
         id="path8366" /></g></g></svg>
