<?xml version="1.0" encoding="UTF-8" standalone="no"?>
<svg
   xmlns:dc="http://purl.org/dc/elements/1.1/"
   xmlns:cc="http://creativecommons.org/ns#"
   xmlns:rdf="http://www.w3.org/1999/02/22-rdf-syntax-ns#"
   xmlns:svg="http://www.w3.org/2000/svg"
   xmlns="http://www.w3.org/2000/svg"
   xmlns:sodipodi="http://sodipodi.sourceforge.net/DTD/sodipodi-0.dtd"
   xmlns:inkscape="http://www.inkscape.org/namespaces/inkscape"
   inkscape:version="1.0 (4035a4fb49, 2020-05-01)"
   sodipodi:docname="alphas.svg"
   viewBox="0 0 1456.5528 554.32062"
   height="554.32062"
   width="1456.5529"
   xml:space="preserve"
   id="svg13191"
   version="1.1"><metadata
     id="metadata13197"><rdf:RDF><cc:Work
         rdf:about=""><dc:format>image/svg+xml</dc:format><dc:type
           rdf:resource="http://purl.org/dc/dcmitype/StillImage" /><dc:title></dc:title></cc:Work></rdf:RDF></metadata><defs
     id="defs13195"><clipPath
       id="clipPath13209"
       clipPathUnits="userSpaceOnUse"><path
         id="path13207"
         d="M 0,0 H 13460 V 4520 H 0 Z" /></clipPath><clipPath
       id="clipPath13215"
       clipPathUnits="userSpaceOnUse"><path
         id="path13213"
         d="M 0,4524 H 13458.1 V -0.0234375 H 0 Z" /></clipPath></defs><sodipodi:namedview
     inkscape:current-layer="g13199"
     inkscape:window-maximized="1"
     inkscape:window-y="-9"
     inkscape:window-x="-9"
     inkscape:cy="286.05978"
     inkscape:cx="703.71771"
     inkscape:zoom="0.64078749"
     fit-margin-bottom="0"
     fit-margin-right="0"
     fit-margin-left="0"
     fit-margin-top="0"
     showgrid="false"
     id="namedview13193"
     inkscape:window-height="1361"
     inkscape:window-width="2560"
     inkscape:pageshadow="2"
     inkscape:pageopacity="0"
     guidetolerance="10"
     gridtolerance="10"
     objecttolerance="10"
     borderopacity="1"
     bordercolor="#666666"
     pagecolor="#ffffff" /><g
     transform="matrix(1.3333333,0,0,-1.3333333,-193.61567,587.39311)"
     inkscape:label="ink_ext_XXXXXX"
     inkscape:groupmode="layer"
     id="g13199"><path
       d="m 175.279,49.2633 h 1043.27 v 368.891 H 175.279 Z"
       style="fill:#ffffff;fill-opacity:1;fill-rule:nonzero;stroke:none;stroke-width:0.1"
       id="path13221" /><g
       id="g13223"
       transform="scale(0.0999559,-0.100044)"><path
         d="M 1753.56,-492.416 H 12190.9"
         style="fill:none;stroke:#262626;stroke-width:5.00246;stroke-linecap:square;stroke-linejoin:round;stroke-miterlimit:10;stroke-dasharray:none;stroke-opacity:1"
         id="path13225" /></g><g
       id="g13227"
       transform="scale(0.0999559,-0.100044)"><path
         d="M 1753.56,-4179.7 H 12190.9"
         style="fill:none;stroke:#262626;stroke-width:5.00246;stroke-linecap:square;stroke-linejoin:round;stroke-miterlimit:10;stroke-dasharray:none;stroke-opacity:1"
         id="path13229" /></g><g
       id="g13231"
       transform="scale(0.0999559,-0.100044)"><path
         d="M 2787.89,-492.416 V -596.787"
         style="fill:none;stroke:#262626;stroke-width:5.00246;stroke-linecap:square;stroke-linejoin:round;stroke-miterlimit:10;stroke-dasharray:none;stroke-opacity:1"
         id="path13233" /></g><g
       id="g13235"
       transform="scale(0.0999559,-0.100044)"><path
         d="M 3832.66,-492.416 V -596.787"
         style="fill:none;stroke:#262626;stroke-width:5.00246;stroke-linecap:square;stroke-linejoin:round;stroke-miterlimit:10;stroke-dasharray:none;stroke-opacity:1"
         id="path13237" /></g><g
       id="g13239"
       transform="scale(0.0999559,-0.100044)"><path
         d="M 4877.44,-492.416 V -596.787"
         style="fill:none;stroke:#262626;stroke-width:5.00246;stroke-linecap:square;stroke-linejoin:round;stroke-miterlimit:10;stroke-dasharray:none;stroke-opacity:1"
         id="path13241" /></g><g
       id="g13243"
       transform="scale(0.0999559,-0.100044)"><path
         d="M 5922.21,-492.416 V -596.787"
         style="fill:none;stroke:#262626;stroke-width:5.00246;stroke-linecap:square;stroke-linejoin:round;stroke-miterlimit:10;stroke-dasharray:none;stroke-opacity:1"
         id="path13245" /></g><g
       id="g13247"
       transform="scale(0.0999559,-0.100044)"><path
         d="M 6966.99,-492.416 V -596.787"
         style="fill:none;stroke:#262626;stroke-width:5.00246;stroke-linecap:square;stroke-linejoin:round;stroke-miterlimit:10;stroke-dasharray:none;stroke-opacity:1"
         id="path13249" /></g><g
       id="g13251"
       transform="scale(0.0999559,-0.100044)"><path
         d="M 8011.76,-492.416 V -596.787"
         style="fill:none;stroke:#262626;stroke-width:5.00246;stroke-linecap:square;stroke-linejoin:round;stroke-miterlimit:10;stroke-dasharray:none;stroke-opacity:1"
         id="path13253" /></g><g
       id="g13255"
       transform="scale(0.0999559,-0.100044)"><path
         d="M 9056.54,-492.416 V -596.787"
         style="fill:none;stroke:#262626;stroke-width:5.00246;stroke-linecap:square;stroke-linejoin:round;stroke-miterlimit:10;stroke-dasharray:none;stroke-opacity:1"
         id="path13257" /></g><g
       id="g13259"
       transform="scale(0.0999559,-0.100044)"><path
         d="M 10101.3,-492.416 V -596.787"
         style="fill:none;stroke:#262626;stroke-width:5.00246;stroke-linecap:square;stroke-linejoin:round;stroke-miterlimit:10;stroke-dasharray:none;stroke-opacity:1"
         id="path13261" /></g><g
       id="g13263"
       transform="scale(0.0999559,-0.100044)"><path
         d="M 11146.1,-492.416 V -596.787"
         style="fill:none;stroke:#262626;stroke-width:5.00246;stroke-linecap:square;stroke-linejoin:round;stroke-miterlimit:10;stroke-dasharray:none;stroke-opacity:1"
         id="path13265" /></g><g
       id="g13267"
       transform="scale(0.0999559,-0.100044)"><path
         d="M 12190.9,-492.416 V -596.787"
         style="fill:none;stroke:#262626;stroke-width:5.00246;stroke-linecap:square;stroke-linejoin:round;stroke-miterlimit:10;stroke-dasharray:none;stroke-opacity:1"
         id="path13269" /></g><g
       id="g13271"
       transform="scale(0.0999559,-0.100044)"><path
         d="m 2787.89,-4179.7 v 104.37"
         style="fill:none;stroke:#262626;stroke-width:5.00246;stroke-linecap:square;stroke-linejoin:round;stroke-miterlimit:10;stroke-dasharray:none;stroke-opacity:1"
         id="path13273" /></g><g
       id="g13275"
       transform="scale(0.0999559,-0.100044)"><path
         d="m 3832.66,-4179.7 v 104.37"
         style="fill:none;stroke:#262626;stroke-width:5.00246;stroke-linecap:square;stroke-linejoin:round;stroke-miterlimit:10;stroke-dasharray:none;stroke-opacity:1"
         id="path13277" /></g><g
       id="g13279"
       transform="scale(0.0999559,-0.100044)"><path
         d="m 4877.44,-4179.7 v 104.37"
         style="fill:none;stroke:#262626;stroke-width:5.00246;stroke-linecap:square;stroke-linejoin:round;stroke-miterlimit:10;stroke-dasharray:none;stroke-opacity:1"
         id="path13281" /></g><g
       id="g13283"
       transform="scale(0.0999559,-0.100044)"><path
         d="m 5922.21,-4179.7 v 104.37"
         style="fill:none;stroke:#262626;stroke-width:5.00246;stroke-linecap:square;stroke-linejoin:round;stroke-miterlimit:10;stroke-dasharray:none;stroke-opacity:1"
         id="path13285" /></g><g
       id="g13287"
       transform="scale(0.0999559,-0.100044)"><path
         d="m 6966.99,-4179.7 v 104.37"
         style="fill:none;stroke:#262626;stroke-width:5.00246;stroke-linecap:square;stroke-linejoin:round;stroke-miterlimit:10;stroke-dasharray:none;stroke-opacity:1"
         id="path13289" /></g><g
       id="g13291"
       transform="scale(0.0999559,-0.100044)"><path
         d="m 8011.76,-4179.7 v 104.37"
         style="fill:none;stroke:#262626;stroke-width:5.00246;stroke-linecap:square;stroke-linejoin:round;stroke-miterlimit:10;stroke-dasharray:none;stroke-opacity:1"
         id="path13293" /></g><g
       id="g13295"
       transform="scale(0.0999559,-0.100044)"><path
         d="m 9056.54,-4179.7 v 104.37"
         style="fill:none;stroke:#262626;stroke-width:5.00246;stroke-linecap:square;stroke-linejoin:round;stroke-miterlimit:10;stroke-dasharray:none;stroke-opacity:1"
         id="path13297" /></g><g
       id="g13299"
       transform="scale(0.0999559,-0.100044)"><path
         d="m 10101.3,-4179.7 v 104.37"
         style="fill:none;stroke:#262626;stroke-width:5.00246;stroke-linecap:square;stroke-linejoin:round;stroke-miterlimit:10;stroke-dasharray:none;stroke-opacity:1"
         id="path13301" /></g><g
       id="g13303"
       transform="scale(0.0999559,-0.100044)"><path
         d="m 11146.1,-4179.7 v 104.37"
         style="fill:none;stroke:#262626;stroke-width:5.00246;stroke-linecap:square;stroke-linejoin:round;stroke-miterlimit:10;stroke-dasharray:none;stroke-opacity:1"
         id="path13305" /></g><g
       id="g13307"
       transform="scale(0.0999559,-0.100044)"><path
         d="m 12190.9,-4179.7 v 104.37"
         style="fill:none;stroke:#262626;stroke-width:5.00246;stroke-linecap:square;stroke-linejoin:round;stroke-miterlimit:10;stroke-dasharray:none;stroke-opacity:1"
         id="path13309" /></g><g
       id="g13311"><text
         transform="matrix(0.999118,0,0,-1,263.358,25.0332)"
         style="font-variant:normal;font-weight:normal;font-size:18.024px;font-family:Helvetica;-inkscape-font-specification:Helvetica;writing-mode:lr-tb;fill:#262626;fill-opacity:1;fill-rule:nonzero;stroke:none"
         id="text13315"><tspan
           x="0 10.021344 20.042688 104.52316 114.5445 124.56585 209.04668 219.06802 229.08937 313.56982 323.59119 333.61252 418.09299 428.11435 438.13568 522.61615 532.63751 542.65881 627.13965 637.16101 647.18237 731.66284 741.6842 751.70551 836.18597 846.20734 856.2287 935.90289 945.92419 955.94556 965.96692"
           y="0"
           sodipodi:role="line"
           id="tspan13313">1002003004005006007008009001000</tspan></text></g><g
       id="g13317"
       transform="scale(0.0999559,-0.100044)"><path
         d="M 1753.56,-492.416 V -4179.7"
         style="fill:none;stroke:#262626;stroke-width:5.00246;stroke-linecap:square;stroke-linejoin:round;stroke-miterlimit:10;stroke-dasharray:none;stroke-opacity:1"
         id="path13319" /></g><g
       id="g13321"
       transform="scale(0.0999559,-0.100044)"><path
         d="M 12190.9,-492.416 V -4179.7"
         style="fill:none;stroke:#262626;stroke-width:5.00246;stroke-linecap:square;stroke-linejoin:round;stroke-miterlimit:10;stroke-dasharray:none;stroke-opacity:1"
         id="path13323" /></g><g
       id="g13325"
       transform="scale(0.0999559,-0.100044)"><path
         d="m 1753.56,-492.416 h 104.38"
         style="fill:none;stroke:#262626;stroke-width:5.00246;stroke-linecap:square;stroke-linejoin:round;stroke-miterlimit:10;stroke-dasharray:none;stroke-opacity:1"
         id="path13327" /></g><g
       id="g13329"
       transform="scale(0.0999559,-0.100044)"><path
         d="m 1753.56,-1229.87 h 104.38"
         style="fill:none;stroke:#262626;stroke-width:5.00246;stroke-linecap:square;stroke-linejoin:round;stroke-miterlimit:10;stroke-dasharray:none;stroke-opacity:1"
         id="path13331" /></g><g
       id="g13333"
       transform="scale(0.0999559,-0.100044)"><path
         d="m 1753.56,-1967.33 h 104.38"
         style="fill:none;stroke:#262626;stroke-width:5.00246;stroke-linecap:square;stroke-linejoin:round;stroke-miterlimit:10;stroke-dasharray:none;stroke-opacity:1"
         id="path13335" /></g><g
       id="g13337"
       transform="scale(0.0999559,-0.100044)"><path
         d="m 1753.56,-2704.79 h 104.38"
         style="fill:none;stroke:#262626;stroke-width:5.00246;stroke-linecap:square;stroke-linejoin:round;stroke-miterlimit:10;stroke-dasharray:none;stroke-opacity:1"
         id="path13339" /></g><g
       id="g13341"
       transform="scale(0.0999559,-0.100044)"><path
         d="m 1753.56,-3442.24 h 104.38"
         style="fill:none;stroke:#262626;stroke-width:5.00246;stroke-linecap:square;stroke-linejoin:round;stroke-miterlimit:10;stroke-dasharray:none;stroke-opacity:1"
         id="path13343" /></g><g
       id="g13345"
       transform="scale(0.0999559,-0.100044)"><path
         d="m 1753.56,-4179.7 h 104.38"
         style="fill:none;stroke:#262626;stroke-width:5.00246;stroke-linecap:square;stroke-linejoin:round;stroke-miterlimit:10;stroke-dasharray:none;stroke-opacity:1"
         id="path13347" /></g><g
       id="g13349"
       transform="scale(0.0999559,-0.100044)"><path
         d="m 12190.9,-492.416 h -104.4"
         style="fill:none;stroke:#262626;stroke-width:5.00246;stroke-linecap:square;stroke-linejoin:round;stroke-miterlimit:10;stroke-dasharray:none;stroke-opacity:1"
         id="path13351" /></g><g
       id="g13353"
       transform="scale(0.0999559,-0.100044)"><path
         d="m 12190.9,-1229.87 h -104.4"
         style="fill:none;stroke:#262626;stroke-width:5.00246;stroke-linecap:square;stroke-linejoin:round;stroke-miterlimit:10;stroke-dasharray:none;stroke-opacity:1"
         id="path13355" /></g><g
       id="g13357"
       transform="scale(0.0999559,-0.100044)"><path
         d="m 12190.9,-1967.33 h -104.4"
         style="fill:none;stroke:#262626;stroke-width:5.00246;stroke-linecap:square;stroke-linejoin:round;stroke-miterlimit:10;stroke-dasharray:none;stroke-opacity:1"
         id="path13359" /></g><g
       id="g13361"
       transform="scale(0.0999559,-0.100044)"><path
         d="m 12190.9,-2704.79 h -104.4"
         style="fill:none;stroke:#262626;stroke-width:5.00246;stroke-linecap:square;stroke-linejoin:round;stroke-miterlimit:10;stroke-dasharray:none;stroke-opacity:1"
         id="path13363" /></g><g
       id="g13365"
       transform="scale(0.0999559,-0.100044)"><path
         d="m 12190.9,-3442.24 h -104.4"
         style="fill:none;stroke:#262626;stroke-width:5.00246;stroke-linecap:square;stroke-linejoin:round;stroke-miterlimit:10;stroke-dasharray:none;stroke-opacity:1"
         id="path13367" /></g><g
       id="g13369"
       transform="scale(0.0999559,-0.100044)"><path
         d="m 12190.9,-4179.7 h -104.4"
         style="fill:none;stroke:#262626;stroke-width:5.00246;stroke-linecap:square;stroke-linejoin:round;stroke-miterlimit:10;stroke-dasharray:none;stroke-opacity:1"
         id="path13371" /></g><g
       id="g13373"><text
         transform="matrix(0.999118,0,0,-1,159.471,42.0559)"
         style="font-variant:normal;font-weight:normal;font-size:18.024px;font-family:Helvetica;-inkscape-font-specification:Helvetica;writing-mode:lr-tb;fill:#262626;fill-opacity:1;fill-rule:nonzero;stroke:none"
         id="text13387"><tspan
           x="0"
           y="0"
           id="tspan13375">0</tspan><tspan
           x="-15.0199 -4.9985561 0.012116"
           y="-73.777702"
           sodipodi:role="line"
           id="tspan13377">0.2</tspan><tspan
           x="-15.0199 -4.9985561 0.012116"
           y="-147.5554"
           sodipodi:role="line"
           id="tspan13379">0.4</tspan><tspan
           x="-15.0199 -4.9985561 0.012116"
           y="-221.3335"
           sodipodi:role="line"
           id="tspan13381">0.6</tspan><tspan
           x="-15.0199 -4.9985561 0.012116"
           y="-295.11121"
           sodipodi:role="line"
           id="tspan13383">0.8</tspan><tspan
           x="0"
           y="-368.88889"
           id="tspan13385">1</tspan></text></g><g
       id="g13389"><text
         transform="matrix(0.999118,0,0,-1,391.074,425.965)"
         style="font-variant:normal;font-weight:bold;font-size:20.0265px;font-family:Helvetica;-inkscape-font-specification:Helvetica-Bold;writing-mode:lr-tb;fill:#000000;fill-opacity:1;fill-rule:nonzero;stroke:none"
         id="text13393"><tspan
           x="0 15.580617 26.715351 38.951542 50.086277 57.876583 63.443951 74.57869 80.146049 94.605186 105.73992 112.40874 123.54348 129.11084 135.77966 148.01585 153.58322 164.71796 170.28532 188.08888 200.32507 205.89244 217.02718 223.696 234.83073 240.3981 253.75578 260.42459 271.55933 283.79553 289.36288 303.82202 314.95676 326.09149 338.3277 350.56387 362.80008 373.93481 385.06955 390.6369 402.87311 409.54193 415.10928 426.24402 438.48022 444.04758 457.40527 468.54001 480.77618 493.01239 505.24857 516.3833 528.61951 535.28833 540.85571 551.99042 557.5578 563.12518 575.36133 580.92871 586.49609 593.16492 604.29962"
           y="0"
           sodipodi:role="line"
           id="tspan13391">Generic Data to simulate Step Response of an Exponential Filter</tspan></text></g><g
       id="g13395"
       transform="scale(0.0999559,-0.100044)"><path
         d="m 1753.56,-492.416 h 10.45 10.44 10.45 10.45 10.45 10.45 10.45 10.45 10.44 10.45 10.44 10.45 10.45 10.45 10.45 10.45 10.45 10.44 10.45 10.45 10.45 10.44 10.45 10.45 10.44 10.45 10.45 10.45 10.44 10.45 10.45 10.45 10.45 10.45 10.44 10.45 10.45 10.44 10.45 10.45 10.45 10.45 10.45 10.45 10.44 10.45 10.45 10.45 10.44 10.45 10.45 10.44 10.45 10.45 10.45 10.44 10.45 10.45 10.45 10.45 10.45 10.45 10.44 10.45 10.45 10.44 10.45 10.45 10.45 10.45 10.44 10.45 10.45 10.45 10.44 10.45 10.45 10.45 10.44 10.45 10.45 10.45 10.44 10.45 10.45 10.45 10.44 10.45 10.45 10.45 10.45 10.44 10.45 10.45 10.44 10.45 10.45 10.45 10.45 10.45 10.45 10.44 10.45 10.45 10.45 10.44 10.45 10.45 10.45 10.44 10.45 10.45 10.45 10.44 10.45 10.45 10.45 10.45 10.44 10.45 10.45 10.44 10.45 10.45 10.45 10.45 10.45 10.45 10.44 10.45 10.45 10.45 10.44 10.45 10.45 10.45 10.44 10.45 10.45 10.45 10.44 10.45 10.45 10.45 10.45 10.45 10.44 10.45 10.44 10.45 10.45 10.45 10.45 10.44 10.45 10.45 10.45 10.45 10.45 10.44 10.45 10.45 10.45 10.44 10.45 10.45 10.45 10.44 10.45 10.45 10.44 10.45 10.45 10.45 10.45 10.44 10.45 10.45 10.44 10.45 10.45 10.45 10.45 10.45 10.45 10.45 10.44 10.45 10.45 10.45 10.44 10.45 10.45 10.45 10.44 10.45 10.45 10.44 10.45 10.45 10.45 10.45 10.44 10.45 10.45 10.44 10.45 10.45 10.45 10.45 10.45 10.45 10.45 10.44 10.45 10.45 10.44 10.45 10.45 10.45 10.44 10.45 10.45 10.45 10.44 10.45 10.45 10.45 10.45 10.45 10.44 10.45 10.44 10.45 10.45 10.45 10.44 10.45 10.45 10.45 10.45 10.45 10.45 10.45 10.44 10.45 10.45 10.44 10.45 10.45 10.45 10.44 10.45 10.45 10.45 10.44 10.45 10.45 10.45 10.44 10.45 10.45 10.45 10.44 10.45 10.45 10.45 10.45 10.45 10.45 10.44 10.45 10.45 10.45 10.44 10.45 10.45 10.45 10.44 10.45 10.45 10.45 10.44 10.45 10.45 10.45 10.44 10.45 10.45 10.45 10.44 10.45 10.45 10.45 10.45 10.45 10.45 10.44 10.45 10.45 10.45 10.44 10.45 10.45 10.45 10.44 10.45 10.45 10.45 10.44 10.45 10.45 10.45 10.44 10.45 10.45 10.44 10.45 10.45 10.45 10.44 10.45 10.45 10.45 10.45 10.45 10.45 10.45 10.44 10.45 10.45 10.44 10.45 10.45 10.45 10.45 10.44 10.45 10.45 10.45 10.44 10.45 10.45 10.44 10.45 10.45 10.45 10.44 10.45 10.45 10.45 10.45 10.45 10.45 10.45 10.44 10.45 10.45 10.44 10.45 10.45 10.45 10.45 10.44 10.45 10.45 10.44 10.45 10.45 10.45 10.44 10.45 10.45 10.45 10.44 10.45 10.45 10.45 10.45 10.45 10.45 10.45 10.44 10.45 10.45 10.44 10.45 10.45 10.45 10.44 10.45 10.45 10.45 10.44 10.45 10.45 10.45 10.44 10.45 10.45 10.45 10.44 10.45 10.45 10.45 10.44 10.45 10.45 10.45 10.45 10.45 10.45 10.44 10.45 10.45 10.44 10.45 10.45 10.45 10.45 10.44 10.45 10.45 10.45 10.44 10.45 10.45 10.45 10.44 10.45 10.45 10.45 10.44 10.45 10.45 10.45 10.45 10.45 10.45 10.44 10.45 10.45 10.44 10.45 10.45 10.45 10.45 10.44 10.45 10.45 10.45 10.44 10.45 10.45 10.45 10.44 10.45 10.45 10.45 10.44 10.45 10.45 10.45 10.45 10.45 10.45 10.44 10.45 10.45 10.44 10.45 10.45 10.44 10.45 10.45 10.45 10.45 10.45 10.44 10.45 10.45 10.45 10.44 10.45 10.45 10.45 10.44 10.45 10.45 10.44 10.45 10.45 10.45 10.45 10.45 10.45 10.44 10.45 10.45 l 10.44,-3687.284 h 10.45 10.45 10.45 10.45 10.45 10.44 10.45 10.45 10.45 10.44 10.45 10.45 10.44 10.45 10.45 10.45 10.44 10.45 10.45 10.45 10.45 10.45 10.45 10.44 10.45 10.45 10.44 10.45 10.45 10.45 10.45 10.45 10.44 10.45 10.45 10.44 10.45 10.45 10.45 10.44 10.45 10.45 10.45 10.44 10.45 10.45 10.45 10.45 10.45 10.44 10.45 10.45 10.45 10.44 10.45 10.45 10.44 10.45 10.45 10.45 10.45 10.45 10.45 10.44 10.45 10.45 10.44 10.45 10.45 10.45 10.44 10.45 10.45 10.45 10.44 10.45 10.45 10.45 10.45 10.44 10.45 10.45 10.44 10.45 10.45 10.45 10.45 10.45 10.45 10.44 10.45 10.45 10.45 10.44 10.45 10.45 10.45 10.44 10.45 10.45 10.45 10.44 10.45 10.45 10.45 10.45 10.45 10.44 10.45 10.44 10.45 10.45 10.45 10.45 10.45 10.45 10.44 10.45 10.45 10.45 10.44 10.45 10.45 10.45 10.44 10.45 10.45 10.45 10.44 10.45 10.45 10.45 10.44 10.45 10.45 10.45 10.45 10.44 10.45 10.45 10.44 10.45 10.45 10.45 10.45 10.45 10.45 10.44 10.45 10.45 10.45 10.44 10.45 10.45 10.45 10.44 10.45 10.45 10.45 10.44 10.45 10.45 10.45 10.45 10.44 10.45 10.45 10.44 10.45 10.45 10.45 10.45 10.45 10.45 10.44 10.45 10.45 10.45 10.44 10.45 10.45 10.45 10.44 10.45 10.45 10.44 10.45 10.45 10.45 10.45 10.45 10.44 10.45 10.45 10.44 10.45 10.45 10.45 10.45 10.45 10.45 10.44 10.45 10.45 10.44 10.45 10.45 10.45 10.44 10.45 10.45 10.45 10.44 10.45 10.45 10.45 10.44 10.45 10.45 10.45 10.45 10.44 10.45 10.45 10.44 10.45 10.45 10.45 10.45 10.45 10.45 10.45 10.44 10.45 10.45 10.44 10.45 10.45 10.45 10.44 10.45 10.45 10.45 10.44 10.45 10.45 10.45 10.44 10.45 10.45 10.45 10.44 10.45 10.45 10.45 10.45 10.45 10.45 10.44 10.45 10.45 10.45 10.44 10.45 10.45 10.45 10.44 10.45 10.45 10.45 10.44 10.45 10.45 10.45 10.45 10.44 10.45 10.45 10.44 10.45 10.45 10.45 10.45 10.45 10.45 10.44 10.45 10.45 10.45 10.46 10.4 10.5 10.4 10.5 10.4 10.5 10.4 10.5 10.4 10.5 10.4 10.5 10.4 10.5 10.4 10.4 10.5 10.4 10.5 10.4 10.5 10.4 10.5 10.4 10.5 10.4 10.5 10.4 10.5 10.4 10.5 10.4 10.5 10.4 10.5 10.4 10.4 10.5 10.4 10.5 10.4 10.5 10.4 10.5 10.4 10.5 10.4 10.5 10.4 10.5 10.4 10.5 10.4 10.5 10.4 10.5 10.4 10.4 10.5 10.4 10.5 10.4 10.5 10.4 10.5 10.4 10.5 10.4 10.5 10.4 10.5 10.4 10.5 10.4 10.5 10.4 10.5 10.4 10.5 10.4 10.4 10.5 10.4 10.5 10.4 10.5 10.4 10.5 10.4 10.5 10.4 10.5 10.4 10.5 10.4 10.5 10.4 10.5 10.4 10.5 10.4 10.5 10.4 10.4 10.5 10.4 10.5 10.4 10.5 10.4 10.5 10.4 10.5 10.4 10.5 10.4 10.5 10.4 10.5 10.4 10.5 10.4 10.4 10.5 10.4 10.5 10.4 10.5 10.4 10.5 10.4 10.5 10.4 10.5 10.4 10.5 10.4 10.5 10.4 10.5 10.4 10.5 10.4 10.5 10.4 10.5 10.4 10.4 10.5 10.4 10.5 10.4 10.5 10.4 10.5 10.4 10.5 10.4 10.5 10.4 10.5 10.4 10.5 10.4 10.5 10.4 10.5 10.4 10.4 10.5 10.4 10.5 10.4 10.5 10.4 10.5 10.4 10.5 10.4 10.5 10.4 10.5 10.4 10.5 10.4 10.5 10.4 10.5 10.4 10.5 10.4 10.4 10.5 10.4 10.5 10.4 10.5 10.4 10.5 10.4 10.5 10.4 10.5 10.4 10.5 10.4 10.5 10.4 10.5"
         style="fill:none;stroke:#99c2ff;stroke-width:10.0109;stroke-linecap:butt;stroke-linejoin:round;stroke-miterlimit:10;stroke-dasharray:none;stroke-opacity:1"
         id="path13397" /></g><g
       id="g13399"
       transform="scale(0.0999559,-0.100044)"><path
         d="m 1753.56,-492.416 h 10.45 10.44 10.45 10.45 10.45 10.45 10.45 10.45 10.44 10.45 10.44 10.45 10.45 10.45 10.45 10.45 10.45 10.44 10.45 10.45 10.45 10.44 10.45 10.45 10.44 10.45 10.45 10.45 10.44 10.45 10.45 10.45 10.45 10.45 10.44 10.45 10.45 10.44 10.45 10.45 10.45 10.45 10.45 10.45 10.44 10.45 10.45 10.45 10.44 10.45 10.45 10.44 10.45 10.45 10.45 10.44 10.45 10.45 10.45 10.45 10.45 10.45 10.44 10.45 10.45 10.44 10.45 10.45 10.45 10.45 10.44 10.45 10.45 10.45 10.44 10.45 10.45 10.45 10.44 10.45 10.45 10.45 10.44 10.45 10.45 10.45 10.44 10.45 10.45 10.45 10.45 10.44 10.45 10.45 10.44 10.45 10.45 10.45 10.45 10.45 10.45 10.44 10.45 10.45 10.45 10.44 10.45 10.45 10.45 10.44 10.45 10.45 10.45 10.44 10.45 10.45 10.45 10.45 10.44 10.45 10.45 10.44 10.45 10.45 10.45 10.45 10.45 10.45 10.44 10.45 10.45 10.45 10.44 10.45 10.45 10.45 10.44 10.45 10.45 10.45 10.44 10.45 10.45 10.45 10.45 10.45 10.44 10.45 10.44 10.45 10.45 10.45 10.45 10.44 10.45 10.45 10.45 10.45 10.45 10.44 10.45 10.45 10.45 10.44 10.45 10.45 10.45 10.44 10.45 10.45 10.44 10.45 10.45 10.45 10.45 10.44 10.45 10.45 10.44 10.45 10.45 10.45 10.45 10.45 10.45 10.45 10.44 10.45 10.45 10.45 10.44 10.45 10.45 10.45 10.44 10.45 10.45 10.44 10.45 10.45 10.45 10.45 10.44 10.45 10.45 10.44 10.45 10.45 10.45 10.45 10.45 10.45 10.45 10.44 10.45 10.45 10.44 10.45 10.45 10.45 10.44 10.45 10.45 10.45 10.44 10.45 10.45 10.45 10.45 10.45 10.44 10.45 10.44 10.45 10.45 10.45 10.44 10.45 10.45 10.45 10.45 10.45 10.45 10.45 10.44 10.45 10.45 10.44 10.45 10.45 10.45 10.44 10.45 10.45 10.45 10.44 10.45 10.45 10.45 10.44 10.45 10.45 10.45 10.44 10.45 10.45 10.45 10.45 10.45 10.45 10.44 10.45 10.45 10.45 10.44 10.45 10.45 10.45 10.44 10.45 10.45 10.45 10.44 10.45 10.45 10.45 10.44 10.45 10.45 10.45 10.44 10.45 10.45 10.45 10.45 10.45 10.45 10.44 10.45 10.45 10.45 10.44 10.45 10.45 10.45 10.44 10.45 10.45 10.45 10.44 10.45 10.45 10.45 10.44 10.45 10.45 10.44 10.45 10.45 10.45 10.44 10.45 10.45 10.45 10.45 10.45 10.45 10.45 10.44 10.45 10.45 10.44 10.45 10.45 10.45 10.45 10.44 10.45 10.45 10.45 10.44 10.45 10.45 10.44 10.45 10.45 10.45 10.44 10.45 10.45 10.45 10.45 10.45 10.45 10.45 10.44 10.45 10.45 10.44 10.45 10.45 10.45 10.45 10.44 10.45 10.45 10.44 10.45 10.45 10.45 10.44 10.45 10.45 10.45 10.44 10.45 10.45 10.45 10.45 10.45 10.45 10.45 10.44 10.45 10.45 10.44 10.45 10.45 10.45 10.44 10.45 10.45 10.45 10.44 10.45 10.45 10.45 10.44 10.45 10.45 10.45 10.44 10.45 10.45 10.45 10.44 10.45 10.45 10.45 10.45 10.45 10.45 10.44 10.45 10.45 10.44 10.45 10.45 10.45 10.45 10.44 10.45 10.45 10.45 10.44 10.45 10.45 10.45 10.44 10.45 10.45 10.45 10.44 10.45 10.45 10.45 10.45 10.45 10.45 10.44 10.45 10.45 10.44 10.45 10.45 10.45 10.45 10.44 10.45 10.45 10.45 10.44 10.45 10.45 10.45 10.44 10.45 10.45 10.45 10.44 10.45 10.45 10.45 10.45 10.45 10.45 10.44 10.45 10.45 10.44 10.45 10.45 10.44 10.45 10.45 10.45 10.45 10.45 10.44 10.45 10.45 10.45 10.44 10.45 10.45 10.45 10.44 10.45 10.45 10.44 10.45 10.45 10.45 10.45 10.45 10.45 10.44 10.45 10.45 l 10.44,-36.87 10.45,-36.507 10.45,-36.137 10.45,-35.777 10.45,-35.422 10.45,-35.062 10.44,-34.719 10.45,-34.368 10.45,-34.02 10.45,-33.685 10.44,-33.348 10.45,-33.017 10.45,-32.681 10.44,-32.357 10.45,-32.034 10.45,-31.71 10.45,-31.4 10.44,-31.08 10.45,-30.77 10.45,-30.46 10.45,-30.16 10.45,-29.86 10.45,-29.56 10.45,-29.26 10.44,-28.97 10.45,-28.68 10.45,-28.4 10.44,-28.1 10.45,-27.83 10.45,-27.55 10.45,-27.28 10.45,-27 10.45,-26.73 10.44,-26.47 10.45,-26.2 10.45,-25.93 10.44,-25.68 10.45,-25.42 10.45,-25.17 10.45,-24.92 10.44,-24.67 10.45,-24.42 10.45,-24.17 10.45,-23.94 10.44,-23.69 10.45,-23.46 10.45,-23.22 10.45,-23 10.45,-22.76 10.45,-22.53 10.44,-22.31 10.45,-22.08 10.45,-21.87 10.45,-21.64 10.44,-21.43 10.45,-21.22 10.45,-21 10.44,-20.8 10.45,-20.58 10.45,-20.38 10.45,-20.17 10.45,-19.97 10.45,-19.78 10.45,-19.58 10.44,-19.38 10.45,-19.18 10.45,-19 10.44,-18.8 10.45,-18.62 10.45,-18.43 10.45,-18.24 10.44,-18.07 10.45,-17.88 10.45,-17.7 10.45,-17.53 10.44,-17.35 10.45,-17.19 10.45,-17 10.45,-16.83 10.45,-16.68 10.44,-16.5 10.45,-16.33 10.45,-16.18 10.44,-16 10.45,-15.86 10.45,-15.69 10.45,-15.54 10.45,-15.38 10.45,-15.22 10.45,-15.08 10.44,-14.92 10.45,-14.78 10.45,-14.62 10.45,-14.48 10.44,-14.34 10.45,-14.19 10.45,-14.05 10.45,-13.91 10.44,-13.77 10.45,-13.63 10.45,-13.5 10.45,-13.37 10.44,-13.22 10.45,-13.1 10.45,-12.96 10.45,-12.84 10.45,-12.7 10.45,-12.58 10.44,-12.46 10.45,-12.33 10.44,-12.2 10.45,-12.08 10.45,-11.97 10.45,-11.84 10.45,-11.73 10.45,-11.6 10.45,-11.5 10.44,-11.37 10.45,-11.27 10.45,-11.14 10.45,-11.05 10.44,-10.93 10.45,-10.82 10.45,-10.71 10.45,-10.6 10.44,-10.5 10.45,-10.39 10.45,-10.29 10.45,-10.19 10.44,-10.08 10.45,-9.98 10.45,-9.89 10.45,-9.78 10.44,-9.69 10.45,-9.59 10.45,-9.49 10.45,-9.41 10.45,-9.3 10.44,-9.21 10.45,-9.12 10.45,-9.03 10.44,-8.94 10.45,-8.85 10.45,-8.76 10.45,-8.67 10.45,-8.59 10.45,-8.49 10.45,-8.43 10.44,-8.32 10.45,-8.25 10.45,-8.17 10.45,-8.08 10.44,-8.01 10.45,-7.92 10.45,-7.85 10.45,-7.76 10.44,-7.69 10.45,-7.61 10.45,-7.53 10.45,-7.46 10.44,-7.39 10.45,-7.31 10.45,-7.24 10.45,-7.16 10.45,-7.09 10.44,-7.02 10.45,-6.96 10.45,-6.88 10.44,-6.82 10.45,-6.74 10.45,-6.68 10.45,-6.61 10.45,-6.55 10.45,-6.48 10.45,-6.42 10.44,-6.35 10.45,-6.28 10.45,-6.23 10.45,-6.16 10.44,-6.11 10.45,-6.04 10.45,-5.97 10.45,-5.92 10.44,-5.86 10.45,-5.81 10.45,-5.74 10.44,-5.69 10.45,-5.62 10.45,-5.58 10.45,-5.52 10.45,-5.46 10.45,-5.41 10.44,-5.35 10.45,-5.3 10.45,-5.25 10.44,-5.19 10.45,-5.15 10.45,-5.09 10.45,-5.04 10.45,-4.98 10.45,-4.95 10.45,-4.89 10.44,-4.84 10.45,-4.8 10.45,-4.74 10.44,-4.7 10.45,-4.65 10.45,-4.6 10.45,-4.57 10.44,-4.51 10.45,-4.46 10.45,-4.43 10.45,-4.38 10.44,-4.33 10.45,-4.3 10.45,-4.24 10.45,-4.21 10.44,-4.16 10.45,-4.12 10.45,-4.08 10.45,-4.05 10.45,-4 10.44,-3.95 10.45,-3.93 10.45,-3.88 10.44,-3.84 10.45,-3.81 10.45,-3.76 10.45,-3.73 10.45,-3.69 10.45,-3.65 10.45,-3.63 10.45,-3.57 10.44,-3.55 10.45,-3.51 10.45,-3.48 10.44,-3.43 10.45,-3.41 10.45,-3.37 10.45,-3.34 10.44,-3.3 10.45,-3.28 10.45,-3.24 10.45,-3.21 10.44,-3.17 10.45,-3.14 10.45,-3.12 10.45,-3.08 10.44,-3.04 10.45,-3.02 10.45,-3 10.45,-2.95 10.44,-2.93 10.45,-2.9 10.45,-2.87 10.45,-2.85 10.45,-2.81 10.45,-2.78 10.45,-2.76 10.44,-2.73 10.45,-2.7 10.45,-2.68 10.45,-2.65 10.44,-2.63 10.45,-2.59 10.45,-2.57 10.45,-2.55 10.44,-2.51 10.45,-2.5 10.45,-2.47 10.45,-2.44 10.44,-2.42 10.45,-2.4 10.45,-2.37 10.45,-2.35 10.45,-2.33 10.44,-2.3 10.45,-2.28 10.45,-2.25 10.44,-2.23 10.45,-2.21 10.45,-2.19 10.45,-2.17 10.45,-2.15 10.45,-2.12 10.45,-2.11 10.44,-2.07 10.45,-2.06 10.45,-2.04 10.45,-2.02 10.46,-2 10.4,-1.98 10.5,-1.96 10.4,-1.94 10.5,-1.92 10.4,-1.91 10.5,-1.88 10.4,-1.86 10.5,-1.85 10.4,-1.82 10.5,-1.81 10.4,-1.79 10.5,-1.77 10.4,-1.75 10.5,-1.75 10.4,-1.71 10.4,-1.7 10.5,-1.69 10.4,-1.67 10.5,-1.65 10.4,-1.64 10.5,-1.62 10.4,-1.6 10.5,-1.59 10.4,-1.57 10.5,-1.56 10.4,-1.53 10.5,-1.53 10.4,-1.5 10.5,-1.5 10.4,-1.48 10.5,-1.46 10.4,-1.45 10.5,-1.43 10.4,-1.43 10.5,-1.41 10.4,-1.39 10.4,-1.38 10.5,-1.36 10.4,-1.35 10.5,-1.34 10.4,-1.32 10.5,-1.31 10.4,-1.3 10.5,-1.28 10.4,-1.28 10.5,-1.26 10.4,-1.25 10.5,-1.23 10.4,-1.22 10.5,-1.21 10.4,-1.2 10.5,-1.18 10.4,-1.18 10.5,-1.16 10.4,-1.15 10.5,-1.14 10.4,-1.13 10.4,-1.12 10.5,-1.1 10.4,-1.09 10.5,-1.08 10.4,-1.08 10.5,-1.05 10.4,-1.06 10.5,-1.04 10.4,-1.03 10.5,-1.02 10.4,-1.01 10.5,-1 10.4,-0.99 10.5,-0.98 10.4,-0.97 10.5,-0.96 10.4,-0.95 10.5,-0.94 10.4,-0.93 10.5,-0.92 10.4,-0.91 10.5,-0.91 10.4,-0.9 10.4,-0.88 10.5,-0.87 10.4,-0.87 10.5,-0.86 10.4,-0.86 10.5,-0.84 10.4,-0.83 10.5,-0.82 10.4,-0.83 10.5,-0.8 10.4,-0.81 10.5,-0.79 10.4,-0.79 10.5,-0.77 10.4,-0.77 10.5,-0.76 10.4,-0.76 10.5,-0.74 10.4,-0.74 10.5,-0.74 10.4,-0.72 10.5,-0.72 10.4,-0.7 10.4,-0.71 10.5,-0.7 10.4,-0.69 10.5,-0.68 10.4,-0.67 10.5,-0.67 10.4,-0.67 10.5,-0.65 10.4,-0.65 10.5,-0.64 10.4,-0.64 10.5,-0.62 10.4,-0.63 10.5,-0.61 10.4,-0.62 10.5,-0.6 10.4,-0.6 10.5,-0.59 10.4,-0.58 10.4,-0.59 10.5,-0.57 10.4,-0.57 10.5,-0.56 10.4,-0.56 10.5,-0.56 10.4,-0.54 10.5,-0.54 10.4,-0.54 10.5,-0.53 10.4,-0.53 10.5,-0.52 10.4,-0.51 10.5,-0.51 10.4,-0.51 10.5,-0.5 10.4,-0.49 10.5,-0.49 10.4,-0.49 10.5,-0.47 10.4,-0.48 10.5,-0.47 10.4,-0.46 10.5,-0.47 10.4,-0.45 10.4,-0.45 10.5,-0.45 10.4,-0.45 10.5,-0.43 10.4,-0.44 10.5,-0.42 10.4,-0.43 10.5,-0.42 10.4,-0.42 10.5,-0.41 10.4,-0.41 10.5,-0.41 10.4,-0.4 10.5,-0.39 10.4,-0.39 10.5,-0.39 10.4,-0.39 10.5,-0.38 10.4,-0.38 10.5,-0.37 10.4,-0.37 10.4,-0.36 10.5,-0.37 10.4,-0.35 10.5,-0.36 10.4,-0.35 10.5,-0.35 10.4,-0.34 10.5,-0.34 10.4,-0.34 10.5,-0.34 10.4,-0.33 10.5,-0.33 10.4,-0.32 10.5,-0.32 10.4,-0.32 10.5,-0.31 10.4,-0.31 10.5,-0.31 10.4,-0.3 10.5,-0.31 10.4,-0.3 10.5,-0.3 10.4,-0.29 10.4,-0.29 10.5,-0.29 10.4,-0.28 10.5,-0.28 10.4,-0.28 10.5,-0.28 10.4,-0.27 10.5,-0.27 10.4,-0.27 10.5,-0.26 10.4,-0.27 10.5,-0.26 10.4,-0.26 10.5,-0.25 10.4,-0.25 10.5,-0.25 10.4,-0.25 10.5,-0.24"
         style="fill:none;stroke:#edb120;stroke-width:15.0134;stroke-linecap:butt;stroke-linejoin:round;stroke-miterlimit:10;stroke-dasharray:none;stroke-opacity:1"
         id="path13401" /></g><g
       id="g13403"
       transform="scale(0.0999559,-0.100044)"><path
         d="m 1753.56,-492.416 h 10.45 10.44 10.45 10.45 10.45 10.45 10.45 10.45 10.44 10.45 10.44 10.45 10.45 10.45 10.45 10.45 10.45 10.44 10.45 10.45 10.45 10.44 10.45 10.45 10.44 10.45 10.45 10.45 10.44 10.45 10.45 10.45 10.45 10.45 10.44 10.45 10.45 10.44 10.45 10.45 10.45 10.45 10.45 10.45 10.44 10.45 10.45 10.45 10.44 10.45 10.45 10.44 10.45 10.45 10.45 10.44 10.45 10.45 10.45 10.45 10.45 10.45 10.44 10.45 10.45 10.44 10.45 10.45 10.45 10.45 10.44 10.45 10.45 10.45 10.44 10.45 10.45 10.45 10.44 10.45 10.45 10.45 10.44 10.45 10.45 10.45 10.44 10.45 10.45 10.45 10.45 10.44 10.45 10.45 10.44 10.45 10.45 10.45 10.45 10.45 10.45 10.44 10.45 10.45 10.45 10.44 10.45 10.45 10.45 10.44 10.45 10.45 10.45 10.44 10.45 10.45 10.45 10.45 10.44 10.45 10.45 10.44 10.45 10.45 10.45 10.45 10.45 10.45 10.44 10.45 10.45 10.45 10.44 10.45 10.45 10.45 10.44 10.45 10.45 10.45 10.44 10.45 10.45 10.45 10.45 10.45 10.44 10.45 10.44 10.45 10.45 10.45 10.45 10.44 10.45 10.45 10.45 10.45 10.45 10.44 10.45 10.45 10.45 10.44 10.45 10.45 10.45 10.44 10.45 10.45 10.44 10.45 10.45 10.45 10.45 10.44 10.45 10.45 10.44 10.45 10.45 10.45 10.45 10.45 10.45 10.45 10.44 10.45 10.45 10.45 10.44 10.45 10.45 10.45 10.44 10.45 10.45 10.44 10.45 10.45 10.45 10.45 10.44 10.45 10.45 10.44 10.45 10.45 10.45 10.45 10.45 10.45 10.45 10.44 10.45 10.45 10.44 10.45 10.45 10.45 10.44 10.45 10.45 10.45 10.44 10.45 10.45 10.45 10.45 10.45 10.44 10.45 10.44 10.45 10.45 10.45 10.44 10.45 10.45 10.45 10.45 10.45 10.45 10.45 10.44 10.45 10.45 10.44 10.45 10.45 10.45 10.44 10.45 10.45 10.45 10.44 10.45 10.45 10.45 10.44 10.45 10.45 10.45 10.44 10.45 10.45 10.45 10.45 10.45 10.45 10.44 10.45 10.45 10.45 10.44 10.45 10.45 10.45 10.44 10.45 10.45 10.45 10.44 10.45 10.45 10.45 10.44 10.45 10.45 10.45 10.44 10.45 10.45 10.45 10.45 10.45 10.45 10.44 10.45 10.45 10.45 10.44 10.45 10.45 10.45 10.44 10.45 10.45 10.45 10.44 10.45 10.45 10.45 10.44 10.45 10.45 10.44 10.45 10.45 10.45 10.44 10.45 10.45 10.45 10.45 10.45 10.45 10.45 10.44 10.45 10.45 10.44 10.45 10.45 10.45 10.45 10.44 10.45 10.45 10.45 10.44 10.45 10.45 10.44 10.45 10.45 10.45 10.44 10.45 10.45 10.45 10.45 10.45 10.45 10.45 10.44 10.45 10.45 10.44 10.45 10.45 10.45 10.45 10.44 10.45 10.45 10.44 10.45 10.45 10.45 10.44 10.45 10.45 10.45 10.44 10.45 10.45 10.45 10.45 10.45 10.45 10.45 10.44 10.45 10.45 10.44 10.45 10.45 10.45 10.44 10.45 10.45 10.45 10.44 10.45 10.45 10.45 10.44 10.45 10.45 10.45 10.44 10.45 10.45 10.45 10.44 10.45 10.45 10.45 10.45 10.45 10.45 10.44 10.45 10.45 10.44 10.45 10.45 10.45 10.45 10.44 10.45 10.45 10.45 10.44 10.45 10.45 10.45 10.44 10.45 10.45 10.45 10.44 10.45 10.45 10.45 10.45 10.45 10.45 10.44 10.45 10.45 10.44 10.45 10.45 10.45 10.45 10.44 10.45 10.45 10.45 10.44 10.45 10.45 10.45 10.44 10.45 10.45 10.45 10.44 10.45 10.45 10.45 10.45 10.45 10.45 10.44 10.45 10.45 10.44 10.45 10.45 10.44 10.45 10.45 10.45 10.45 10.45 10.44 10.45 10.45 10.45 10.44 10.45 10.45 10.45 10.44 10.45 10.45 10.44 10.45 10.45 10.45 10.45 10.45 10.45 10.44 10.45 10.45 l 10.44,-184.363 10.45,-175.146 10.45,-166.395 10.45,-158.06 10.45,-150.17 10.45,-142.66 10.44,-135.52 10.45,-128.75 10.45,-122.31 10.45,-116.2 10.44,-110.38 10.45,-104.87 10.45,-99.62 10.44,-94.65 10.45,-89.9 10.45,-85.41 10.45,-81.15 10.44,-77.09 10.45,-73.23 10.45,-69.57 10.45,-66.09 10.45,-62.79 10.45,-59.65 10.45,-56.67 10.44,-53.83 10.45,-51.14 10.45,-48.58 10.44,-46.15 10.45,-43.85 10.45,-41.66 10.45,-39.56 10.45,-37.6 10.45,-35.71 10.44,-33.93 10.45,-32.23 10.45,-30.62 10.44,-29.09 10.45,-27.63 10.45,-26.26 10.45,-24.94 10.44,-23.69 10.45,-22.51 10.45,-21.38 10.45,-20.32 10.44,-19.3 10.45,-18.33 10.45,-17.42 10.45,-16.54 10.45,-15.72 10.45,-14.93 10.44,-14.19 10.45,-13.47 10.45,-12.81 10.45,-12.16 10.44,-11.55 10.45,-10.98 10.45,-10.43 10.44,-9.9 10.45,-9.41 10.45,-8.95 10.45,-8.49 10.45,-8.07 10.45,-7.67 10.45,-7.28 10.44,-6.92 10.45,-6.57 10.45,-6.24 10.44,-5.93 10.45,-5.64 10.45,-5.35 10.45,-5.08 10.44,-4.84 10.45,-4.58 10.45,-4.37 10.45,-4.14 10.44,-3.93 10.45,-3.75 10.45,-3.54 10.45,-3.38 10.45,-3.21 10.44,-3.04 10.45,-2.89 10.45,-2.75 10.44,-2.61 10.45,-2.48 10.45,-2.36 10.45,-2.23 10.45,-2.13 10.45,-2.02 10.45,-1.92 10.44,-1.82 10.45,-1.73 10.45,-1.64 10.45,-1.57 10.44,-1.49 10.45,-1.41 10.45,-1.34 10.45,-1.27 10.44,-1.21 10.45,-1.15 10.45,-1.09 10.45,-1.04 10.44,-0.98 10.45,-0.94 10.45,-0.89 10.45,-0.84 10.45,-0.8 10.45,-0.77 10.44,-0.72 10.45,-0.69 10.44,-0.65 10.45,-0.63 10.45,-0.58 10.45,-0.56 10.45,-0.54 10.45,-0.5 10.45,-0.48 10.44,-0.46 10.45,-0.43 10.45,-0.41 10.45,-0.39 10.44,-0.38 10.45,-0.35 10.45,-0.34 10.45,-0.32 10.44,-0.3 10.45,-0.29 10.45,-0.27 10.45,-0.26 10.44,-0.25 10.45,-0.23 10.45,-0.22 10.45,-0.21 10.44,-0.2 10.45,-0.19 10.45,-0.18 10.45,-0.18 10.45,-0.16 10.44,-0.16 10.45,-0.14 10.45,-0.14 10.44,-0.13 10.45,-0.13 10.45,-0.12 10.45,-0.12 10.45,-0.11 10.45,-0.1 10.45,-0.1 10.44,-0.09 10.45,-0.09 10.45,-0.08 10.45,-0.09 10.44,-0.07 10.45,-0.07 10.45,-0.07 10.45,-0.06 10.44,-0.07 10.45,-0.05 10.45,-0.06 10.45,-0.05 10.44,-0.06 10.45,-0.04 10.45,-0.05 10.45,-0.04 10.45,-0.04 10.44,-0.04 10.45,-0.04 10.45,-0.03 10.44,-0.03 10.45,-0.04 10.45,-0.03 10.45,-0.02 10.45,-0.03 10.45,-0.03 10.45,-0.02 10.44,-0.03 10.45,-0.02 10.45,-0.02 10.45,-0.02 10.44,-0.02 10.45,-0.02 10.45,-0.01 10.45,-0.02 10.44,-0.02 10.45,-0.02 10.45,-0.01 10.44,-0.01 10.45,-0.01 10.45,-0.01 10.45,-0.01 10.45,-0.02 10.45,-0.01 h 10.44 l 10.45,-0.02 h 10.45 l 10.44,-0.01 10.45,-0.01 h 10.45 l 10.45,-0.01 10.45,-0.01 10.45,-0.01 10.45,-0.01 h 10.44 10.45 l 10.45,-0.01 h 10.44 l 10.45,-0.01 10.45,-0.01 h 10.45 10.44 l 10.45,-0.01 h 10.45 10.45 10.44 l 10.45,-0.01 h 10.45 10.45 10.44 l 10.45,-0.01 h 10.45 l 10.45,-0.01 h 10.45 10.44 10.45 10.45 10.44 l 10.45,-0.01 h 10.45 10.45 10.45 10.45 10.45 10.45 10.44 10.45 l 10.45,-0.01 h 10.44 10.45 10.45 10.45 10.44 l 10.45,-0.01 h 10.45 10.45 10.44 10.45 10.45 10.45 10.44 10.45 10.45 10.45 10.44 10.45 10.45 10.45 10.45 10.45 10.45 10.44 10.45 10.45 10.45 10.44 10.45 10.45 10.45 10.44 10.45 10.45 10.45 10.44 10.45 l 10.45,-0.01 h 10.45 10.45 10.44 10.45 10.45 10.44 10.45 10.45 10.45 10.45 10.45 10.45 10.44 10.45 10.45 10.45 10.46 10.4 10.5 10.4 10.5 10.4 10.5 10.4 10.5 10.4 10.5 10.4 10.5 10.4 10.5 10.4 10.4 10.5 10.4 10.5 10.4 10.5 10.4 10.5 10.4 10.5 10.4 10.5 10.4 10.5 10.4 10.5 10.4 10.5 10.4 10.5 10.4 10.4 10.5 10.4 10.5 10.4 10.5 10.4 10.5 10.4 10.5 10.4 10.5 10.4 10.5 10.4 10.5 10.4 10.5 10.4 10.5 10.4 10.4 10.5 10.4 10.5 10.4 10.5 10.4 10.5 10.4 10.5 10.4 10.5 10.4 10.5 10.4 10.5 10.4 10.5 10.4 10.5 10.4 10.5 10.4 10.4 10.5 10.4 10.5 10.4 10.5 10.4 10.5 10.4 10.5 10.4 10.5 10.4 10.5 10.4 10.5 10.4 10.5 10.4 10.5 10.4 10.5 10.4 10.4 10.5 10.4 10.5 10.4 10.5 10.4 10.5 10.4 10.5 10.4 10.5 10.4 10.5 10.4 10.5 10.4 10.5 10.4 10.4 10.5 10.4 10.5 10.4 10.5 10.4 10.5 10.4 10.5 10.4 10.5 10.4 10.5 10.4 10.5 10.4 10.5 10.4 10.5 10.4 10.5 10.4 10.5 10.4 10.4 10.5 10.4 10.5 10.4 10.5 10.4 10.5 10.4 10.5 10.4 10.5 10.4 10.5 10.4 10.5 10.4 10.5 10.4 10.5 10.4 10.4 10.5 10.4 10.5 10.4 10.5 10.4 10.5 10.4 10.5 10.4 10.5 10.4 10.5 10.4 10.5 10.4 10.5 10.4 10.5 10.4 10.5 10.4 10.4 10.5 10.4 10.5 10.4 10.5 10.4 10.5 10.4 10.5 10.4 10.5 10.4 10.5 10.4 10.5 10.4 10.5"
         style="fill:none;stroke:#77ac30;stroke-width:15.0134;stroke-linecap:butt;stroke-linejoin:round;stroke-miterlimit:10;stroke-dasharray:none;stroke-opacity:1"
         id="path13405" /></g><g
       id="g13407"
       transform="scale(0.0999559,-0.100044)"><path
         d="m 1753.56,-492.416 h 10.45 10.44 10.45 10.45 10.45 10.45 10.45 10.45 10.44 10.45 10.44 10.45 10.45 10.45 10.45 10.45 10.45 10.44 10.45 10.45 10.45 10.44 10.45 10.45 10.44 10.45 10.45 10.45 10.44 10.45 10.45 10.45 10.45 10.45 10.44 10.45 10.45 10.44 10.45 10.45 10.45 10.45 10.45 10.45 10.44 10.45 10.45 10.45 10.44 10.45 10.45 10.44 10.45 10.45 10.45 10.44 10.45 10.45 10.45 10.45 10.45 10.45 10.44 10.45 10.45 10.44 10.45 10.45 10.45 10.45 10.44 10.45 10.45 10.45 10.44 10.45 10.45 10.45 10.44 10.45 10.45 10.45 10.44 10.45 10.45 10.45 10.44 10.45 10.45 10.45 10.45 10.44 10.45 10.45 10.44 10.45 10.45 10.45 10.45 10.45 10.45 10.44 10.45 10.45 10.45 10.44 10.45 10.45 10.45 10.44 10.45 10.45 10.45 10.44 10.45 10.45 10.45 10.45 10.44 10.45 10.45 10.44 10.45 10.45 10.45 10.45 10.45 10.45 10.44 10.45 10.45 10.45 10.44 10.45 10.45 10.45 10.44 10.45 10.45 10.45 10.44 10.45 10.45 10.45 10.45 10.45 10.44 10.45 10.44 10.45 10.45 10.45 10.45 10.44 10.45 10.45 10.45 10.45 10.45 10.44 10.45 10.45 10.45 10.44 10.45 10.45 10.45 10.44 10.45 10.45 10.44 10.45 10.45 10.45 10.45 10.44 10.45 10.45 10.44 10.45 10.45 10.45 10.45 10.45 10.45 10.45 10.44 10.45 10.45 10.45 10.44 10.45 10.45 10.45 10.44 10.45 10.45 10.44 10.45 10.45 10.45 10.45 10.44 10.45 10.45 10.44 10.45 10.45 10.45 10.45 10.45 10.45 10.45 10.44 10.45 10.45 10.44 10.45 10.45 10.45 10.44 10.45 10.45 10.45 10.44 10.45 10.45 10.45 10.45 10.45 10.44 10.45 10.44 10.45 10.45 10.45 10.44 10.45 10.45 10.45 10.45 10.45 10.45 10.45 10.44 10.45 10.45 10.44 10.45 10.45 10.45 10.44 10.45 10.45 10.45 10.44 10.45 10.45 10.45 10.44 10.45 10.45 10.45 10.44 10.45 10.45 10.45 10.45 10.45 10.45 10.44 10.45 10.45 10.45 10.44 10.45 10.45 10.45 10.44 10.45 10.45 10.45 10.44 10.45 10.45 10.45 10.44 10.45 10.45 10.45 10.44 10.45 10.45 10.45 10.45 10.45 10.45 10.44 10.45 10.45 10.45 10.44 10.45 10.45 10.45 10.44 10.45 10.45 10.45 10.44 10.45 10.45 10.45 10.44 10.45 10.45 10.44 10.45 10.45 10.45 10.44 10.45 10.45 10.45 10.45 10.45 10.45 10.45 10.44 10.45 10.45 10.44 10.45 10.45 10.45 10.45 10.44 10.45 10.45 10.45 10.44 10.45 10.45 10.44 10.45 10.45 10.45 10.44 10.45 10.45 10.45 10.45 10.45 10.45 10.45 10.44 10.45 10.45 10.44 10.45 10.45 10.45 10.45 10.44 10.45 10.45 10.44 10.45 10.45 10.45 10.44 10.45 10.45 10.45 10.44 10.45 10.45 10.45 10.45 10.45 10.45 10.45 10.44 10.45 10.45 10.44 10.45 10.45 10.45 10.44 10.45 10.45 10.45 10.44 10.45 10.45 10.45 10.44 10.45 10.45 10.45 10.44 10.45 10.45 10.45 10.44 10.45 10.45 10.45 10.45 10.45 10.45 10.44 10.45 10.45 10.44 10.45 10.45 10.45 10.45 10.44 10.45 10.45 10.45 10.44 10.45 10.45 10.45 10.44 10.45 10.45 10.45 10.44 10.45 10.45 10.45 10.45 10.45 10.45 10.44 10.45 10.45 10.44 10.45 10.45 10.45 10.45 10.44 10.45 10.45 10.45 10.44 10.45 10.45 10.45 10.44 10.45 10.45 10.45 10.44 10.45 10.45 10.45 10.45 10.45 10.45 10.44 10.45 10.45 10.44 10.45 10.45 10.44 10.45 10.45 10.45 10.45 10.45 10.44 10.45 10.45 10.45 10.44 10.45 10.45 10.45 10.44 10.45 10.45 10.44 10.45 10.45 10.45 10.45 10.45 10.45 10.44 10.45 10.45 l 10.44,-1843.644 10.45,-921.82 10.45,-460.91 10.45,-230.46 10.45,-115.22 10.45,-57.61 10.44,-28.81 10.45,-14.41 10.45,-7.2 10.45,-3.6 10.44,-1.8 10.45,-0.9 10.45,-0.45 10.44,-0.23 10.45,-0.11 10.45,-0.05 10.45,-0.03 10.44,-0.02 h 10.45 10.45 l 10.45,-0.01 h 10.45 10.45 10.45 10.44 10.45 10.45 10.44 10.45 10.45 10.45 10.45 10.45 10.44 10.45 10.45 10.44 10.45 10.45 10.45 10.44 10.45 10.45 10.45 10.44 10.45 10.45 10.45 10.45 10.45 10.44 10.45 10.45 10.45 10.44 10.45 10.45 10.44 10.45 10.45 10.45 10.45 10.45 10.45 10.44 10.45 10.45 10.44 10.45 10.45 10.45 10.44 10.45 10.45 10.45 10.44 10.45 10.45 10.45 10.45 10.44 10.45 10.45 10.44 10.45 10.45 10.45 10.45 10.45 10.45 10.44 10.45 10.45 10.45 10.44 10.45 10.45 10.45 10.44 10.45 10.45 10.45 10.44 10.45 10.45 10.45 10.45 10.45 10.44 10.45 10.44 10.45 10.45 10.45 10.45 10.45 10.45 10.44 10.45 10.45 10.45 10.44 10.45 10.45 10.45 10.44 10.45 10.45 10.45 10.44 10.45 10.45 10.45 10.44 10.45 10.45 10.45 10.45 10.44 10.45 10.45 10.44 10.45 10.45 10.45 10.45 10.45 10.45 10.44 10.45 10.45 10.45 10.44 10.45 10.45 10.45 10.44 10.45 10.45 10.45 10.44 10.45 10.45 10.45 10.45 10.44 10.45 10.45 10.44 10.45 10.45 10.45 10.45 10.45 10.45 10.44 10.45 10.45 10.45 10.44 10.45 10.45 10.45 10.44 10.45 10.45 10.44 10.45 10.45 10.45 10.45 10.45 10.44 10.45 10.45 10.44 10.45 10.45 10.45 10.45 10.45 10.45 10.44 10.45 10.45 10.44 10.45 10.45 10.45 10.44 10.45 10.45 10.45 10.44 10.45 10.45 10.45 10.44 10.45 10.45 10.45 10.45 10.44 10.45 10.45 10.44 10.45 10.45 10.45 10.45 10.45 10.45 10.45 10.44 10.45 10.45 10.44 10.45 10.45 10.45 10.44 10.45 10.45 10.45 10.44 10.45 10.45 10.45 10.44 10.45 10.45 10.45 10.44 10.45 10.45 10.45 10.45 10.45 10.45 10.44 10.45 10.45 10.45 10.44 10.45 10.45 10.45 10.44 10.45 10.45 10.45 10.44 10.45 10.45 10.45 10.45 10.44 10.45 10.45 10.44 10.45 10.45 10.45 10.45 10.45 10.45 10.44 10.45 10.45 10.45 10.46 10.4 10.5 10.4 10.5 10.4 10.5 10.4 10.5 10.4 10.5 10.4 10.5 10.4 10.5 10.4 10.4 10.5 10.4 10.5 10.4 10.5 10.4 10.5 10.4 10.5 10.4 10.5 10.4 10.5 10.4 10.5 10.4 10.5 10.4 10.5 10.4 10.4 10.5 10.4 10.5 10.4 10.5 10.4 10.5 10.4 10.5 10.4 10.5 10.4 10.5 10.4 10.5 10.4 10.5 10.4 10.5 10.4 10.4 10.5 10.4 10.5 10.4 10.5 10.4 10.5 10.4 10.5 10.4 10.5 10.4 10.5 10.4 10.5 10.4 10.5 10.4 10.5 10.4 10.5 10.4 10.4 10.5 10.4 10.5 10.4 10.5 10.4 10.5 10.4 10.5 10.4 10.5 10.4 10.5 10.4 10.5 10.4 10.5 10.4 10.5 10.4 10.5 10.4 10.4 10.5 10.4 10.5 10.4 10.5 10.4 10.5 10.4 10.5 10.4 10.5 10.4 10.5 10.4 10.5 10.4 10.5 10.4 10.4 10.5 10.4 10.5 10.4 10.5 10.4 10.5 10.4 10.5 10.4 10.5 10.4 10.5 10.4 10.5 10.4 10.5 10.4 10.5 10.4 10.5 10.4 10.5 10.4 10.4 10.5 10.4 10.5 10.4 10.5 10.4 10.5 10.4 10.5 10.4 10.5 10.4 10.5 10.4 10.5 10.4 10.5 10.4 10.5 10.4 10.4 10.5 10.4 10.5 10.4 10.5 10.4 10.5 10.4 10.5 10.4 10.5 10.4 10.5 10.4 10.5 10.4 10.5 10.4 10.5 10.4 10.5 10.4 10.4 10.5 10.4 10.5 10.4 10.5 10.4 10.5 10.4 10.5 10.4 10.5 10.4 10.5 10.4 10.5 10.4 10.5"
         style="fill:none;stroke:#000000;stroke-width:15.0134;stroke-linecap:butt;stroke-linejoin:round;stroke-miterlimit:10;stroke-dasharray:none;stroke-opacity:1"
         id="path13409" /></g><path
       d="m 1034.27,57.0734 h 176.479 v 95.5273 H 1034.27 Z"
       style="fill:#ffffff;fill-opacity:1;fill-rule:nonzero;stroke:none;stroke-width:0.1"
       id="path13411" /><g
       id="g13413"><text
         transform="matrix(0.999118,0,0,-1,1069.56,132.466)"
         style="font-variant:normal;font-weight:normal;font-size:18.024px;font-family:Helvetica;-inkscape-font-specification:Helvetica;writing-mode:lr-tb;fill:#000000;fill-opacity:1;fill-rule:nonzero;stroke:none"
         id="text13417"><tspan
           x="0 13.013328 23.034672"
           y="0"
           sodipodi:role="line"
           id="tspan13415">Raw</tspan></text></g><g
       id="g13419"
       transform="scale(0.0999559,-0.100044)"><path
         d="m 10377.3,-1396.12 h 300.5"
         style="fill:none;stroke:#99c2ff;stroke-width:10.0109;stroke-linecap:butt;stroke-linejoin:round;stroke-miterlimit:10;stroke-dasharray:none;stroke-opacity:1"
         id="path13421" /></g><g
       id="g13423"><text
         transform="matrix(0.999118,0,0,-1,1069.68,109.345)"
         style="font-variant:normal;font-weight:normal;font-size:18.024px;font-family:Helvetica;-inkscape-font-specification:Helvetica;writing-mode:lr-tb;fill:#000000;fill-opacity:1;fill-rule:nonzero;stroke:none"
         id="text13427"><tspan
           x="0 11.012664 15.013992 19.01532 24.025991 34.047337 40.049328 50.070671 60.092014 65.102692"
           y="0"
           sodipodi:role="line"
           id="tspan13425">Filtered, </tspan></text></g><path
       d="m 1143.53,109.138 c -0.57,0 -1.08,0.137 -1.52,0.409 -0.44,0.272 -0.78,0.637 -1.02,1.093 -0.24,0.457 -0.36,0.977 -0.36,1.559 0,0.814 0.23,1.619 0.68,2.417 0.45,0.798 1.06,1.446 1.81,1.943 0.75,0.498 1.54,0.746 2.37,0.746 0.61,0 1.15,-0.159 1.61,-0.478 0.46,-0.32 0.82,-0.743 1.06,-1.272 0.24,-0.529 0.36,-1.097 0.36,-1.704 l 0.02,-1.201 c 0.4,0.569 0.75,1.159 1.03,1.769 0.29,0.61 0.51,1.244 0.66,1.901 0.02,0.075 0.07,0.113 0.15,0.113 h 0.2 c 0.11,0 0.17,-0.056 0.17,-0.169 0,-0.013 -0.01,-0.032 -0.02,-0.057 -0.14,-0.55 -0.31,-1.079 -0.52,-1.586 -0.22,-0.507 -0.46,-0.998 -0.75,-1.474 -0.28,-0.476 -0.59,-0.907 -0.92,-1.295 0,-1.49 0.17,-2.235 0.51,-2.235 0.23,0 0.41,0.066 0.56,0.197 0.14,0.132 0.27,0.295 0.37,0.489 0.11,0.193 0.18,0.294 0.21,0.3 h 0.21 c 0.1,0 0.14,-0.059 0.14,-0.178 0,-0.294 -0.17,-0.582 -0.51,-0.864 -0.34,-0.282 -0.68,-0.423 -1.01,-0.423 -0.44,0 -0.8,0.141 -1.08,0.423 -0.29,0.282 -0.49,0.651 -0.59,1.108 -0.57,-0.482 -1.18,-0.858 -1.83,-1.127 -0.66,-0.269 -1.32,-0.404 -1.99,-0.404 z m 0.04,0.479 c 1.28,0 2.51,0.529 3.69,1.587 0,0.069 -0.01,0.155 -0.03,0.258 -0.01,0.103 -0.02,0.161 -0.02,0.174 v 1.943 c 0,2.178 -0.58,3.266 -1.75,3.266 -0.71,0 -1.32,-0.3 -1.85,-0.901 -0.53,-0.601 -0.93,-1.32 -1.19,-2.158 -0.27,-0.839 -0.4,-1.603 -0.4,-2.291 0,-0.526 0.13,-0.97 0.4,-1.333 0.26,-0.363 0.65,-0.545 1.15,-0.545"
       style="fill:#000000;fill-opacity:1;fill-rule:nonzero;stroke:none;stroke-width:0.1"
       id="path13429" /><g
       id="g13431"><text
         transform="matrix(0.999118,0,0,-1,1156.9163,109.345)"
         style="font-variant:normal;font-weight:normal;font-size:18.024px;font-family:Helvetica;-inkscape-font-specification:Helvetica;writing-mode:lr-tb;fill:#000000;fill-opacity:1;fill-rule:nonzero;stroke:none"
         id="text13435"><tspan
           x="0 10.526016 15.536688 25.558031 30.568705 40.59005"
           y="0"
           sodipodi:role="line"
           id="tspan13433">= 0.01</tspan></text></g><g
       id="g13437"
       transform="scale(0.0999559,-0.100044)"><path
         d="m 10377.3,-1163.98 h 300.5"
         style="fill:none;stroke:#edb120;stroke-width:15.0134;stroke-linecap:butt;stroke-linejoin:round;stroke-miterlimit:10;stroke-dasharray:none;stroke-opacity:1"
         id="path13439" /></g><g
       id="g13441"><text
         transform="matrix(0.999118,0,0,-1,1069.68,85.9141)"
         style="font-variant:normal;font-weight:normal;font-size:18.024px;font-family:Helvetica;-inkscape-font-specification:Helvetica;writing-mode:lr-tb;fill:#000000;fill-opacity:1;fill-rule:nonzero;stroke:none"
         id="text13445"><tspan
           x="0 11.012664 15.013992 19.01532 24.025991 34.047337 40.049328 50.070671 60.092014 65.102692"
           y="0"
           sodipodi:role="line"
           id="tspan13443">Filtered, </tspan></text></g><path
       d="m 1143.53,85.7074 c -0.57,0 -1.08,0.136 -1.52,0.4082 -0.44,0.2727 -0.78,0.6371 -1.02,1.0938 -0.24,0.457 -0.36,0.9765 -0.36,1.5582 0,0.8137 0.23,1.6191 0.68,2.4172 0.45,0.7984 1.06,1.4461 1.81,1.9437 0.75,0.4973 1.54,0.7461 2.37,0.7461 0.61,0 1.15,-0.1598 1.61,-0.4789 0.46,-0.3191 0.82,-0.7434 1.06,-1.2719 0.24,-0.5289 0.36,-1.0965 0.36,-1.7039 l 0.02,-1.2015 c 0.4,0.5695 0.75,1.1593 1.03,1.7695 0.29,0.6101 0.51,1.2437 0.66,1.9008 0.02,0.0754 0.07,0.1129 0.15,0.1129 h 0.2 c 0.11,0 0.17,-0.0563 0.17,-0.1688 0,-0.0129 -0.01,-0.0316 -0.02,-0.0566 -0.14,-0.5508 -0.31,-1.0797 -0.52,-1.5867 -0.22,-0.5067 -0.46,-0.9977 -0.75,-1.4739 -0.28,-0.4754 -0.59,-0.907 -0.92,-1.2953 0,-1.4894 0.17,-2.2344 0.51,-2.2344 0.23,0 0.41,0.0661 0.56,0.1973 0.14,0.1313 0.27,0.2941 0.37,0.4883 0.11,0.1941 0.18,0.2941 0.21,0.3004 h 0.21 c 0.1,0 0.14,-0.0594 0.14,-0.1781 0,-0.2942 -0.17,-0.5821 -0.51,-0.8641 -0.34,-0.2817 -0.68,-0.4223 -1.01,-0.4223 -0.44,0 -0.8,0.1406 -1.08,0.4223 -0.29,0.282 -0.49,0.6512 -0.59,1.1078 -0.57,-0.482 -1.18,-0.8574 -1.83,-1.1266 -0.66,-0.2691 -1.32,-0.4035 -1.99,-0.4035 z m 0.04,0.4785 c 1.28,0 2.51,0.5289 3.69,1.5868 0,0.0691 -0.01,0.155 -0.03,0.2578 -0.01,0.1035 -0.02,0.1613 -0.02,0.1742 v 1.943 c 0,2.1777 -0.58,3.2668 -1.75,3.2668 -0.71,0 -1.32,-0.3004 -1.85,-0.9012 -0.53,-0.6008 -0.93,-1.3207 -1.19,-2.159 -0.27,-0.8387 -0.4,-1.6023 -0.4,-2.2906 0,-0.5254 0.13,-0.9699 0.4,-1.3332 0.26,-0.3629 0.65,-0.5446 1.15,-0.5446"
       style="fill:#000000;fill-opacity:1;fill-rule:nonzero;stroke:none;stroke-width:0.1"
       id="path13447" /><g
       id="g13449"><text
         transform="matrix(0.999118,0,0,-1,1156.9163,85.9141)"
         style="font-variant:normal;font-weight:normal;font-size:18.024px;font-family:Helvetica;-inkscape-font-specification:Helvetica;writing-mode:lr-tb;fill:#000000;fill-opacity:1;fill-rule:nonzero;stroke:none"
         id="text13453"><tspan
           x="0 10.526016 15.536688 25.558031 30.568705 40.59005"
           y="0"
           sodipodi:role="line"
           id="tspan13451">= 0.05</tspan></text></g><g
       id="g13455"
       transform="scale(0.0999559,-0.100044)"><path
         d="m 10377.3,-931.839 h 300.5"
         style="fill:none;stroke:#77ac30;stroke-width:15.0134;stroke-linecap:butt;stroke-linejoin:round;stroke-miterlimit:10;stroke-dasharray:none;stroke-opacity:1"
         id="path13457" /></g><g
       id="g13459"><text
         transform="matrix(0.999118,0,0,-1,1069.68,63.0836)"
         style="font-variant:normal;font-weight:normal;font-size:18.024px;font-family:Helvetica;-inkscape-font-specification:Helvetica;writing-mode:lr-tb;fill:#000000;fill-opacity:1;fill-rule:nonzero;stroke:none"
         id="text13463"><tspan
           x="0 11.012664 15.013992 19.01532 24.025991 34.047337 40.049328 50.070671 60.092014 65.102692"
           y="0"
           sodipodi:role="line"
           id="tspan13461">Filtered, </tspan></text></g><path
       d="m 1143.53,62.877 c -0.57,0 -1.08,0.1363 -1.52,0.4085 -0.44,0.2723 -0.78,0.6368 -1.02,1.0934 -0.24,0.457 -0.36,0.9766 -0.36,1.5586 0,0.8133 0.23,1.6191 0.68,2.4168 0.45,0.7984 1.06,1.4465 1.81,1.9437 0.75,0.4977 1.54,0.7461 2.37,0.7461 0.61,0 1.15,-0.1593 1.61,-0.4789 0.46,-0.3191 0.82,-0.7429 1.06,-1.2718 0.24,-0.5286 0.36,-1.0965 0.36,-1.7036 l 0.02,-1.2019 c 0.4,0.5695 0.75,1.1594 1.03,1.7695 0.29,0.6106 0.51,1.2442 0.66,1.9008 0.02,0.0754 0.07,0.1133 0.15,0.1133 h 0.2 c 0.11,0 0.17,-0.0567 0.17,-0.1692 0,-0.0128 -0.01,-0.0316 -0.02,-0.0562 -0.14,-0.5508 -0.31,-1.0797 -0.52,-1.5867 -0.22,-0.5067 -0.46,-0.9981 -0.75,-1.4739 -0.28,-0.4753 -0.59,-0.9074 -0.92,-1.2953 0,-1.4894 0.17,-2.2343 0.51,-2.2343 0.23,0 0.41,0.0656 0.56,0.1968 0.14,0.1317 0.27,0.2942 0.37,0.4887 0.11,0.1938 0.18,0.2938 0.21,0.3004 h 0.21 c 0.1,0 0.14,-0.0594 0.14,-0.1785 0,-0.2942 -0.17,-0.582 -0.51,-0.8641 -0.34,-0.2816 -0.68,-0.4222 -1.01,-0.4222 -0.44,0 -0.8,0.1406 -1.08,0.4222 -0.29,0.2821 -0.49,0.6516 -0.59,1.1078 -0.57,-0.4816 -1.18,-0.857 -1.83,-1.1261 -0.66,-0.2692 -1.32,-0.4039 -1.99,-0.4039 z m 0.04,0.4789 c 1.28,0 2.51,0.5289 3.69,1.5867 0,0.0687 -0.01,0.1547 -0.03,0.2578 -0.01,0.1031 -0.02,0.1613 -0.02,0.1742 v 1.943 c 0,2.1777 -0.58,3.2664 -1.75,3.2664 -0.71,0 -1.32,-0.3004 -1.85,-0.9012 -0.53,-0.6008 -0.93,-1.3203 -1.19,-2.1586 -0.27,-0.8387 -0.4,-1.6023 -0.4,-2.291 0,-0.5254 0.13,-0.9699 0.4,-1.3332 0.26,-0.3629 0.65,-0.5441 1.15,-0.5441"
       style="fill:#000000;fill-opacity:1;fill-rule:nonzero;stroke:none;stroke-width:0.1"
       id="path13465" /><g
       id="g13467"><text
         transform="matrix(0.999118,0,0,-1,1156.9163,63.0836)"
         style="font-variant:normal;font-weight:normal;font-size:18.024px;font-family:Helvetica;-inkscape-font-specification:Helvetica;writing-mode:lr-tb;fill:#000000;fill-opacity:1;fill-rule:nonzero;stroke:none"
         id="text13471"><tspan
           x="0 10.526016 15.536688 25.558031 30.568705"
           y="0"
           sodipodi:role="line"
           id="tspan13469">= 0.5</tspan></text></g><g
       id="g13473"
       transform="scale(0.0999559,-0.100044)"><path
         d="m 10377.3,-699.703 h 300.5"
         style="fill:none;stroke:#000000;stroke-width:15.0134;stroke-linecap:butt;stroke-linejoin:round;stroke-miterlimit:10;stroke-dasharray:none;stroke-opacity:1"
         id="path13475" /></g><g
       id="g13477"
       transform="scale(0.0999559,-0.100044)"><path
         d="m 10347.2,-570.483 v -954.847 h 1765.6 v 954.847 z"
         style="fill:none;stroke:#262626;stroke-width:5.00246;stroke-linecap:butt;stroke-linejoin:miter;stroke-miterlimit:10;stroke-dasharray:none;stroke-opacity:1"
         id="path13479" /></g></g></svg>
